<?xml version="1.0" standalone="no"?>
<!DOCTYPE svg PUBLIC "-//W3C//DTD SVG 1.1//EN" "http://www.w3.org/Graphics/SVG/1.1/DTD/svg11.dtd" >
<svg xmlns="http://www.w3.org/2000/svg" xmlns:xlink="http://www.w3.org/1999/xlink" version="1.1">
<metadata>
Created by FontForge 20170731 at Fri Jan 21 06:48:16 2022
 By Aleksey,,,
(c) 1989, 1990, 2002 Adobe Systems Incorporated. All rights reserved. (c) 1981, 2002 Heidelberger Druckmaschinen AG. All rights reserved.
</metadata>
<defs>
<font id="TradeGothicLTStd" horiz-adv-x="1024" >
  <font-face 
    font-family="Trade Gothic LT Std"
    font-weight="400"
    font-stretch="normal"
    units-per-em="2048"
    panose-1="2 11 5 3 2 5 2 2 2 4"
    ascent="1479"
    descent="-569"
    x-height="1065"
    cap-height="1479"
    bbox="-342 -459 2048 1966"
    underline-thickness="102"
    underline-position="-307"
    unicode-range="U+0020-FB02"
  />
<missing-glyph 
d="M0 0v1434h1024v-1434h-1024zM512 809l348 522h-696zM573 717l349 -522v1044zM164 102h696l-348 523zM102 1239v-1044l349 522z" />
    <glyph glyph-name="f_i" unicode="fi" horiz-adv-x="1138" 
d="M356 0h-147v938h-180v127h180v121q0 94 15.5 155.5t49.5 96t80 48t115 13.5q23 0 131 -10v-131q-9 1 -48 7.5t-58 6.5q-77 0 -107.5 -32t-30.5 -119v-156h232v-127h-232v-938zM813 0v1065h148v-1065h-148zM813 1499h148v-176h-148v176z" />
    <glyph glyph-name="f_l" unicode="fl" horiz-adv-x="1138" 
d="M356 0h-147v938h-180v127h180v121q0 94 15.5 155.5t49.5 96t80 48t115 13.5q23 0 131 -10v-131q-9 1 -48 7.5t-58 6.5q-77 0 -107.5 -32t-30.5 -119v-156h232v-127h-232v-938zM813 1479h148v-1479h-148v1479z" />
    <glyph glyph-name=".notdef" 
d="M0 0v1434h1024v-1434h-1024zM512 809l348 522h-696zM573 717l349 -522v1044zM164 102h696l-348 523zM102 1239v-1044l349 522z" />
    <glyph glyph-name=".null" horiz-adv-x="0" 
 />
    <glyph glyph-name="nonmarkingreturn" horiz-adv-x="682" 
 />
    <glyph glyph-name="space" unicode=" " horiz-adv-x="624" 
 />
    <glyph glyph-name="exclam" unicode="!" horiz-adv-x="681" 
d="M231 1479h218l-43 -1012h-132zM240 225h200v-225h-200v225z" />
    <glyph glyph-name="quotedbl" unicode="&#x22;" horiz-adv-x="681" 
d="M156 926v553h127v-553h-127zM399 926v553h127v-553h-127z" />
    <glyph glyph-name="numbersign" unicode="#" horiz-adv-x="1251" 
d="M512 897l-41 -311h277l43 311h-279zM455 471l-64 -471h-127l64 471h-203v115h219l41 311h-203v115h219l64 467h127l-64 -467h279l61 467h127l-61 -467h192v-115h-208l-44 -311h195v-115h-211l-63 -471h-127l63 471h-276z" />
    <glyph glyph-name="dollar" unicode="$" horiz-adv-x="1251" 
d="M563 854v498q-122 3 -195.5 -60.5t-70.5 -165.5q0 -217 266 -272zM702 659v-532q116 6 201.5 75t85.5 175q0 52 -17.5 94.5t-42.5 69.5t-67 51.5t-75.5 37t-84.5 29.5zM563 1479v157h139v-157q117 -8 217.5 -78.5t161.5 -163.5l-106 -86q-46 76 -119 131t-154 70v-535
q229 -73 332 -167t103 -261q0 -168 -128 -278.5t-307 -110.5v-254h-139v254q-228 5 -450 268l118 90q37 -54 84 -101.5t115 -86.5t133 -43v571q-52 12 -100 29t-108 50.5t-103 75.5t-72.5 107t-29.5 142q0 92 35 165.5t93.5 119t131.5 69t153 23.5z" />
    <glyph glyph-name="percent" unicode="%" horiz-adv-x="1820" 
d="M1356 127q92 0 153.5 59.5t61.5 153.5t-61.5 153.5t-153.5 59.5t-153.5 -59.5t-61.5 -153.5t61.5 -153.5t153.5 -59.5zM1356 0q-143 0 -242.5 98t-99.5 242t99.5 242t242.5 98t242.5 -98t99.5 -242t-99.5 -242t-242.5 -98zM465 799q-143 0 -242.5 98t-99.5 242t99.5 242
t242.5 98t242.5 -98t99.5 -242t-99.5 -242t-242.5 -98zM465 926q92 0 153.5 59.5t61.5 153.5t-61.5 153.5t-153.5 59.5t-153.5 -59.5t-61.5 -153.5t61.5 -153.5t153.5 -59.5zM424 -20l850 1519h121l-850 -1519h-121z" />
    <glyph glyph-name="ampersand" unicode="&#x26;" horiz-adv-x="1366" 
d="M459 1198q0 -105 86 -264q91 59 156 135.5t65 153.5q0 66 -44.5 107.5t-103.5 41.5q-76 0 -117.5 -52t-41.5 -122zM1085 745l136 -32q-23 -119 -68.5 -242.5t-97.5 -198.5q45 -48 122.5 -86.5t120.5 -38.5v-147h-53q-56 0 -141.5 43t-149.5 104q-154 -167 -422 -167
q-116 0 -216 51t-163 149t-63 223q0 245 322 447q-48 71 -82.5 170.5t-34.5 183.5q0 129 90.5 212t241.5 83q131 0 217 -73t86 -201q0 -49 -20.5 -99.5t-49 -89t-75.5 -82.5t-81.5 -71t-85.5 -64q111 -200 334 -446q37 48 75 152.5t58 219.5zM254 393q0 -67 26.5 -121
t70 -86.5t95.5 -49.5t107 -17q172 0 299 123q-236 273 -373 495q-52 -34 -86.5 -62.5t-69.5 -70t-52 -94t-17 -117.5z" />
    <glyph glyph-name="quotesingle" unicode="'" horiz-adv-x="454" 
d="M164 926v553h127v-553h-127z" />
    <glyph glyph-name="parenleft" unicode="(" horiz-adv-x="681" 
d="M416 1499h159q-150 -202 -221 -401t-71 -441q0 -223 74.5 -426t215.5 -403h-151q-287 380 -287 840q0 225 72 437t209 394z" />
    <glyph glyph-name="parenright" unicode=")" horiz-adv-x="681" 
d="M266 -172h-160q150 202 221.5 401t71.5 441q0 223 -74.5 426t-215.5 403h151q287 -380 287 -840q0 -225 -72 -437t-209 -394z" />
    <glyph glyph-name="asterisk" unicode="*" 
d="M455 1114l-303 47l36 133l281 -133l12 8l-45 310h137l-36 -305l14 -13l270 142l51 -138l-305 -63l-6 -17l217 -217l-110 -86l-150 275h-16l-150 -271l-106 80l213 234z" />
    <glyph glyph-name="plus" unicode="+" horiz-adv-x="1228" 
d="M551 596v469h127v-469h469v-127h-469v-469h-127v469h-469v127h469z" />
    <glyph glyph-name="comma" unicode="," horiz-adv-x="624" 
d="M412 225v-225l-129 -303h-86l96 303h-82v225h201z" />
    <glyph glyph-name="hyphen" unicode="-" horiz-adv-x="681" 
d="M598 469h-516v127h516v-127z" />
    <glyph glyph-name="period" unicode="." horiz-adv-x="624" 
d="M211 225h201v-225h-201v225z" />
    <glyph glyph-name="slash" unicode="/" horiz-adv-x="569" 
d="M461 1499h125l-480 -1519h-122z" />
    <glyph glyph-name="zero" unicode="0" horiz-adv-x="1251" 
d="M102 739q0 389 136.5 574.5t386.5 185.5t386 -185.5t136 -574.5t-136 -574t-386 -185q-251 0 -387 185t-136 574zM258 739q0 -330 91.5 -481.5t275.5 -151.5t275 151.5t91 481.5t-91 481.5t-275 151.5t-275.5 -151.5t-91.5 -481.5z" />
    <glyph glyph-name="one" unicode="1" horiz-adv-x="1251" 
d="M973 0h-656v127h256v1202l-284 -29v97q15 5 60 18t67 20t56 18.5t58 22.5t43 23h148v-1372h252v-127z" />
    <glyph glyph-name="two" unicode="2" horiz-adv-x="1251" 
d="M1096 127v-127h-961v156q45 92 108 173t126.5 137.5t133 111.5t132 96.5t119.5 90t98 95t65.5 109t24.5 133.5q0 129 -79 199.5t-220 70.5q-76 0 -140 -28.5t-105.5 -76t-67 -102.5t-35.5 -114l-145 32q95 416 497 416q123 0 224 -44.5t164 -135t63 -213.5
q0 -92 -36 -174t-96.5 -147t-134.5 -125t-155.5 -120t-154.5 -119.5t-135.5 -136t-94.5 -157.5h805z" />
    <glyph glyph-name="three" unicode="3" horiz-adv-x="1251" 
d="M70 270l118 82q183 -246 406 -246q162 0 255 77t93 210q0 332 -418 332h-145v127h88q218 0 320 68.5t102 207.5q0 109 -80.5 176.5t-190.5 67.5q-66 0 -117 -13t-93 -43t-73 -62.5t-73 -86.5l-121 82q84 117 197.5 183.5t279.5 66.5q198 0 312 -97.5t114 -271.5
q0 -124 -65.5 -206.5t-163.5 -120.5q283 -109 283 -393q0 -191 -137.5 -310.5t-366.5 -119.5q-100 0 -189.5 28t-153.5 74.5t-107.5 92.5t-73.5 95z" />
    <glyph glyph-name="four" unicode="4" horiz-adv-x="1251" 
d="M1159 348h-254v-348h-147v348h-680v127l610 1004h217v-1004h254v-127zM752 1323l-519 -848h525v848h-6z" />
    <glyph glyph-name="five" unicode="5" horiz-adv-x="1251" 
d="M1026 1479v-127h-635l-37 -473q131 120 303 120q94 0 178 -32t150.5 -92.5t105.5 -157.5t39 -217q0 -71 -16.5 -141t-55.5 -139t-96.5 -122t-146 -85.5t-197.5 -32.5q-73 0 -137 16t-111 41.5t-90 64t-72.5 75.5t-60.5 85l134 70q57 -105 143.5 -165.5t198.5 -60.5
q75 0 137.5 23t111.5 69t76 123t27 179q0 165 -90 268.5t-242 103.5q-105 0 -185.5 -59t-125.5 -164l-129 29l65 801h758z" />
    <glyph glyph-name="six" unicode="6" horiz-adv-x="1251" 
d="M1049 1413l-64 -125q-55 43 -112.5 63.5t-139.5 20.5q-90 0 -169 -37.5t-143 -111t-102.5 -194.5t-39.5 -275q52 54 100.5 89t128 61t176.5 26q85 0 163 -30t141.5 -87t101.5 -150t38 -208q0 -114 -39.5 -206.5t-107 -150t-152 -88t-178.5 -30.5q-95 0 -173 22.5
t-145 73.5t-113 129t-71.5 194.5t-25.5 264.5q0 237 67.5 423.5t206.5 299t332 112.5q112 0 198 -26t122 -60zM973 451q0 163 -92 257.5t-217 94.5q-137 0 -254.5 -96t-126.5 -220q6 -162 103.5 -271.5t252.5 -109.5q154 0 244 96t90 249z" />
    <glyph glyph-name="seven" unicode="7" horiz-adv-x="1251" 
d="M901 1352h-749v127h938v-90l-625 -1389h-172z" />
    <glyph glyph-name="eight" unicode="8" horiz-adv-x="1251" 
d="M1163 385q0 -86 -34 -158.5t-99 -128t-169 -87t-236 -31.5t-236 31.5t-169.5 87t-99.5 128t-34 158.5q0 132 89 232.5t235 168.5v5q-124 46 -193.5 135t-69.5 204q0 118 63.5 202.5t170 125.5t244.5 41t244.5 -41t169.5 -125.5t63 -202.5q0 -115 -69 -204t-193 -135v-5
q142 -51 232.5 -154.5t90.5 -246.5zM242 385q0 -51 23 -99t67.5 -89t120.5 -66t172 -25t172 25t120.5 66t67.5 89t23 99q0 50 -21 93.5t-55.5 76.5t-89.5 64t-111 53.5t-133 48.5q-65 -28 -107.5 -48.5t-94.5 -53.5t-82 -64.5t-51 -75.5t-21 -94zM946 1139q0 78 -47.5 132.5
t-118 77.5t-155.5 23t-155.5 -23t-118.5 -77.5t-48 -132.5q0 -46 22.5 -87.5t56 -72t78.5 -56.5t84.5 -41.5t80.5 -27.5q135 34 228 109t93 176z" />
    <glyph glyph-name="nine" unicode="9" horiz-adv-x="1251" 
d="M203 66l63 124q55 -43 112.5 -63.5t139.5 -20.5q88 0 167 40t141 115.5t101 195t46 268.5q-51 -54 -100 -89t-129 -61t-177 -26q-85 0 -163 30t-141.5 87t-101.5 150t-38 208q0 114 39.5 206.5t107 150t152 88t178.5 30.5q95 0 173 -22.5t145 -73.5t113 -129t71.5 -194.5
t25.5 -264.5q0 -237 -67.5 -423.5t-206.5 -299t-332 -112.5q-112 0 -197.5 26t-121.5 60zM279 1028q0 -163 92 -257.5t217 -94.5q131 0 232 76.5t145 197.5q-3 194 -98 308t-255 114q-154 0 -243.5 -95.5t-89.5 -248.5z" />
    <glyph glyph-name="colon" unicode=":" horiz-adv-x="624" 
d="M412 0h-201v225h201v-225zM412 594h-201v225h201v-225z" />
    <glyph glyph-name="semicolon" unicode=";" horiz-adv-x="624" 
d="M412 225v-225l-129 -303h-86l96 303h-82v225h201zM412 594h-201v225h201v-225z" />
    <glyph glyph-name="less" unicode="&#x3c;" horiz-adv-x="1228" 
d="M1135 127v-127l-1041 475v115l1041 475v-127l-893 -406z" />
    <glyph glyph-name="equal" unicode="=" horiz-adv-x="1228" 
d="M1147 805v-127h-1065v127h1065zM1147 387v-127h-1065v127h1065z" />
    <glyph glyph-name="greater" unicode="&#x3e;" horiz-adv-x="1228" 
d="M94 127l893 405l-893 406v127l1041 -473v-119l-1041 -473v127z" />
    <glyph glyph-name="question" unicode="?" horiz-adv-x="909" 
d="M451 467h-140v113q0 72 22.5 136t57 107.5t74 89.5t74 84.5t57 90.5t22.5 108q0 70 -43.5 123t-128.5 53q-71 0 -121 -36.5t-94 -121.5l-122 60q51 110 136.5 167.5t196.5 57.5q137 0 234.5 -83.5t97.5 -227.5q0 -73 -33.5 -142t-81 -123t-94.5 -106t-80.5 -112.5
t-33.5 -122.5v-115zM276 225h201v-225h-201v225z" />
    <glyph glyph-name="at" unicode="@" horiz-adv-x="1638" 
d="M553 631q0 -92 35.5 -146.5t103.5 -54.5q67 0 130.5 40.5t106.5 101.5t69 132t26 134q0 93 -43.5 140.5t-103.5 47.5q-71 0 -133.5 -38.5t-103 -97.5t-64 -128t-23.5 -131zM1090 1012l40 123h138l-164 -564q-21 -82 -21 -100q0 -51 45 -51q74 0 142 65t107.5 164
t39.5 199q0 121 -45.5 220.5t-123 164.5t-180 100t-218.5 35q-132 0 -246.5 -49.5t-194.5 -135t-125.5 -202.5t-45.5 -248q0 -176 82 -319.5t222 -223t308 -79.5q155 0 287.5 57.5t218.5 163.5h155q-95 -170 -273.5 -261t-387.5 -91q-208 0 -382.5 100t-276 273t-101.5 380
q0 159 60.5 301.5t163 244t242.5 161t294 59.5q189 0 348 -79t254.5 -224t95.5 -326q0 -115 -31.5 -213.5t-81.5 -165t-113 -114t-125.5 -69t-119.5 -21.5q-60 0 -100 36.5t-43 90.5l-4 -2q-47 -52 -112.5 -88.5t-131.5 -36.5q-128 0 -212.5 94.5t-84.5 228.5q0 102 34 202
t92.5 179.5t145 128.5t183.5 49q175 0 246 -157z" />
    <glyph glyph-name="A" unicode="A" horiz-adv-x="1251" 
d="M614 1364l-213 -762h449l-213 762h-23zM221 0h-172l455 1479h244l454 -1479h-172l-139 463h-531z" />
    <glyph glyph-name="B" unicode="B" horiz-adv-x="1366" 
d="M221 0v1479h545q188 0 301 -104.5t113 -260.5q0 -254 -250 -340l2 -4q126 -31 205.5 -133.5t79.5 -239.5q0 -69 -17 -126.5t-57 -108.5t-100.5 -86t-153 -55.5t-209.5 -20.5h-459zM385 705v-566h307q183 0 272 65t89 202q0 140 -104.5 219.5t-280.5 79.5h-283zM385 1339
v-495h287q89 0 157.5 21.5t108 58t59 80t19.5 92.5q0 124 -69 183.5t-210 59.5h-352z" />
    <glyph glyph-name="C" unicode="C" horiz-adv-x="1251" 
d="M1024 471l147 -29q-111 -462 -520 -462q-126 0 -228.5 46.5t-178 138t-117 238t-41.5 336.5q0 360 149 560t416 200q201 0 325 -111t175 -319l-152 -45q-43 168 -126.5 252t-241.5 84q-81 0 -149.5 -38t-120.5 -112.5t-81.5 -195t-29.5 -275.5q0 -310 111 -465t303 -155
q82 0 145 28.5t104 81t66.5 110.5t44.5 132z" />
    <glyph glyph-name="D" unicode="D" horiz-adv-x="1366" 
d="M369 1339v-1200h221q255 0 385.5 151.5t130.5 448.5q0 159 -36.5 275.5t-104.5 187t-159 104t-208 33.5h-229zM205 0v1479h397q308 0 488 -192t180 -548q0 -163 -44 -298.5t-128 -233.5t-212.5 -152.5t-291.5 -54.5h-389z" />
    <glyph glyph-name="E" unicode="E" horiz-adv-x="1251" 
d="M221 1479h887v-140h-723v-495h514v-139h-514v-566h764v-139h-928v1479z" />
    <glyph glyph-name="F" unicode="F" horiz-adv-x="1138" 
d="M205 1479h876v-140h-712v-495h528v-139h-528v-705h-164v1479z" />
    <glyph glyph-name="G" unicode="G" horiz-adv-x="1366" 
d="M705 711h497v-711h-135v135h-4q-56 -76 -158 -115.5t-229 -39.5q-128 0 -232.5 46.5t-182 138t-120.5 238t-43 336.5t43 336.5t120.5 238.5t182 138.5t232.5 46.5q408 0 532 -434l-155 -31q-54 172 -145 249t-224 77q-68 0 -127.5 -18.5t-114.5 -64t-94 -115
t-62.5 -177.5t-23.5 -246t23.5 -246t62.5 -177t94 -114.5t114.5 -64t127.5 -18.5q173 0 263.5 92t90.5 235v125h-333v140z" />
    <glyph glyph-name="H" unicode="H" horiz-adv-x="1478" 
d="M1094 1479h163v-1479h-163v705h-709v-705h-164v1479h164v-635h709v635z" />
    <glyph glyph-name="I" unicode="I" horiz-adv-x="681" 
d="M258 1479h164v-1479h-164v1479z" />
    <glyph glyph-name="J" unicode="J" horiz-adv-x="909" 
d="M541 1479h164v-1098q0 -206 -85.5 -303.5t-254.5 -97.5q-118 0 -199 50.5t-150 139.5l123 80q36 -59 95 -95t126 -36q181 0 181 219v1141z" />
    <glyph glyph-name="K" unicode="K" horiz-adv-x="1366" 
d="M401 496v-496h-163v1479h163v-768h5l612 768h194l-458 -557l514 -922h-187l-440 786z" />
    <glyph glyph-name="L" unicode="L" horiz-adv-x="1138" 
d="M1085 0h-864v1479h164v-1340h700v-139z" />
    <glyph glyph-name="M" unicode="M" horiz-adv-x="1705" 
d="M1485 0h-148v1352h-6l-413 -1352h-127l-416 1352h-6v-1352h-148v1479h254l377 -1196h4l371 1196h258v-1479z" />
    <glyph glyph-name="N" unicode="N" horiz-adv-x="1478" 
d="M369 0h-148v1479h236l645 -1139h8v1139h147v-1479h-135l-749 1319h-4v-1319z" />
    <glyph glyph-name="O" unicode="O" horiz-adv-x="1366" 
d="M268 739q0 -309 107.5 -464.5t306.5 -155.5t306.5 155.5t107.5 464.5q0 310 -107.5 465.5t-306.5 155.5t-306.5 -155.5t-107.5 -465.5zM104 739q0 367 152 563.5t426 196.5t426 -196.5t152 -563.5t-152 -563t-426 -196t-426 196t-152 563z" />
    <glyph glyph-name="P" unicode="P" horiz-adv-x="1251" 
d="M369 1339v-540h278q197 0 280 66.5t83 203.5q0 270 -326 270h-315zM369 0h-164v1479h516q115 0 203 -31.5t142 -88.5t81 -131t27 -163q0 -191 -135.5 -298.5t-407.5 -107.5h-262v-659z" />
    <glyph glyph-name="Q" unicode="Q" horiz-adv-x="1366" 
d="M1331 41v-160q-89 0 -150 23.5t-96.5 61.5t-80.5 110q-131 -96 -322 -96q-274 0 -426 196t-152 563t152 563.5t426 196.5t426 -196.5t152 -563.5q0 -366 -152 -563q38 -71 91.5 -103t131.5 -32zM741 322v157q101 -14 164.5 -48t112.5 -103q78 150 78 411
q0 310 -107.5 465.5t-306.5 155.5t-306.5 -155.5t-107.5 -465.5q0 -309 107.5 -464.5t306.5 -155.5q142 0 240 82q-38 57 -78 84.5t-103 36.5z" />
    <glyph glyph-name="R" unicode="R" horiz-adv-x="1366" 
d="M369 1339v-528h297q344 0 344 270q0 142 -88 200t-258 58h-295zM369 0h-164v1479h475q238 0 366 -102t128 -287q0 -288 -295 -385l313 -705h-178l-299 672h-346v-672z" />
    <glyph glyph-name="S" unicode="S" horiz-adv-x="1251" 
d="M1065 1135l-147 -33q-29 114 -119 186t-226 72q-129 0 -202 -60t-74 -170q-1 -52 27 -94t76 -72.5t110.5 -57.5t131.5 -52t138 -52.5t131.5 -63.5t111 -79.5t77 -106t28.5 -138.5q0 -86 -25.5 -159.5t-80.5 -137t-155 -100.5t-236 -37q-93 0 -172 24t-132 60t-98.5 90.5
t-72.5 102t-54 108.5l150 53q113 -299 387 -299q157 0 241.5 73.5t84.5 192.5q0 60 -28.5 108.5t-76.5 82.5t-110.5 62.5t-131.5 54t-138 51.5t-131.5 60.5t-110.5 76t-76.5 102t-28.5 135.5q0 162 124 271.5t321 109.5q175 0 302.5 -92t184.5 -272z" />
    <glyph glyph-name="T" unicode="T" horiz-adv-x="1138" 
d="M1094 1339h-443v-1339h-164v1339h-442v140h1049v-140z" />
    <glyph glyph-name="U" unicode="U" horiz-adv-x="1478" 
d="M221 1479h164v-1045q0 -135 93.5 -225t260.5 -90t261 90t94 225v1045h163v-1033q0 -218 -142.5 -342t-375.5 -124t-375.5 124t-142.5 342v1033z" />
    <glyph glyph-name="V" unicode="V" horiz-adv-x="1138" 
d="M494 0l-457 1479h164l364 -1213h4l367 1213h166l-459 -1479h-149z" />
    <glyph glyph-name="W" unicode="W" horiz-adv-x="1705" 
d="M414 0l-357 1479h156l274 -1180h5l286 1180h146l295 -1180h4l270 1180h156l-351 -1479h-145l-303 1196h-4l-287 -1196h-145z" />
    <glyph glyph-name="X" unicode="X" horiz-adv-x="1138" 
d="M565 610l-348 -610h-188l442 772l-414 707h189l317 -543l311 543h189l-404 -707l451 -772h-188z" />
    <glyph glyph-name="Y" unicode="Y" horiz-adv-x="1138" 
d="M487 0v623l-454 856h180l356 -678l357 678h180l-455 -856v-623h-164z" />
    <glyph glyph-name="Z" unicode="Z" horiz-adv-x="1138" 
d="M1047 139v-139h-955v119l742 1220h-674v140h878v-107l-753 -1233h762z" />
    <glyph glyph-name="bracketleft" unicode="[" horiz-adv-x="681" 
d="M156 -152v1631h417v-86h-270v-1459h270v-86h-417z" />
    <glyph glyph-name="backslash" unicode="\" horiz-adv-x="569" 
d="M-16 1499h125l477 -1519h-123z" />
    <glyph glyph-name="bracketright" unicode="]" horiz-adv-x="681" 
d="M526 1479v-1631h-417v86h270v1459h-270v86h417z" />
    <glyph glyph-name="asciicircum" unicode="^" horiz-adv-x="1228" 
d="M227 571h-131l459 908h119l459 -908h-129l-392 768z" />
    <glyph glyph-name="underscore" unicode="_" 
d="M1024 -256h-1024v102h1024v-102z" />
    <glyph glyph-name="grave" unicode="`" horiz-adv-x="569" 
d="M12 1479h224l182 -291h-137z" />
    <glyph glyph-name="a" unicode="a" 
d="M246 793l-129 67q56 100 156.5 162.5t242.5 62.5q71 0 134 -17.5t117 -54t86 -100t32 -147.5v-537q0 -135 24 -229h-151l-17 147q-151 -167 -352 -167q-130 0 -216.5 76t-86.5 216q0 175 148 273.5t503 161.5v57q0 101 -58.5 147.5t-160.5 46.5q-111 0 -178 -49.5
t-94 -115.5zM737 283v292q-504 -88 -504 -305q0 -70 55.5 -117t121.5 -47q78 0 169.5 50.5t157.5 126.5z" />
    <glyph glyph-name="b" unicode="b" horiz-adv-x="1138" 
d="M180 1479h148v-516l8 4q142 118 280 118q57 0 114 -17t114.5 -59t101 -103t71 -158t27.5 -216q0 -123 -27.5 -220.5t-71.5 -158.5t-102.5 -101t-116.5 -56t-118 -16q-164 0 -307 133l-27 -113h-102q4 27 6 60.5t2.5 53.5t0 63t-0.5 56v1246zM328 811v-561
q80 -78 139.5 -111t128.5 -33q140 0 220.5 109t80.5 309q0 229 -81 331.5t-220 102.5q-65 0 -136 -39.5t-132 -107.5z" />
    <glyph glyph-name="c" unicode="c" 
d="M907 797l-137 -49q-32 100 -95.5 155t-156.5 55q-137 0 -213 -112t-76 -314t76 -314t213 -112q103 0 168 42.5t125 154.5l119 -53q-85 -145 -173.5 -207.5t-238.5 -62.5q-201 0 -318.5 147.5t-117.5 404.5t118 405t318 148q80 0 143 -21t109 -61.5t78 -89.5t59 -116z" />
    <glyph glyph-name="d" unicode="d" horiz-adv-x="1138" 
d="M811 1479h147v-1246q0 -175 9 -233h-136l-20 104q-39 -54 -114.5 -89t-166.5 -35q-60 0 -118 16t-116.5 56t-102.5 101t-71.5 158.5t-27.5 220.5q0 119 27.5 216t71 158t101 103t114.5 59t114 17q139 0 281 -118l8 -4v516zM811 250v561q-61 68 -132 107.5t-136 39.5
q-139 0 -220 -102.5t-81 -331.5q0 -200 80.5 -309t220.5 -109q69 0 128.5 33t139.5 111z" />
    <glyph glyph-name="e" unicode="e" 
d="M840 287l114 -60q-24 -42 -46 -73t-58 -66t-76.5 -57t-99.5 -36.5t-129 -14.5q-92 0 -173 32.5t-147 97t-104.5 173t-38.5 249.5q0 256 118 404.5t316 148.5q85 0 157 -28.5t128.5 -85t88.5 -151t32 -218.5v-98h-693q0 -173 91 -285.5t225 -112.5q96 0 172 48t123 133z
M233 631h541q0 149 -67.5 238t-186.5 89q-130 0 -204 -87.5t-83 -239.5z" />
    <glyph glyph-name="f" unicode="f" horiz-adv-x="681" 
d="M383 0h-147v938h-181v127h181v121q0 94 15.5 155.5t49.5 96t80 48t115 13.5q24 0 131 -10v-131q-8 1 -48 7.5t-59 6.5q-77 0 -107 -31.5t-30 -119.5v-156h231v-127h-231v-938z" />
    <glyph glyph-name="g" unicode="g" 
d="M983 1106v-148q-106 0 -164 -28q28 -34 51 -92t23 -125q0 -157 -113.5 -265t-275.5 -108q-86 0 -189 29q-84 -24 -84 -99q0 -36 24 -56.5t64 -20.5q251 0 397 -32t207.5 -96t61.5 -171q0 -125 -124 -206t-361 -81q-459 0 -459 258q0 75 42.5 122t137.5 95
q-60 18 -96.5 60.5t-36.5 90.5q0 44 21 78.5t46 53.5t76 51q-145 110 -145 297q0 166 115 269t288 103q161 0 265 -73q116 83 229 94zM846 -113q-2 80 -90 119t-279 39q-82 0 -143 -16.5t-93 -44t-46.5 -57t-14.5 -60.5q0 -33 13 -55t48 -41t105 -28t178 -9q91 0 161.5 16
t115 51.5t45.5 85.5zM754 705q0 119 -69 186t-202 67q-122 0 -190 -68.5t-68 -176.5q0 -107 76.5 -176.5t198.5 -69.5q120 0 187 68.5t67 169.5z" />
    <glyph glyph-name="h" unicode="h" horiz-adv-x="1138" 
d="M182 1479h148v-557h4q146 163 315 163q62 0 115 -17t97 -52t69.5 -97t25.5 -145v-774h-147v770q0 101 -45 144.5t-129 43.5q-76 0 -161 -49t-144 -112v-797h-148v1479z" />
    <glyph glyph-name="i" unicode="i" horiz-adv-x="569" 
d="M211 0v1065h147v-1065h-147zM211 1499h147v-176h-147v176z" />
    <glyph glyph-name="j" unicode="j" horiz-adv-x="569" 
d="M240 1065h147v-1235q0 -98 -59.5 -160.5t-159.5 -62.5q-79 0 -123 24v121q41 -18 78 -18q64 0 90.5 23.5t26.5 82.5v1225zM387 1499v-176h-147v176h147z" />
    <glyph glyph-name="k" unicode="k" 
d="M172 0v1479h147v-953h5l430 539h178l-314 -393l355 -672h-174l-283 545l-197 -226v-319h-147z" />
    <glyph glyph-name="l" unicode="l" horiz-adv-x="569" 
d="M211 1479h147v-1479h-147v1479z" />
    <glyph glyph-name="m" unicode="m" horiz-adv-x="1705" 
d="M315 0h-147v1065h147v-141l9 8q66 73 148.5 113t160.5 40q100 0 171 -45.5t101 -121.5q157 167 338 167q46 0 85 -8t78.5 -30t67 -57t45 -93.5t17.5 -134.5v-762h-147v762q0 102 -45 149t-121 47q-38 0 -74.5 -10.5t-62.5 -23.5t-59.5 -39t-50.5 -42t-50 -48v-795h-148
v762q0 102 -45 149t-121 47q-38 0 -74.5 -10.5t-62.5 -23.5t-59.5 -39t-50.5 -42t-50 -48v-795z" />
    <glyph glyph-name="n" unicode="n" horiz-adv-x="1138" 
d="M182 1065h148v-143h4q146 163 315 163q62 0 115 -17t97 -52t69.5 -97t25.5 -145v-774h-147v770q0 101 -45 144.5t-129 43.5q-76 0 -161 -49t-144 -112v-797h-148v1065z" />
    <glyph glyph-name="o" unicode="o" 
d="M801 532q0 203 -77.5 314.5t-211.5 111.5t-211.5 -111.5t-77.5 -314.5t77.5 -314.5t211.5 -111.5t211.5 111.5t77.5 314.5zM948 532q0 -117 -27.5 -216t-80.5 -174.5t-137.5 -118.5t-190.5 -43t-190.5 43t-137.5 118.5t-80.5 174.5t-27.5 216t27.5 216.5t80.5 175
t137.5 118.5t190.5 43t190.5 -43t137.5 -118.5t80.5 -175t27.5 -216.5z" />
    <glyph glyph-name="p" unicode="p" horiz-adv-x="1138" 
d="M328 -393h-148v1458h148v-125h4q42 61 121 103t155 42q60 0 118 -16t116.5 -56.5t102.5 -101.5t71.5 -158.5t27.5 -220.5q0 -119 -27.5 -216t-71 -158t-101 -102.5t-114.5 -58.5t-114 -17q-138 0 -280 118l-8 4v-495zM328 815v-561q62 -68 133 -108t135 -40
q139 0 220 103t81 332q0 200 -80.5 308.5t-220.5 108.5q-69 0 -128.5 -32.5t-139.5 -110.5z" />
    <glyph glyph-name="q" unicode="q" horiz-adv-x="1138" 
d="M958 -393h-147v495l-8 -4q-142 -118 -281 -118q-57 0 -114 17t-114.5 58.5t-101 102.5t-71 158t-27.5 216q0 123 27.5 220.5t71.5 158.5t102.5 101.5t116.5 56.5t118 16q182 0 283 -133l27 113h118v-1458zM811 254v561q-80 78 -139.5 110.5t-128.5 32.5
q-140 0 -220.5 -108.5t-80.5 -308.5q0 -229 81 -332t220 -103q64 0 135 40t133 108z" />
    <glyph glyph-name="r" unicode="r" horiz-adv-x="681" 
d="M143 0v1065h148v-211h4q66 117 143.5 172t202.5 55v-147q-133 -3 -214 -87.5t-136 -256.5v-590h-148z" />
    <glyph glyph-name="s" unicode="s" horiz-adv-x="909" 
d="M49 182l117 88q115 -164 305 -164q113 0 171 51.5t58 125.5q0 48 -27 84t-71 56t-100.5 39.5t-115 34t-114 39.5t-99 56t-68.5 84t-23 123q4 136 100 212t252 74q106 -2 209 -53.5t156 -132.5l-103 -90q-64 78 -127 113.5t-147 35.5q-92 0 -142.5 -42.5t-50.5 -114.5
q0 -37 21 -65t57 -47t82.5 -34.5t97.5 -30.5t102.5 -32.5t98 -43.5t82.5 -59t57 -83.5t21 -114.5q0 -147 -109 -229t-264 -82q-127 0 -240.5 52.5t-185.5 149.5z" />
    <glyph glyph-name="t" unicode="t" horiz-adv-x="681" 
d="M37 1065h174v350h147v-350h246v-127h-246v-758q0 -74 121 -74q59 0 131 11v-121q-54 -16 -172 -16q-123 0 -175 38.5t-52 137.5v782h-174v127z" />
    <glyph glyph-name="u" unicode="u" horiz-adv-x="1138" 
d="M956 0h-147v143h-4q-146 -163 -316 -163q-62 0 -115 17t-97 52t-69.5 97t-25.5 145v774h148v-770q0 -101 45 -145t129 -44q76 0 160.5 49.5t144.5 112.5v797h147v-1065z" />
    <glyph glyph-name="v" unicode="v" horiz-adv-x="909" 
d="M877 1065l-320 -1065h-197l-327 1065h149l271 -881h4l270 881h150z" />
    <glyph glyph-name="w" unicode="w" horiz-adv-x="1366" 
d="M322 0l-289 1065h149l215 -819h4l209 819h150l213 -823h4l207 823h149l-284 -1065h-150l-213 823h-4l-211 -823h-149z" />
    <glyph glyph-name="x" unicode="x" horiz-adv-x="909" 
d="M215 1065l234 -379l223 379h166l-299 -506l346 -559h-170l-266 436l-259 -436h-165l335 559l-311 506h166z" />
    <glyph glyph-name="y" unicode="y" horiz-adv-x="909" 
d="M721 1065h156l-375 -1159q-98 -299 -359 -299q-22 0 -40 2t-39 5.5l-27 4.5v121q60 -6 80 -6q32 0 59 4t62.5 19t63 41t53 74.5t40.5 115.5l-370 1077h155l287 -813h4z" />
    <glyph glyph-name="z" unicode="z" horiz-adv-x="909" 
d="M848 127v-127h-787v106l582 832h-524v127h725v-107l-582 -831h586z" />
    <glyph glyph-name="braceleft" unicode="{" horiz-adv-x="681" 
d="M98 621v86q63 0 95 41t32 118v408q0 107 48 166t143 59h127v-86h-78q-92 0 -92 -115v-471q0 -138 -152 -161v-4q152 -23 152 -162v-471q0 -115 92 -115h78v-86h-127q-95 0 -143 59t-48 166v408q0 77 -32.5 118.5t-94.5 41.5z" />
    <glyph glyph-name="bar" unicode="|" horiz-adv-x="454" 
d="M164 -20v1519h127v-1519h-127z" />
    <glyph glyph-name="braceright" unicode="}" horiz-adv-x="681" 
d="M584 707v-86q-62 0 -94.5 -41.5t-32.5 -118.5v-408q0 -107 -48 -166t-143 -59h-127v86h78q92 0 92 115v471q0 139 152 162v4q-152 23 -152 161v471q0 115 -92 115h-78v86h127q95 0 143 -59t48 -166v-408q0 -77 32 -118t95 -41z" />
    <glyph glyph-name="asciitilde" unicode="~" horiz-adv-x="1228" 
d="M1014 674l80 -90q-27 -36 -42 -55.5t-42.5 -48t-51 -43t-57 -25.5t-70.5 -11q-38 0 -80 12.5t-62.5 22t-70.5 35.5q-45 23 -71.5 35t-71 23.5t-88.5 11.5q-107 0 -172 -150l-80 92q46 84 107 134.5t155 50.5q84 0 236 -70q7 -3 25.5 -11.5t26 -12t23.5 -10.5t24.5 -10
t22 -8t22.5 -7.5t20 -5.5t20 -4t17 -1q29 0 54.5 11.5t49.5 37t38 44t38 53.5z" />
    <glyph glyph-name="uni00A0" unicode="&#xa0;" horiz-adv-x="624" 
 />
    <glyph glyph-name="exclamdown" unicode="&#xa1;" horiz-adv-x="681" 
d="M451 -414h-218l43 1012h132zM442 840h-200v225h200v-225z" />
    <glyph glyph-name="cent" unicode="&#xa2;" horiz-adv-x="1251" 
d="M434 188l275 754q-40 16 -88 16q-137 0 -213 -112t-76 -314q0 -239 102 -344zM801 879l-273 -756q41 -17 93 -17q103 0 167 42.5t125 154.5l119 -53q-57 -97 -108 -152t-125.5 -86.5t-177.5 -31.5q-82 0 -138 22l-84 -229h-116l100 278q-96 68 -147.5 191t-51.5 290
q0 257 118 405t319 148q77 0 133 -18l65 182h117l-84 -231q97 -68 158 -221l-138 -49q-25 82 -71 131z" />
    <glyph glyph-name="sterling" unicode="&#xa3;" horiz-adv-x="1251" 
d="M717 799v-127h-295q12 -52 12 -140q0 -162 -57 -276q37 -18 97 -51t95 -51t81 -33t83 -15q140 0 214.5 66.5t101.5 196.5l131 -25q-61 -364 -410 -364q-43 0 -82 4t-78 15t-66 19.5t-67 27.5t-57.5 28t-61.5 33.5t-57 31.5q-98 -139 -246 -159v159q92 16 162 112t70 234
q0 105 -15 187h-219v127h201q-25 162 -25 241q0 210 118.5 334.5t332.5 124.5q187 0 303 -98t160 -283l-139 -24q-13 41 -27 73.5t-40.5 73t-58.5 67.5t-81.5 45.5t-108.5 18.5q-85 0 -147 -26t-94.5 -70.5t-47 -94.5t-14.5 -108q0 -85 21 -274h311z" />
    <glyph glyph-name="currency" unicode="&#xa4;" horiz-adv-x="1251" 
d="M625 350q164 0 272.5 106t108.5 283q0 175 -109 282t-272 107t-272 -107t-109 -282q0 -177 108.5 -283t272.5 -106zM1049 1253l86 -86l-113 -112q111 -136 111 -316q0 -179 -111 -315l113 -113l-86 -86l-115 115q-131 -109 -309 -109q-179 0 -310 109l-114 -115l-86 86
l112 113q-110 135 -110 315q0 181 110 316l-112 112l86 86l114 -114q130 108 310 108q179 0 309 -108z" />
    <glyph glyph-name="yen" unicode="&#xa5;" horiz-adv-x="1251" 
d="M694 479v-479h-139v479h-362v127h362v17l-86 163h-276v127h208l-301 566h148l377 -711l376 711h148l-301 -566h209v-127h-275l-88 -163v-17h363v-127h-363z" />
    <glyph glyph-name="brokenbar" unicode="&#xa6;" horiz-adv-x="454" 
d="M164 -20v573h127v-573h-127zM164 926v573h127v-573h-127z" />
    <glyph glyph-name="section" unicode="&#xa7;" 
d="M199 8l104 66q88 -135 209 -135q62 0 101.5 36.5t39.5 94.5q0 42 -39.5 104t-98.5 124.5t-127.5 135.5t-128 137t-99.5 130t-41 114q0 97 62.5 154t183.5 63q-11 14 -38 47t-35.5 45.5t-22.5 38t-18.5 50.5t-4.5 57q0 93 74 161t188 68q91 0 157.5 -39t141.5 -131
l-98 -55l-13 16q-14 16 -20 22t-21 20.5t-28 22t-31 17t-38 13.5t-42 4q-59 0 -95 -35.5t-36 -83.5q0 -46 38.5 -94.5t207.5 -217.5q171 -171 222.5 -246.5t51.5 -162.5q0 -97 -62.5 -152.5t-160.5 -68.5q57 -65 84 -121.5t27 -132.5q0 -99 -74 -172.5t-207 -73.5
q-102 0 -185 49t-128 131zM381 934q-51 0 -87 -33.5t-36 -79.5q0 -45 30 -86.5t113 -128.5q16 -17 25 -26q87 -92 131.5 -123t89.5 -31q49 0 84 32t35 83q0 43 -38 100.5t-134 153.5q-91 91 -130 115t-83 24z" />
    <glyph glyph-name="dieresis" unicode="&#xa8;" horiz-adv-x="569" 
d="M537 1208h-181v193h181v-193zM213 1208h-180v193h180v-193z" />
    <glyph glyph-name="copyright" unicode="&#xa9;" horiz-adv-x="1638" 
d="M1083 598h140q-31 -148 -134 -236t-243 -88q-200 0 -323.5 133.5t-123.5 335.5q0 203 119.5 333t321.5 130q149 0 253.5 -82.5t127.5 -230.5h-138q-17 88 -81.5 139t-159.5 51q-141 0 -218 -93.5t-77 -244.5q0 -146 82 -247t217 -101q96 0 160.5 55t76.5 146zM49 741
q0 160 62 302t167 241.5t246.5 157t296.5 57.5q154 0 294.5 -57.5t245 -157t166.5 -241.5t62 -302q0 -215 -105.5 -390.5t-281 -273t-381.5 -97.5q-155 0 -296.5 57.5t-246.5 157t-167 242.5t-62 304zM1442 741q0 133 -48.5 251.5t-131.5 202.5t-197.5 132.5t-243.5 48.5
q-130 0 -245.5 -48.5t-198.5 -132.5t-131.5 -202.5t-48.5 -251.5q0 -137 48.5 -256t131.5 -203t198.5 -132t245.5 -48q172 0 314 81.5t224.5 228.5t82.5 329z" />
    <glyph glyph-name="ordfeminine" unicode="&#xaa;" horiz-adv-x="614" 
d="M135 1315l-84 49q37 61 102.5 98t157.5 37q63 0 115.5 -17.5t89.5 -62.5t37 -112v-322q0 -84 16 -137h-108l-12 72q-35 -25 -57 -38.5t-69 -29.5t-94 -16q-86 0 -143 46t-57 130q0 105 96 167.5t317 100.5v27q0 48 -34.5 73t-96.5 25q-73 0 -116.5 -26t-59.5 -64z
M442 1018v168q-152 -29 -227.5 -70.5t-75.5 -105.5q0 -33 27.5 -56.5t71.5 -23.5q52 0 108.5 26t95.5 62z" />
    <glyph glyph-name="guillemotleft" unicode="&#xab;" 
d="M430 856h143l-264 -324l264 -323h-139l-270 323zM717 856h143l-264 -324l264 -323h-139l-270 323z" />
    <glyph glyph-name="logicalnot" unicode="&#xac;" horiz-adv-x="1228" 
d="M1020 260v418h-938v127h1065v-545h-127z" />
    <glyph glyph-name="uni00AD" unicode="&#xad;" horiz-adv-x="681" 
d="M598 469h-516v127h516v-127z" />
    <glyph glyph-name="registered" unicode="&#xae;" horiz-adv-x="1638" 
d="M659 682v-381h-135v877h336q158 0 234.5 -61t76.5 -189q0 -112 -61.5 -170.5t-167.5 -71.5l250 -385h-148l-233 381h-152zM659 1067v-274h160q120 0 168.5 34.5t48.5 108.5q0 67 -42 99t-152 32h-183zM49 741q0 160 62 302t167 241.5t246.5 157t296.5 57.5
q154 0 294.5 -57.5t245 -157t166.5 -241.5t62 -302q0 -215 -105.5 -390.5t-281 -273t-381.5 -97.5q-155 0 -296.5 57.5t-246.5 157t-167 242.5t-62 304zM1442 741q0 133 -48.5 251.5t-131.5 202.5t-197.5 132.5t-243.5 48.5q-130 0 -245.5 -48.5t-198.5 -132.5
t-131.5 -202.5t-48.5 -251.5q0 -137 48.5 -256t131.5 -203t198.5 -132t245.5 -48q172 0 314 81.5t224.5 228.5t82.5 329z" />
    <glyph glyph-name="macron" unicode="&#xaf;" horiz-adv-x="569" 
d="M604 1253h-639v123h639v-123z" />
    <glyph glyph-name="degree" unicode="&#xb0;" horiz-adv-x="819" 
d="M115 1204q0 123 86 209t209 86t209 -86t86 -209t-86 -209t-209 -86t-209 86t-86 209zM213 1204q0 -87 57.5 -146t139.5 -59t139 59t57 146t-57 146t-139 59t-139.5 -59t-57.5 -146z" />
    <glyph glyph-name="plusminus" unicode="&#xb1;" horiz-adv-x="1228" 
d="M551 698v367h127v-367h469v-127h-469v-366h-127v366h-469v127h469zM82 0v127h1065v-127h-1065z" />
    <glyph glyph-name="twosuperior" unicode="&#xb2;" horiz-adv-x="749" 
d="M692 598h-635v111q38 70 95 130t113 97.5t113.5 76t101 69.5t71 74t27.5 93q0 66 -48 107t-135 41q-99 0 -158.5 -52t-82.5 -128l-95 32q32 109 118 179.5t224 70.5q130 0 208.5 -64t78.5 -173q0 -59 -22 -109.5t-59.5 -89t-84 -72.5t-98.5 -67t-99 -65t-89.5 -73.5
t-67.5 -85.5h524v-102z" />
    <glyph glyph-name="threesuperior" unicode="&#xb3;" horiz-adv-x="749" 
d="M227 1022v102h84q120 0 179 36.5t59 117.5q0 48 -47.5 83.5t-120.5 35.5q-83 0 -129.5 -23.5t-93.5 -81.5l-86 58q55 70 128 109.5t181 39.5q130 0 204 -58t74 -163q0 -76 -37 -125.5t-96 -69.5v-4q84 -27 125 -95t41 -142q0 -115 -88 -185.5t-237 -70.5
q-123 0 -210.5 53t-131.5 119l81 65q102 -135 261 -135q102 0 158.5 41t56.5 111q0 93 -61 137.5t-202 44.5h-92z" />
    <glyph glyph-name="acute" unicode="&#xb4;" horiz-adv-x="569" 
d="M334 1479h223l-268 -291h-137z" />
    <glyph glyph-name="mu" unicode="&#xb5;" horiz-adv-x="1138" 
d="M956 0h-147v143h-4q-146 -163 -316 -163q-91 0 -159 32v-405h-148v1458h148v-770q0 -101 45 -145t129 -44q76 0 160.5 49.5t144.5 112.5v797h147v-1065z" />
    <glyph glyph-name="paragraph" unicode="&#xb6;" 
d="M449 -172v850q-184 0 -306.5 115t-122.5 278q0 198 121.5 303t339.5 105h568v-103h-146v-1548h-123v1548h-209v-1548h-122z" />
    <glyph glyph-name="periodcentered" unicode="&#xb7;" horiz-adv-x="624" 
d="M184 530q0 55 36 92t91 37q53 0 90 -37.5t37 -91.5q0 -52 -37 -88t-90 -36q-55 0 -91 35.5t-36 88.5z" />
    <glyph glyph-name="cedilla" unicode="&#xb8;" horiz-adv-x="569" 
d="M260 0h98l-96 -119l4 -4q30 10 62 10q84 0 129 -50.5t43 -121.5q-1 -84 -66.5 -129t-181.5 -45q-101 0 -193 43l35 90q61 -39 135 -39q55 0 85 23.5t30 65.5q0 33 -23 55t-61 22q-53 0 -94 -16l-35 39z" />
    <glyph glyph-name="onesuperior" unicode="&#xb9;" horiz-adv-x="749" 
d="M338 1499h111v-799h161v-102h-436v102h156v697l-174 -27v68q148 40 182 61z" />
    <glyph glyph-name="ordmasculine" unicode="&#xba;" horiz-adv-x="614" 
d="M143 1171q0 -237 164 -237q80 0 122 61t42 172t-42 172.5t-122 61.5q-76 0 -120 -62t-44 -168zM25 1167q0 154 76 243t206 89q131 0 207 -88.5t76 -243.5t-76 -243t-207 -88q-130 0 -206 88.5t-76 242.5z" />
    <glyph glyph-name="guillemotright" unicode="&#xbb;" 
d="M451 856h143l266 -324l-270 -323h-139l264 323zM164 856h143l266 -324l-270 -323h-139l264 323z" />
    <glyph glyph-name="onequarter" unicode="&#xbc;" horiz-adv-x="1875" 
d="M1778 209h-166v-209h-111v209h-426v92l379 588h158v-578h166v-102zM1497 770l-297 -459h301v459h-4zM362 1499h111v-799h162v-102h-436v102h155v697l-174 -27v68q148 40 182 61zM569 -20h-120l899 1519h127z" />
    <glyph glyph-name="onehalf" unicode="&#xbd;" horiz-adv-x="1875" 
d="M362 1499h111v-799h162v-102h-436v102h155v697l-174 -27v68q148 40 182 61zM1761 0h-635v111q38 70 95 130t113 97.5t113.5 76t101 69.5t71 74t27.5 93q0 66 -48 107t-135 41q-99 0 -158.5 -52.5t-82.5 -128.5l-95 33q32 109 118 179.5t224 70.5q130 0 208.5 -64
t78.5 -173q0 -59 -22 -109.5t-59.5 -89t-84 -72.5t-98.5 -67t-99 -65t-89.5 -73.5t-67.5 -85.5h524v-102zM528 -20h-120l899 1519h127z" />
    <glyph glyph-name="threequarters" unicode="&#xbe;" horiz-adv-x="1875" 
d="M1778 209h-166v-209h-111v209h-426v92l379 588h158v-578h166v-102zM1497 770l-297 -459h301v459h-4zM301 1022v102h84q120 0 179 36.5t59 117.5q0 48 -47.5 83.5t-120.5 35.5q-83 0 -130 -23.5t-94 -81.5l-86 58q117 149 310 149q130 0 204 -58t74 -163q0 -76 -37 -125.5
t-96 -69.5v-4q84 -27 125 -95t41 -142q0 -115 -88.5 -185.5t-237.5 -70.5q-123 0 -210.5 53t-131.5 119l82 65q102 -135 260 -135q102 0 158.5 41t56.5 111q0 93 -60.5 137.5t-201.5 44.5h-92zM602 -20h-121l899 1519h127z" />
    <glyph glyph-name="questiondown" unicode="&#xbf;" horiz-adv-x="909" 
d="M459 598h139v-113q0 -72 -22.5 -136t-57 -107.5t-74 -89.5t-74 -84.5t-57 -90.5t-22.5 -108q0 -70 43.5 -123t128.5 -53q71 0 121 36.5t94 120.5l123 -59q-51 -110 -137 -167.5t-197 -57.5q-137 0 -234.5 83.5t-97.5 227.5q0 73 33.5 142t81 123t95 106t81 112.5
t33.5 122.5v115zM633 840h-201v225h201v-225z" />
    <glyph glyph-name="Agrave" unicode="&#xc0;" horiz-adv-x="1251" 
d="M614 1364l-213 -762h449l-213 762h-23zM221 0h-172l455 1479h244l454 -1479h-172l-139 463h-531zM354 1847h224l182 -291h-137z" />
    <glyph glyph-name="Aacute" unicode="&#xc1;" horiz-adv-x="1251" 
d="M614 1364l-213 -762h449l-213 762h-23zM221 0h-172l455 1479h244l454 -1479h-172l-139 463h-531zM676 1847h223l-268 -291h-137z" />
    <glyph glyph-name="Acircumflex" unicode="&#xc2;" horiz-adv-x="1251" 
d="M614 1364l-213 -762h449l-213 762h-23zM221 0h-172l455 1479h244l454 -1479h-172l-139 463h-531zM328 1556l200 291h193l205 -291h-164l-137 193l-133 -193h-164z" />
    <glyph glyph-name="Atilde" unicode="&#xc3;" horiz-adv-x="1251" 
d="M614 1364l-213 -762h449l-213 762h-23zM221 0h-172l455 1479h244l454 -1479h-172l-139 463h-531zM874 1812h103q-8 -82 -64.5 -150.5t-134.5 -68.5q-50 0 -160 39q-103 39 -153 39q-31 0 -57.5 -30.5t-28.5 -65.5h-103q10 98 66.5 160.5t153.5 62.5q56 0 149 -37
q92 -39 133 -39q38 0 64 25t32 65z" />
    <glyph glyph-name="Adieresis" unicode="&#xc4;" horiz-adv-x="1251" 
d="M614 1364l-213 -762h449l-213 762h-23zM221 0h-172l455 1479h244l454 -1479h-172l-139 463h-531zM879 1577h-181v192h181v-192zM555 1577h-180v192h180v-192z" />
    <glyph glyph-name="Aring" unicode="&#xc5;" horiz-adv-x="1251" 
d="M614 1364l-213 -762h449l-213 762h-23zM221 0h-172l455 1479h244l454 -1479h-172l-139 463h-531zM422 1761q0 85 60 145t145 60t144.5 -60t59.5 -145t-59.5 -145t-144.5 -60t-145 60t-60 145zM512 1761q0 -47 34 -80.5t81 -33.5t80.5 33.5t33.5 80.5t-33.5 81t-80.5 34
t-81 -34t-34 -81z" />
    <glyph glyph-name="AE" unicode="&#xc6;" horiz-adv-x="2048" 
d="M33 0l833 1479h1039v-140h-723v-495h514v-139h-514v-566h764v-139h-928v463h-545l-254 -463h-186zM553 602h465v762h-45z" />
    <glyph glyph-name="Ccedilla" unicode="&#xc7;" horiz-adv-x="1251" 
d="M1024 471l147 -29q-102 -433 -466 -460l-82 -101l4 -4q30 10 61 10q84 0 129 -50.5t43 -121.5q-1 -84 -66.5 -129t-181.5 -45q-100 0 -192 43l35 90q61 -39 135 -39q55 0 85 23.5t30 65.5q0 33 -23 55t-61 22q-54 0 -95 -16l-34 39l114 158q-239 16 -379.5 207
t-140.5 550q0 360 149 560t416 200q201 0 325 -111t175 -319l-152 -45q-43 168 -126.5 252t-241.5 84q-81 0 -149.5 -38t-120.5 -112.5t-81.5 -195t-29.5 -275.5q0 -310 111 -465t303 -155q82 0 145 28.5t104 81t66.5 110.5t44.5 132z" />
    <glyph glyph-name="Egrave" unicode="&#xc8;" horiz-adv-x="1251" 
d="M221 1479h887v-140h-723v-495h514v-139h-514v-566h764v-139h-928v1479zM412 1847h223l182 -291h-137z" />
    <glyph glyph-name="Eacute" unicode="&#xc9;" horiz-adv-x="1251" 
d="M221 1479h887v-140h-723v-495h514v-139h-514v-566h764v-139h-928v1479zM733 1847h223l-268 -291h-137z" />
    <glyph glyph-name="Ecircumflex" unicode="&#xca;" horiz-adv-x="1251" 
d="M221 1479h887v-140h-723v-495h514v-139h-514v-566h764v-139h-928v1479zM385 1556l201 291h192l205 -291h-164l-137 193l-133 -193h-164z" />
    <glyph glyph-name="Edieresis" unicode="&#xcb;" horiz-adv-x="1251" 
d="M221 1479h887v-140h-723v-495h514v-139h-514v-566h764v-139h-928v1479zM936 1577h-180v192h180v-192zM612 1577h-180v192h180v-192z" />
    <glyph glyph-name="Igrave" unicode="&#xcc;" horiz-adv-x="681" 
d="M258 1479h164v-1479h-164v1479zM70 1847h223l182 -291h-137z" />
    <glyph glyph-name="Iacute" unicode="&#xcd;" horiz-adv-x="681" 
d="M258 1479h164v-1479h-164v1479zM391 1847h223l-268 -291h-137z" />
    <glyph glyph-name="Icircumflex" unicode="&#xce;" horiz-adv-x="681" 
d="M258 1479h164v-1479h-164v1479zM43 1556l201 291h192l205 -291h-164l-137 193l-133 -193h-164z" />
    <glyph glyph-name="Idieresis" unicode="&#xcf;" horiz-adv-x="681" 
d="M258 1479h164v-1479h-164v1479zM594 1577h-180v192h180v-192zM270 1577h-180v192h180v-192z" />
    <glyph glyph-name="Eth" unicode="&#xd0;" horiz-adv-x="1366" 
d="M369 844h385v-139h-385v-566h221q255 0 385.5 151.5t130.5 448.5q0 159 -36.5 275.5t-104.5 187t-159 104t-208 33.5h-229v-495zM66 844h139v635h397q308 0 488 -192t180 -548q0 -163 -44 -298.5t-128 -233.5t-212.5 -152.5t-291.5 -54.5h-389v705h-139v139z" />
    <glyph glyph-name="Ntilde" unicode="&#xd1;" horiz-adv-x="1478" 
d="M369 0h-148v1479h236l645 -1139h8v1139h147v-1479h-135l-749 1319h-4v-1319zM987 1812h103q-8 -82 -64.5 -150.5t-134.5 -68.5q-49 0 -160 39q-103 39 -153 39q-31 0 -57.5 -30.5t-28.5 -65.5h-103q10 98 66 160.5t153 62.5q57 0 150 -37q92 -39 133 -39q38 0 64 25
t32 65z" />
    <glyph glyph-name="Ograve" unicode="&#xd2;" horiz-adv-x="1366" 
d="M268 739q0 -309 107.5 -464.5t306.5 -155.5t306.5 155.5t107.5 464.5q0 310 -107.5 465.5t-306.5 155.5t-306.5 -155.5t-107.5 -465.5zM104 739q0 367 152 563.5t426 196.5t426 -196.5t152 -563.5t-152 -563t-426 -196t-426 196t-152 563zM412 1847h223l182 -291h-137z
" />
    <glyph glyph-name="Oacute" unicode="&#xd3;" horiz-adv-x="1366" 
d="M268 739q0 -309 107.5 -464.5t306.5 -155.5t306.5 155.5t107.5 464.5q0 310 -107.5 465.5t-306.5 155.5t-306.5 -155.5t-107.5 -465.5zM104 739q0 367 152 563.5t426 196.5t426 -196.5t152 -563.5t-152 -563t-426 -196t-426 196t-152 563zM733 1847h223l-268 -291h-137z
" />
    <glyph glyph-name="Ocircumflex" unicode="&#xd4;" horiz-adv-x="1366" 
d="M268 739q0 -309 107.5 -464.5t306.5 -155.5t306.5 155.5t107.5 464.5q0 310 -107.5 465.5t-306.5 155.5t-306.5 -155.5t-107.5 -465.5zM104 739q0 367 152 563.5t426 196.5t426 -196.5t152 -563.5t-152 -563t-426 -196t-426 196t-152 563zM385 1556l201 291h192l205 -291
h-164l-137 193l-133 -193h-164z" />
    <glyph glyph-name="Otilde" unicode="&#xd5;" horiz-adv-x="1366" 
d="M268 739q0 -309 107.5 -464.5t306.5 -155.5t306.5 155.5t107.5 464.5q0 310 -107.5 465.5t-306.5 155.5t-306.5 -155.5t-107.5 -465.5zM104 739q0 367 152 563.5t426 196.5t426 -196.5t152 -563.5t-152 -563t-426 -196t-426 196t-152 563zM932 1812h102
q-8 -82 -64 -150.5t-134 -68.5q-50 0 -160 39q-103 39 -154 39q-31 0 -57.5 -30.5t-28.5 -65.5h-102q10 98 66 160.5t153 62.5q57 0 149 -37q92 -39 134 -39q38 0 64 25t32 65z" />
    <glyph glyph-name="Odieresis" unicode="&#xd6;" horiz-adv-x="1366" 
d="M268 739q0 -309 107.5 -464.5t306.5 -155.5t306.5 155.5t107.5 464.5q0 310 -107.5 465.5t-306.5 155.5t-306.5 -155.5t-107.5 -465.5zM104 739q0 367 152 563.5t426 196.5t426 -196.5t152 -563.5t-152 -563t-426 -196t-426 196t-152 563zM936 1577h-180v192h180v-192z
M612 1577h-180v192h180v-192z" />
    <glyph glyph-name="multiply" unicode="&#xd7;" horiz-adv-x="1228" 
d="M614 618l443 447l90 -90l-442 -443l442 -442l-90 -90l-443 442l-442 -442l-90 90l442 442l-442 443l90 90z" />
    <glyph glyph-name="Oslash" unicode="&#xd8;" horiz-adv-x="1366" 
d="M350 324l588 940q-101 96 -256 96q-199 0 -306.5 -155.5t-107.5 -465.5q0 -263 82 -415zM1014 1159l-590 -940q93 -100 258 -100q199 0 306.5 155.5t107.5 464.5q0 265 -82 420zM1276 1577l-170 -270q154 -200 154 -568q0 -367 -152 -563t-426 -196q-202 0 -340 110
l-139 -221h-137l192 305q-154 199 -154 565q0 367 152 563.5t426 196.5q204 0 336 -106l115 184h143z" />
    <glyph glyph-name="Ugrave" unicode="&#xd9;" horiz-adv-x="1478" 
d="M221 1479h164v-1045q0 -135 93.5 -225t260.5 -90t261 90t94 225v1045h163v-1033q0 -218 -142.5 -342t-375.5 -124t-375.5 124t-142.5 342v1033zM467 1847h223l182 -291h-137z" />
    <glyph glyph-name="Uacute" unicode="&#xda;" horiz-adv-x="1478" 
d="M221 1479h164v-1045q0 -135 93.5 -225t260.5 -90t261 90t94 225v1045h163v-1033q0 -218 -142.5 -342t-375.5 -124t-375.5 124t-142.5 342v1033zM788 1847h224l-269 -291h-137z" />
    <glyph glyph-name="Ucircumflex" unicode="&#xdb;" horiz-adv-x="1478" 
d="M221 1479h164v-1045q0 -135 93.5 -225t260.5 -90t261 90t94 225v1045h163v-1033q0 -218 -142.5 -342t-375.5 -124t-375.5 124t-142.5 342v1033zM440 1556l201 291h193l204 -291h-164l-137 193l-133 -193h-164z" />
    <glyph glyph-name="Udieresis" unicode="&#xdc;" horiz-adv-x="1478" 
d="M221 1479h164v-1045q0 -135 93.5 -225t260.5 -90t261 90t94 225v1045h163v-1033q0 -218 -142.5 -342t-375.5 -124t-375.5 124t-142.5 342v1033zM991 1577h-180v192h180v-192zM668 1577h-181v192h181v-192z" />
    <glyph glyph-name="Yacute" unicode="&#xdd;" horiz-adv-x="1138" 
d="M487 0v623l-454 856h180l356 -678l357 678h180l-455 -856v-623h-164zM618 1847h224l-269 -291h-137z" />
    <glyph glyph-name="Thorn" unicode="&#xde;" horiz-adv-x="1251" 
d="M369 1053v-541h278q197 0 280 66.5t83 203.5q0 271 -326 271h-315zM369 0h-164v1479h164v-287h352q115 0 203 -31.5t142 -88.5t81 -131t27 -163q0 -191 -135.5 -298t-407.5 -107h-262v-373z" />
    <glyph glyph-name="germandbls" unicode="&#xdf;" horiz-adv-x="1138" 
d="M473 35l55 121q59 -50 148 -50q105 0 159 79.5t54 205.5q0 193 -95.5 278t-275.5 85v127h60q91 0 156 71t65 178q0 116 -57.5 179t-172.5 63q-117 0 -170 -67.5t-59 -206.5v-1098h-147v1135q0 95 32 167t86.5 114t120.5 62.5t141 20.5q179 0 276 -98.5t97 -257.5
q0 -106 -46 -185.5t-136 -123.5v-5q138 -40 205 -151t67 -277q0 -98 -29 -179t-77.5 -133t-111 -80.5t-130.5 -28.5q-125 0 -215 55z" />
    <glyph glyph-name="agrave" unicode="&#xe0;" 
d="M246 793l-129 67q56 100 156.5 162.5t242.5 62.5q71 0 134 -17.5t117 -54t86 -100t32 -147.5v-537q0 -135 24 -229h-151l-17 147q-151 -167 -352 -167q-130 0 -216.5 76t-86.5 216q0 175 148 273.5t503 161.5v57q0 101 -58.5 147.5t-160.5 46.5q-111 0 -178 -49.5
t-94 -115.5zM737 283v292q-504 -88 -504 -305q0 -70 55.5 -117t121.5 -47q78 0 169.5 50.5t157.5 126.5zM229 1479h224l182 -291h-137z" />
    <glyph glyph-name="aacute" unicode="&#xe1;" 
d="M246 793l-129 67q56 100 156.5 162.5t242.5 62.5q71 0 134 -17.5t117 -54t86 -100t32 -147.5v-537q0 -135 24 -229h-151l-17 147q-151 -167 -352 -167q-130 0 -216.5 76t-86.5 216q0 175 148 273.5t503 161.5v57q0 101 -58.5 147.5t-160.5 46.5q-111 0 -178 -49.5
t-94 -115.5zM737 283v292q-504 -88 -504 -305q0 -70 55.5 -117t121.5 -47q78 0 169.5 50.5t157.5 126.5zM551 1479h223l-268 -291h-137z" />
    <glyph glyph-name="acircumflex" unicode="&#xe2;" 
d="M246 793l-129 67q56 100 156.5 162.5t242.5 62.5q71 0 134 -17.5t117 -54t86 -100t32 -147.5v-537q0 -135 24 -229h-151l-17 147q-151 -167 -352 -167q-130 0 -216.5 76t-86.5 216q0 175 148 273.5t503 161.5v57q0 101 -58.5 147.5t-160.5 46.5q-111 0 -178 -49.5
t-94 -115.5zM737 283v292q-504 -88 -504 -305q0 -70 55.5 -117t121.5 -47q78 0 169.5 50.5t157.5 126.5zM203 1188l200 291h193l205 -291h-164l-137 192l-133 -192h-164z" />
    <glyph glyph-name="atilde" unicode="&#xe3;" 
d="M246 793l-129 67q56 100 156.5 162.5t242.5 62.5q71 0 134 -17.5t117 -54t86 -100t32 -147.5v-537q0 -135 24 -229h-151l-17 147q-151 -167 -352 -167q-130 0 -216.5 76t-86.5 216q0 175 148 273.5t503 161.5v57q0 101 -58.5 147.5t-160.5 46.5q-111 0 -178 -49.5
t-94 -115.5zM737 283v292q-504 -88 -504 -305q0 -70 55.5 -117t121.5 -47q78 0 169.5 50.5t157.5 126.5zM750 1444h102q-8 -82 -64.5 -150.5t-134.5 -68.5q-49 0 -159 39q-103 39 -154 39q-31 0 -57.5 -31t-28.5 -66h-102q10 98 66 161t153 63q57 0 149 -37q92 -39 133 -39
q38 0 64.5 25t32.5 65z" />
    <glyph glyph-name="adieresis" unicode="&#xe4;" 
d="M246 793l-129 67q56 100 156.5 162.5t242.5 62.5q71 0 134 -17.5t117 -54t86 -100t32 -147.5v-537q0 -135 24 -229h-151l-17 147q-151 -167 -352 -167q-130 0 -216.5 76t-86.5 216q0 175 148 273.5t503 161.5v57q0 101 -58.5 147.5t-160.5 46.5q-111 0 -178 -49.5
t-94 -115.5zM737 283v292q-504 -88 -504 -305q0 -70 55.5 -117t121.5 -47q78 0 169.5 50.5t157.5 126.5zM754 1208h-181v193h181v-193zM430 1208h-180v193h180v-193z" />
    <glyph glyph-name="aring" unicode="&#xe5;" 
d="M246 793l-129 67q56 100 156.5 162.5t242.5 62.5q71 0 134 -17.5t117 -54t86 -100t32 -147.5v-537q0 -135 24 -229h-151l-17 147q-151 -167 -352 -167q-130 0 -216.5 76t-86.5 216q0 175 148 273.5t503 161.5v57q0 101 -58.5 147.5t-160.5 46.5q-111 0 -178 -49.5
t-94 -115.5zM737 283v292q-504 -88 -504 -305q0 -70 55.5 -117t121.5 -47q78 0 169.5 50.5t157.5 126.5zM297 1393q0 85 60 144.5t145 59.5t145 -59.5t60 -144.5t-60 -145t-145 -60t-145 60t-60 145zM387 1393q0 -47 34 -81t81 -34t80.5 34t33.5 81t-33.5 80.5t-80.5 33.5
t-81 -33.5t-34 -80.5z" />
    <glyph glyph-name="ae" unicode="&#xe6;" horiz-adv-x="1593" 
d="M688 274v301q-74 -15 -132 -30t-125 -41.5t-111 -57.5t-73.5 -76.5t-29.5 -99.5q0 -71 51 -117.5t121 -46.5q95 0 180 54t119 114zM1491 504h-655q0 -189 76 -293.5t227 -104.5q79 0 151.5 48.5t118.5 132.5l115 -60q-31 -53 -61 -91t-77 -76.5t-112.5 -59t-147.5 -20.5
q-114 0 -201 37.5t-155 142.5q-109 -107 -202 -143.5t-208 -36.5q-53 0 -104 18.5t-93 51.5t-67.5 85.5t-25.5 114.5q0 67 18.5 123t48.5 97.5t78 76t97 58t116.5 43.5t125.5 33t134 26v57q0 194 -201 194q-106 0 -171.5 -49.5t-92.5 -115.5l-125 67q51 99 150 162t231 63
q214 0 307 -143q50 62 128 102.5t180 40.5q82 0 152 -28.5t126 -85t87.5 -151.5t31.5 -218v-98zM836 631h507q0 149 -69.5 238t-188.5 89q-124 0 -185 -86t-64 -241z" />
    <glyph glyph-name="ccedilla" unicode="&#xe7;" 
d="M907 797l-137 -49q-32 100 -95.5 155t-156.5 55q-137 0 -213 -112t-76 -314t76 -314t213 -112q103 0 168 42.5t125 154.5l119 -53q-77 -132 -156 -195t-203 -73l-82 -101l5 -4q30 10 61 10q84 0 129 -50.5t43 -121.5q-1 -84 -66.5 -129t-181.5 -45q-100 0 -192 43l35 90
q61 -39 135 -39q55 0 84.5 23.5t29.5 65.5q0 33 -23 55t-61 22q-53 0 -94 -16l-35 39l115 158q-182 17 -286.5 162.5t-104.5 387.5q0 257 118 405t318 148q80 0 143 -21t109 -61.5t78 -89.5t59 -116z" />
    <glyph glyph-name="egrave" unicode="&#xe8;" 
d="M840 287l114 -60q-24 -42 -46 -73t-58 -66t-76.5 -57t-99.5 -36.5t-129 -14.5q-92 0 -173 32.5t-147 97t-104.5 173t-38.5 249.5q0 256 118 404.5t316 148.5q85 0 157 -28.5t128.5 -85t88.5 -151t32 -218.5v-98h-693q0 -173 91 -285.5t225 -112.5q96 0 172 48t123 133z
M233 631h541q0 149 -67.5 238t-186.5 89q-130 0 -204 -87.5t-83 -239.5zM240 1479h223l182 -291h-137z" />
    <glyph glyph-name="eacute" unicode="&#xe9;" 
d="M840 287l114 -60q-24 -42 -46 -73t-58 -66t-76.5 -57t-99.5 -36.5t-129 -14.5q-92 0 -173 32.5t-147 97t-104.5 173t-38.5 249.5q0 256 118 404.5t316 148.5q85 0 157 -28.5t128.5 -85t88.5 -151t32 -218.5v-98h-693q0 -173 91 -285.5t225 -112.5q96 0 172 48t123 133z
M233 631h541q0 149 -67.5 238t-186.5 89q-130 0 -204 -87.5t-83 -239.5zM561 1479h223l-268 -291h-137z" />
    <glyph glyph-name="ecircumflex" unicode="&#xea;" 
d="M840 287l114 -60q-24 -42 -46 -73t-58 -66t-76.5 -57t-99.5 -36.5t-129 -14.5q-92 0 -173 32.5t-147 97t-104.5 173t-38.5 249.5q0 256 118 404.5t316 148.5q85 0 157 -28.5t128.5 -85t88.5 -151t32 -218.5v-98h-693q0 -173 91 -285.5t225 -112.5q96 0 172 48t123 133z
M233 631h541q0 149 -67.5 238t-186.5 89q-130 0 -204 -87.5t-83 -239.5zM213 1188l201 291h192l205 -291h-164l-137 192l-133 -192h-164z" />
    <glyph glyph-name="edieresis" unicode="&#xeb;" 
d="M840 287l114 -60q-24 -42 -46 -73t-58 -66t-76.5 -57t-99.5 -36.5t-129 -14.5q-92 0 -173 32.5t-147 97t-104.5 173t-38.5 249.5q0 256 118 404.5t316 148.5q85 0 157 -28.5t128.5 -85t88.5 -151t32 -218.5v-98h-693q0 -173 91 -285.5t225 -112.5q96 0 172 48t123 133z
M233 631h541q0 149 -67.5 238t-186.5 89q-130 0 -204 -87.5t-83 -239.5zM764 1208h-180v193h180v-193zM440 1208h-180v193h180v-193z" />
    <glyph glyph-name="igrave" unicode="&#xec;" horiz-adv-x="569" 
d="M211 0v1065h147v-1065h-147zM12 1479h224l182 -291h-137z" />
    <glyph glyph-name="iacute" unicode="&#xed;" horiz-adv-x="569" 
d="M211 0v1065h147v-1065h-147zM334 1479h223l-268 -291h-137z" />
    <glyph glyph-name="icircumflex" unicode="&#xee;" horiz-adv-x="569" 
d="M211 0v1065h147v-1065h-147zM-14 1188l200 291h193l205 -291h-164l-137 192l-133 -192h-164z" />
    <glyph glyph-name="idieresis" unicode="&#xef;" horiz-adv-x="569" 
d="M211 0v1065h147v-1065h-147zM537 1208h-181v193h181v-193zM213 1208h-180v193h180v-193z" />
    <glyph glyph-name="eth" unicode="&#xf0;" 
d="M512 106q143 0 216 105.5t73 292.5q0 180 -73.5 284.5t-215.5 104.5t-215.5 -104.5t-73.5 -284.5q0 -187 73 -292.5t216 -105.5zM262 1430l129 49q91 -57 174 -140l226 123l61 -102l-199 -113q133 -153 214 -341t81 -378q0 -162 -47.5 -284t-147 -193t-241.5 -71
q-213 0 -324.5 140.5t-111.5 383.5q0 237 111.5 376.5t324.5 139.5q56 0 152 -29q-43 90 -132 189l-217 -119l-69 98l207 113q-102 100 -191 158z" />
    <glyph glyph-name="ntilde" unicode="&#xf1;" horiz-adv-x="1138" 
d="M182 1065h148v-143h4q146 163 315 163q62 0 115 -17t97 -52t69.5 -97t25.5 -145v-774h-147v770q0 101 -45 144.5t-129 43.5q-76 0 -161 -49t-144 -112v-797h-148v1065zM817 1444h103q-8 -82 -64.5 -150.5t-134.5 -68.5q-49 0 -160 39q-103 39 -153 39q-31 0 -57.5 -31
t-28.5 -66h-103q10 98 66 161t153 63q58 0 150 -37q92 -39 133 -39q38 0 64 25t32 65z" />
    <glyph glyph-name="ograve" unicode="&#xf2;" 
d="M801 532q0 203 -77.5 314.5t-211.5 111.5t-211.5 -111.5t-77.5 -314.5t77.5 -314.5t211.5 -111.5t211.5 111.5t77.5 314.5zM948 532q0 -117 -27.5 -216t-80.5 -174.5t-137.5 -118.5t-190.5 -43t-190.5 43t-137.5 118.5t-80.5 174.5t-27.5 216t27.5 216.5t80.5 175
t137.5 118.5t190.5 43t190.5 -43t137.5 -118.5t80.5 -175t27.5 -216.5zM240 1479h223l182 -291h-137z" />
    <glyph glyph-name="oacute" unicode="&#xf3;" 
d="M801 532q0 203 -77.5 314.5t-211.5 111.5t-211.5 -111.5t-77.5 -314.5t77.5 -314.5t211.5 -111.5t211.5 111.5t77.5 314.5zM948 532q0 -117 -27.5 -216t-80.5 -174.5t-137.5 -118.5t-190.5 -43t-190.5 43t-137.5 118.5t-80.5 174.5t-27.5 216t27.5 216.5t80.5 175
t137.5 118.5t190.5 43t190.5 -43t137.5 -118.5t80.5 -175t27.5 -216.5zM561 1479h223l-268 -291h-137z" />
    <glyph glyph-name="ocircumflex" unicode="&#xf4;" 
d="M801 532q0 203 -77.5 314.5t-211.5 111.5t-211.5 -111.5t-77.5 -314.5t77.5 -314.5t211.5 -111.5t211.5 111.5t77.5 314.5zM948 532q0 -117 -27.5 -216t-80.5 -174.5t-137.5 -118.5t-190.5 -43t-190.5 43t-137.5 118.5t-80.5 174.5t-27.5 216t27.5 216.5t80.5 175
t137.5 118.5t190.5 43t190.5 -43t137.5 -118.5t80.5 -175t27.5 -216.5zM213 1188l201 291h192l205 -291h-164l-137 192l-133 -192h-164z" />
    <glyph glyph-name="otilde" unicode="&#xf5;" 
d="M801 532q0 203 -77.5 314.5t-211.5 111.5t-211.5 -111.5t-77.5 -314.5t77.5 -314.5t211.5 -111.5t211.5 111.5t77.5 314.5zM948 532q0 -117 -27.5 -216t-80.5 -174.5t-137.5 -118.5t-190.5 -43t-190.5 43t-137.5 118.5t-80.5 174.5t-27.5 216t27.5 216.5t80.5 175
t137.5 118.5t190.5 43t190.5 -43t137.5 -118.5t80.5 -175t27.5 -216.5zM760 1444h102q-8 -82 -64 -150.5t-134 -68.5q-50 0 -160 39q-103 39 -154 39q-31 0 -57.5 -31t-28.5 -66h-102q10 98 66 161t153 63q57 0 149 -37q92 -39 134 -39q38 0 64 25t32 65z" />
    <glyph glyph-name="odieresis" unicode="&#xf6;" 
d="M801 532q0 203 -77.5 314.5t-211.5 111.5t-211.5 -111.5t-77.5 -314.5t77.5 -314.5t211.5 -111.5t211.5 111.5t77.5 314.5zM948 532q0 -117 -27.5 -216t-80.5 -174.5t-137.5 -118.5t-190.5 -43t-190.5 43t-137.5 118.5t-80.5 174.5t-27.5 216t27.5 216.5t80.5 175
t137.5 118.5t190.5 43t190.5 -43t137.5 -118.5t80.5 -175t27.5 -216.5zM764 1208h-180v193h180v-193zM440 1208h-180v193h180v-193z" />
    <glyph glyph-name="divide" unicode="&#xf7;" horiz-adv-x="1228" 
d="M1147 469h-1065v127h1065v-127zM487 958q0 52 37.5 89.5t89.5 37.5t89.5 -37.5t37.5 -89.5t-37.5 -89.5t-89.5 -37.5t-89.5 37.5t-37.5 89.5zM487 106q0 52 37.5 89.5t89.5 37.5t89.5 -37.5t37.5 -89.5t-37 -89t-90 -37t-90 37t-37 89z" />
    <glyph glyph-name="oslash" unicode="&#xf8;" 
d="M743 811l-387 -653q64 -52 156 -52q134 0 211.5 111.5t77.5 314.5q0 172 -58 279zM858 1233h133l-168 -287q125 -152 125 -414q0 -117 -27.5 -216t-80.5 -174.5t-137.5 -118.5t-190.5 -43q-135 0 -223 63l-125 -211h-131l170 289q-127 151 -127 411q0 117 27.5 216.5
t80.5 175t137.5 118.5t190.5 43q130 0 221 -63zM281 254l385 653q-63 51 -154 51q-134 0 -211.5 -111.5t-77.5 -314.5q0 -171 58 -278z" />
    <glyph glyph-name="ugrave" unicode="&#xf9;" horiz-adv-x="1138" 
d="M956 0h-147v143h-4q-146 -163 -316 -163q-62 0 -115 17t-97 52t-69.5 97t-25.5 145v774h148v-770q0 -101 45 -145t129 -44q76 0 160.5 49.5t144.5 112.5v797h147v-1065zM297 1479h223l182 -291h-137z" />
    <glyph glyph-name="uacute" unicode="&#xfa;" horiz-adv-x="1138" 
d="M956 0h-147v143h-4q-146 -163 -316 -163q-62 0 -115 17t-97 52t-69.5 97t-25.5 145v774h148v-770q0 -101 45 -145t129 -44q76 0 160.5 49.5t144.5 112.5v797h147v-1065zM618 1479h224l-269 -291h-137z" />
    <glyph glyph-name="ucircumflex" unicode="&#xfb;" horiz-adv-x="1138" 
d="M956 0h-147v143h-4q-146 -163 -316 -163q-62 0 -115 17t-97 52t-69.5 97t-25.5 145v774h148v-770q0 -101 45 -145t129 -44q76 0 160.5 49.5t144.5 112.5v797h147v-1065zM270 1188l201 291h193l204 -291h-163l-138 192l-133 -192h-164z" />
    <glyph glyph-name="udieresis" unicode="&#xfc;" horiz-adv-x="1138" 
d="M956 0h-147v143h-4q-146 -163 -316 -163q-62 0 -115 17t-97 52t-69.5 97t-25.5 145v774h148v-770q0 -101 45 -145t129 -44q76 0 160.5 49.5t144.5 112.5v797h147v-1065zM821 1208h-180v193h180v-193zM498 1208h-181v193h181v-193z" />
    <glyph glyph-name="yacute" unicode="&#xfd;" horiz-adv-x="909" 
d="M721 1065h156l-375 -1159q-98 -299 -359 -299q-22 0 -40 2t-39 5.5l-27 4.5v121q60 -6 80 -6q32 0 59 4t62.5 19t63 41t53 74.5t40.5 115.5l-370 1077h155l287 -813h4zM504 1479h223l-268 -291h-137z" />
    <glyph glyph-name="thorn" unicode="&#xfe;" horiz-adv-x="1138" 
d="M328 -393h-148v1872h148v-539h4q42 61 121 103t155 42q60 0 118 -16t116.5 -56.5t102.5 -101.5t71.5 -158.5t27.5 -220.5q0 -119 -27.5 -216t-71 -158t-101 -102.5t-114.5 -58.5t-114 -17q-138 0 -280 118l-8 4v-495zM328 815v-561q62 -68 133 -108t135 -40
q139 0 220 103t81 332q0 200 -80.5 308.5t-220.5 108.5q-69 0 -128.5 -32.5t-139.5 -110.5z" />
    <glyph glyph-name="ydieresis" unicode="&#xff;" horiz-adv-x="909" 
d="M721 1065h156l-375 -1159q-98 -299 -359 -299q-22 0 -40 2t-39 5.5l-27 4.5v121q60 -6 80 -6q32 0 59 4t62.5 19t63 41t53 74.5t40.5 115.5l-370 1077h155l287 -813h4zM707 1208h-181v193h181v-193zM383 1208h-180v193h180v-193z" />
    <glyph glyph-name="dotlessi" unicode="&#x131;" horiz-adv-x="569" 
d="M211 0v1065h147v-1065h-147z" />
    <glyph glyph-name="Lslash" unicode="&#x141;" horiz-adv-x="1138" 
d="M385 690v-551h700v-139h-864v625l-188 -76v139l188 76v715h164v-650l393 160v-139z" />
    <glyph glyph-name="lslash" unicode="&#x142;" horiz-adv-x="569" 
d="M358 803v-803h-147v727l-182 -94v139l182 94v613h147v-537l183 92v-139z" />
    <glyph glyph-name="OE" unicode="&#x152;" horiz-adv-x="2048" 
d="M1972 139v-139h-923q-65 0 -160 -10q-137 -10 -180 -10q-133 0 -239.5 38t-180 105.5t-122.5 163.5t-71 208.5t-22 243.5q0 165 36.5 300t110.5 239.5t198.5 162.5t289.5 58q88 0 180 -10q143 -10 160 -10h882v-140h-723v-495h514v-139h-514v-566h764zM1044 385v709
q0 146 -83 206t-256 60q-234 0 -350.5 -158t-116.5 -463t116.5 -462.5t350.5 -157.5q173 0 256 60t83 206z" />
    <glyph glyph-name="oe" unicode="&#x153;" horiz-adv-x="1593" 
d="M195 532q0 -203 68.5 -314.5t195.5 -111.5q133 0 201.5 110.5t68.5 315.5q0 426 -270 426q-127 0 -195.5 -111.5t-68.5 -314.5zM1532 504h-655q0 -398 278 -398q95 0 168 48.5t107 132.5l114 -60q-22 -49 -52.5 -90t-76.5 -78t-112.5 -58t-147.5 -21q-129 0 -215.5 46
t-136.5 148q-114 -194 -344 -194q-184 0 -298 148.5t-114 403.5t114 404t298 149q226 0 344 -190q90 190 340 190q79 0 147.5 -28.5t123.5 -85t86.5 -151.5t31.5 -218v-98zM881 631h503q0 149 -67.5 238t-186.5 89q-242 0 -249 -327z" />
    <glyph glyph-name="Scaron" unicode="&#x160;" horiz-adv-x="1251" 
d="M1065 1135l-147 -33q-29 114 -119 186t-226 72q-129 0 -202 -60t-74 -170q-1 -52 27 -94t76 -72.5t110.5 -57.5t131.5 -52t138 -52.5t131.5 -63.5t111 -79.5t77 -106t28.5 -138.5q0 -86 -25.5 -159.5t-80.5 -137t-155 -100.5t-236 -37q-93 0 -172 24t-132 60t-98.5 90.5
t-72.5 102t-54 108.5l150 53q113 -299 387 -299q157 0 241.5 73.5t84.5 192.5q0 60 -28.5 108.5t-76.5 82.5t-110.5 62.5t-131.5 54t-138 51.5t-131.5 60.5t-110.5 76t-76.5 102t-28.5 135.5q0 162 124 271.5t321 109.5q175 0 302.5 -92t184.5 -272zM328 1847h164l133 -192
l137 192h164l-205 -291h-193z" />
    <glyph glyph-name="scaron" unicode="&#x161;" horiz-adv-x="909" 
d="M49 182l117 88q115 -164 305 -164q113 0 171 51.5t58 125.5q0 48 -27 84t-71 56t-100.5 39.5t-115 34t-114 39.5t-99 56t-68.5 84t-23 123q4 136 100 212t252 74q106 -2 209 -53.5t156 -132.5l-103 -90q-64 78 -127 113.5t-147 35.5q-92 0 -142.5 -42.5t-50.5 -114.5
q0 -37 21 -65t57 -47t82.5 -34.5t97.5 -30.5t102.5 -32.5t98 -43.5t82.5 -59t57 -83.5t21 -114.5q0 -147 -109 -229t-264 -82q-127 0 -240.5 52.5t-185.5 149.5zM156 1479h163l134 -193l137 193h164l-205 -291h-193z" />
    <glyph glyph-name="Ydieresis" unicode="&#x178;" horiz-adv-x="1138" 
d="M487 0v623l-454 856h180l356 -678l357 678h180l-455 -856v-623h-164zM821 1577h-180v192h180v-192zM498 1577h-181v192h181v-192z" />
    <glyph glyph-name="Zcaron" unicode="&#x17d;" horiz-adv-x="1138" 
d="M1047 139v-139h-955v119l742 1220h-674v140h878v-107l-753 -1233h762zM270 1847h164l133 -192l138 192h163l-204 -291h-193z" />
    <glyph glyph-name="zcaron" unicode="&#x17e;" horiz-adv-x="909" 
d="M848 127v-127h-787v106l582 832h-524v127h725v-107l-582 -831h586zM156 1479h163l134 -193l137 193h164l-205 -291h-193z" />
    <glyph glyph-name="florin" unicode="&#x192;" horiz-adv-x="1251" 
d="M109 -381l22 135q40 -20 98 -20q94 0 134 45t61 160l160 880h-234v123h258l23 119q48 241 132.5 339.5t248.5 98.5q72 0 112 -16l-34 -133q-42 22 -93 22q-81 0 -126 -66.5t-83 -248.5l-22 -111h238v-127h-261l-168 -862q-17 -87 -42.5 -148.5t-67.5 -108.5t-105.5 -70
t-150.5 -23q-34 0 -100 12z" />
    <glyph glyph-name="circumflex" unicode="&#x2c6;" horiz-adv-x="569" 
d="M-14 1188l200 291h193l205 -291h-164l-137 192l-133 -192h-164z" />
    <glyph glyph-name="caron" unicode="&#x2c7;" horiz-adv-x="569" 
d="M-14 1479h164l133 -193l137 193h164l-205 -291h-193z" />
    <glyph glyph-name="uni02C9" unicode="&#x2c9;" horiz-adv-x="569" 
d="M604 1253h-639v123h639v-123z" />
    <glyph glyph-name="breve" unicode="&#x2d8;" horiz-adv-x="569" 
d="M500 1475h100q-19 -138 -100 -208.5t-215 -70.5t-215.5 70.5t-100.5 208.5h101q35 -160 215 -160t215 160z" />
    <glyph glyph-name="dotaccent" unicode="&#x2d9;" horiz-adv-x="569" 
d="M375 1208h-180v193h180v-193z" />
    <glyph glyph-name="ring" unicode="&#x2da;" horiz-adv-x="569" 
d="M80 1393q0 85 60 144.5t145 59.5t144.5 -59.5t59.5 -144.5t-59.5 -145t-144.5 -60t-145 60t-60 145zM170 1393q0 -47 34 -81t81 -34t80.5 34t33.5 81t-33.5 80.5t-80.5 33.5t-81 -33.5t-34 -80.5z" />
    <glyph glyph-name="ogonek" unicode="&#x2db;" horiz-adv-x="569" 
d="M539 -252l32 -61q-50 -41 -133 -79t-176 -38q-97 0 -148 47.5t-51 132.5q0 103 115.5 177t343.5 112v-21q-42 -15 -73.5 -27.5t-78 -36.5t-76.5 -49t-52.5 -61t-22.5 -75q0 -49 30.5 -77t88.5 -28q71 0 201 84z" />
    <glyph glyph-name="tilde" unicode="&#x2dc;" horiz-adv-x="569" 
d="M532 1444h103q-8 -82 -64.5 -150.5t-134.5 -68.5q-49 0 -160 39q-103 39 -153 39q-31 0 -57.5 -31t-28.5 -66h-103q10 98 66.5 161t153.5 63q56 0 149 -37q92 -39 133 -39q38 0 64 25t32 65z" />
    <glyph glyph-name="hungarumlaut" unicode="&#x2dd;" horiz-adv-x="569" 
d="M182 1479h219l-251 -291h-130zM489 1479h224l-269 -291h-137z" />
    <glyph glyph-name="uni03A9" unicode="&#x3a9;" horiz-adv-x="1634" 
d="M461 111v6q-137 108 -225.5 278t-88.5 383q0 154 52.5 286.5t143 225t215 145t265.5 52.5q145 0 270.5 -57.5t210 -154.5t133 -224t48.5 -265q0 -150 -48 -286.5t-117 -228.5t-153 -154v-6h349v-111h-531v82q71 41 133.5 104t114.5 147.5t82.5 196t30.5 234.5
q-1 86 -22 171.5t-65 164.5t-105 140t-147 97.5t-186 36.5q-119 0 -220.5 -49t-169.5 -132t-106 -195t-38 -238q0 -227 106 -409.5t252 -268.5v-82h-528v111h344z" />
    <glyph glyph-name="uni03BC" unicode="&#x3bc;" horiz-adv-x="1138" 
d="M956 0h-147v143h-4q-146 -163 -316 -163q-91 0 -159 32v-405h-148v1458h148v-770q0 -101 45 -145t129 -44q76 0 160.5 49.5t144.5 112.5v797h147v-1065z" />
    <glyph glyph-name="pi" unicode="&#x3c0;" horiz-adv-x="1261" 
d="M1202 971h-188v-656q0 -208 35 -315h-136q-36 59 -36 299v672h-435q-10 -228 -60 -532t-108 -439h-137q62 157 110 448t58 523q-175 0 -260 -29l-25 90q97 53 312 53h885z" />
    <glyph glyph-name="uni2010" unicode="&#x2010;" horiz-adv-x="681" 
d="M598 469h-516v127h516v-127z" />
    <glyph glyph-name="endash" unicode="&#x2013;" 
d="M0 481v103h1024v-103h-1024z" />
    <glyph glyph-name="emdash" unicode="&#x2014;" horiz-adv-x="2048" 
d="M0 481v103h2048v-103h-2048z" />
    <glyph glyph-name="quoteleft" unicode="&#x2018;" horiz-adv-x="569" 
d="M178 983v225l129 291h86l-96 -291h82v-225h-201z" />
    <glyph glyph-name="quoteright" unicode="&#x2019;" horiz-adv-x="569" 
d="M391 1479v-226l-129 -290h-86l96 290h-82v226h201z" />
    <glyph glyph-name="quotesinglbase" unicode="&#x201a;" horiz-adv-x="569" 
d="M391 225v-225l-129 -291h-86l96 291h-82v225h201z" />
    <glyph glyph-name="quotedblleft" unicode="&#x201c;" 
d="M211 983v225l129 291h86l-96 -291h82v-225h-201zM629 983v225l129 291h86l-96 -291h81v-225h-200z" />
    <glyph glyph-name="quotedblright" unicode="&#x201d;" 
d="M813 1479v-226l-129 -290h-86l96 290h-82v226h201zM395 1479v-226l-129 -290h-86l96 290h-81v226h200z" />
    <glyph glyph-name="quotedblbase" unicode="&#x201e;" 
d="M813 225v-225l-129 -291h-86l96 291h-82v225h201zM395 225v-225l-129 -291h-86l96 291h-81v225h200z" />
    <glyph glyph-name="dagger" unicode="&#x2020;" 
d="M430 1499h164l-49 -426l327 45v-160l-327 54l49 -357l-49 -827h-66l-49 827l49 357l-327 -54v160l327 -45z" />
    <glyph glyph-name="daggerdbl" unicode="&#x2021;" 
d="M545 1012l49 -348l-49 -349l327 54v-160l-327 45l49 -426h-164l49 426l-327 -45v160l327 -54l-49 349l49 348l-327 -54v160l327 -45l-49 426h164l-49 -426l327 45v-160z" />
    <glyph glyph-name="bullet" unicode="&#x2022;" 
d="M141 739q0 154 107.5 261.5t261.5 107.5t262.5 -107.5t108.5 -261.5t-108.5 -262t-262.5 -108t-261.5 108t-107.5 262z" />
    <glyph glyph-name="ellipsis" unicode="&#x2026;" horiz-adv-x="2048" 
d="M242 225h200v-225h-200v225zM924 225h200v-225h-200v225zM1606 225h200v-225h-200v225z" />
    <glyph glyph-name="perthousand" unicode="&#x2030;" horiz-adv-x="2048" 
d="M1411 303q0 125 90 214t213 89t213 -89t90 -214t-90 -214t-213 -89t-213 89t-90 214zM1530 303q0 -74 54 -129t130 -55q68 0 126 52.5t58 131.5t-58 131.5t-126 52.5t-126 -52.5t-58 -131.5zM670 303q0 125 90 214t213 89t213 -89t90 -214t-90 -214t-213 -89t-213 89
t-90 214zM788 303q0 -74 54.5 -129t130.5 -55q68 0 126 52.5t58 131.5t-58 131.5t-126 52.5t-126.5 -52.5t-58.5 -131.5zM31 1176q0 125 90 214t213 89t213 -89t90 -214t-90.5 -214.5t-212.5 -89.5t-212.5 89.5t-90.5 214.5zM150 1176q0 -74 54 -129.5t130 -55.5
q68 0 126 53t58 132t-58 131.5t-126 52.5t-126 -52.5t-58 -131.5zM1122 1499l-821 -1519h-121l817 1519h125z" />
    <glyph glyph-name="guilsinglleft" unicode="&#x2039;" horiz-adv-x="681" 
d="M377 856h143l-264 -324l264 -323h-139l-270 323z" />
    <glyph glyph-name="guilsinglright" unicode="&#x203a;" horiz-adv-x="681" 
d="M162 856h143l266 -324l-270 -323h-139l264 323z" />
    <glyph glyph-name="fraction" unicode="&#x2044;" horiz-adv-x="342" 
d="M-221 -20h-121l899 1519h127z" />
    <glyph glyph-name="Euro" unicode="&#x20ac;" horiz-adv-x="1251" 
d="M1159 1286l-57 -168q-15 28 -33 55.5t-52 65.5t-72.5 65.5t-95 47.5t-118.5 20q-76 0 -138 -27.5t-101.5 -72.5t-66.5 -104.5t-39 -119.5t-13 -122h663l-43 -127h-616v-181h555l-43 -126h-512q5 -165 107.5 -275.5t252.5 -110.5q58 0 109.5 13t87 31t70 47.5t54 51.5
t44.5 54v-170q-137 -153 -363 -153q-148 0 -263 69t-178 184t-75 259h-170l43 126h127v181h-170l43 127h127q0 116 35 219.5t99 182t161 125t213 46.5q40 0 74.5 -3t84 -16t92 -34.5t90.5 -62.5t87 -97z" />
    <glyph glyph-name="afii61289" unicode="&#x2113;" horiz-adv-x="1067" 
d="M942 315l72 -57q-145 -268 -410 -268q-90 0 -159 32t-111 88t-64 124.5t-26 148.5v27q-22 -17 -66.5 -53t-64.5 -52l-45 82q21 18 57.5 47t65 52.5t51.5 45.5v586q0 112 19.5 200.5t51 144t75.5 92t89 51t94 14.5q131 0 201 -96.5t70 -241.5q0 -192 -121 -383t-348 -401
v-60q1 -87 22.5 -154.5t58.5 -107t81.5 -59t95.5 -19.5q100 0 182.5 65t128.5 152zM373 1137v-504q175 180 270.5 335t95.5 308q0 242 -170 242q-35 0 -67.5 -20t-62.5 -62t-48 -119.5t-18 -179.5z" />
    <glyph glyph-name="trademark" unicode="&#x2122;" horiz-adv-x="2027" 
d="M770 1479v-111h-262v-733h-139v733h-258v111h659zM1032 1339v-704h-139v844h215l254 -639l246 639h215v-844h-140v704h-4l-276 -704h-90l-277 704h-4z" />
    <glyph glyph-name="Omega" unicode="&#x2126;" horiz-adv-x="1634" 
d="M461 111v6q-137 108 -225.5 278t-88.5 383q0 154 52.5 286.5t143 225t215 145t265.5 52.5q145 0 270.5 -57.5t210 -154.5t133 -224t48.5 -265q0 -150 -48 -286.5t-117 -228.5t-153 -154v-6h349v-111h-531v82q71 41 133.5 104t114.5 147.5t82.5 196t30.5 234.5
q-1 86 -22 171.5t-65 164.5t-105 140t-147 97.5t-186 36.5q-119 0 -220.5 -49t-169.5 -132t-106 -195t-38 -238q0 -227 106 -409.5t252 -268.5v-82h-528v111h344z" />
    <glyph glyph-name="estimated" unicode="&#x212e;" horiz-adv-x="1832" 
d="M1759 719h-1366q-12 0 -12 -10v-414q0 -26 18 -47q102 -106 235.5 -165.5t280.5 -59.5q160 0 301 67t244 184h121q-115 -134 -291 -213t-377 -79q-229 0 -422.5 101t-306 274.5t-112.5 379.5q0 155 66.5 296.5t179 243.5t268.5 162t327 60q173 0 329.5 -60t270 -162
t180 -243t66.5 -297v-18zM1448 772v416q0 31 -18 49q-103 101 -235.5 159t-279.5 58q-146 0 -278.5 -59.5t-235.5 -163.5q-20 -20 -20 -51v-408q0 -4 3.5 -9t8.5 -5h1047q8 0 8 14z" />
    <glyph glyph-name="partialdiff" unicode="&#x2202;" horiz-adv-x="1204" 
d="M225 1430l-51 96q152 116 365 116q86 0 166 -31t150.5 -96t123 -157t83 -222.5t30.5 -285.5q0 -140 -22.5 -267.5t-69.5 -236t-114 -188.5t-161.5 -125t-206.5 -45q-104 0 -187 43t-133 113.5t-76 155t-26 173.5q0 117 38.5 217.5t103 167.5t149.5 105t178 38
q76 0 145.5 -25t117.5 -63.5t78 -72t46 -62.5h2q2 27 2 101q0 146 -35.5 270.5t-94.5 207t-137 129t-163 46.5q-169 0 -301 -102zM528 98h4q81 0 152 44.5t121 120t83 172t46 204.5q-14 39 -43.5 81t-73 81.5t-104.5 64.5t-127 25q-144 0 -248.5 -122t-104.5 -294
q0 -162 81.5 -269.5t213.5 -107.5z" />
    <glyph glyph-name="uni2206" unicode="&#x2206;" horiz-adv-x="1449" 
d="M70 0v100l577 1405h160l571 -1405v-100h-1308zM211 111h1018l-346 847q-14 38 -76.5 190.5t-79.5 207.5h-10q-12 -43 -69.5 -185t-69.5 -176z" />
    <glyph glyph-name="product" unicode="&#x220f;" horiz-adv-x="1552" 
d="M1495 1341h-254v-1544h-133v1544h-664v-1544h-135v1544h-252v121h1438v-121z" />
    <glyph glyph-name="summation" unicode="&#x2211;" horiz-adv-x="1234" 
d="M1184 -203h-1135v90l615 740l-586 741v94h1073v-116h-877v-9l551 -694l-592 -711v-6h951v-129z" />
    <glyph glyph-name="minus" unicode="&#x2212;" horiz-adv-x="1228" 
d="M1147 469h-1065v127h1065v-127z" />
    <glyph glyph-name="uni2215" unicode="&#x2215;" horiz-adv-x="342" 
d="M-221 -20h-121l899 1519h127z" />
    <glyph glyph-name="uni2219" unicode="&#x2219;" horiz-adv-x="624" 
d="M184 530q0 55 36 92t91 37q53 0 90 -37.5t37 -91.5q0 -52 -37 -88t-90 -36q-55 0 -91 35.5t-36 88.5z" />
    <glyph glyph-name="radical" unicode="&#x221a;" horiz-adv-x="1257" 
d="M1257 1735l-495 -2052h-127l-363 983l-166 -62l-30 84l282 111l301 -822q35 -132 37 -139l2 -2q3 17 29 141l424 1758h106z" />
    <glyph glyph-name="infinity" unicode="&#x221e;" horiz-adv-x="1701" 
d="M1587 608v-2q0 -150 -98 -245t-232 -95q-68 0 -134.5 33.5t-123.5 84.5t-145 146q-46 -51 -72.5 -79t-72.5 -69t-83 -62t-87.5 -37.5t-102.5 -16.5q-132 0 -227.5 98t-95.5 236q0 146 97 242t243 96q59 0 114.5 -21t109 -63.5t92.5 -81.5t93 -100q105 116 149 154
q129 112 263 112q142 0 227.5 -91.5t85.5 -238.5zM451 356h2q34 0 70 12.5t62.5 27.5t62.5 46t54 49t54 56t47 49q-94 112 -134 150q-114 106 -233 106q-103 0 -164 -75t-61 -181q2 -101 68 -170.5t172 -69.5zM1264 852h-2q-43 0 -86 -17t-82.5 -48.5t-68 -59t-65 -67.5
t-51.5 -54q68 -72 104.5 -108.5t83.5 -74.5t87 -52.5t84 -14.5q100 0 161.5 74t61.5 170q0 117 -63.5 184.5t-163.5 67.5z" />
    <glyph glyph-name="integral" unicode="&#x222b;" horiz-adv-x="761" 
d="M733 1751l-26 -94q-31 24 -84 24q-71 0 -113 -47q-42 -49 -60 -138.5t-18 -242.5q0 -161 14.5 -528t14.5 -535q0 -288 -96 -421q-33 -49 -87 -75t-116 -26q-38 0 -78 11.5t-61 25.5l26 98q50 -28 103 -28q63 0 104 47q82 104 82 371q0 169 -15.5 541t-15.5 534
q0 172 26 274t89 164q75 78 192 78q65 0 119 -33z" />
    <glyph glyph-name="approxequal" unicode="&#x2248;" horiz-adv-x="1263" 
d="M1094 905l57 -53q-107 -201 -281 -201q-44 0 -88.5 13t-75.5 28.5t-100 52.5q-50 26 -72.5 37.5t-64 24t-76.5 12.5q-71 0 -122 -43t-103 -121l-62 52q51 96 130 149t174 53q30 0 59 -5.5t58 -18t47 -21t47.5 -26t37.5 -21.5q11 -5 37.5 -19t36.5 -19t32 -14.5t36 -13
t34.5 -7t41.5 -3.5q67 0 116.5 39t100.5 125zM1094 539l57 -54q-107 -198 -281 -198q-44 0 -88.5 13t-75.5 28.5t-100 52.5q-50 26 -72.5 37.5t-64 24t-76.5 12.5q-38 0 -71 -13t-61 -39t-47.5 -50t-45.5 -62l-62 51q51 96 130 149.5t172 53.5q39 0 79.5 -11t62 -21
t61.5 -33t48 -27q10 -5 36 -18.5t36 -19t32 -15t37 -13t35.5 -7t41.5 -3.5q68 0 116.5 38t100.5 124z" />
    <glyph glyph-name="notequal" unicode="&#x2260;" horiz-adv-x="1263" 
d="M887 1075l-105 -223h365v-92h-404l-153 -328h557v-92h-598l-123 -264l-76 35l109 229h-344v92h385l153 328h-538v92h577l121 258z" />
    <glyph glyph-name="lessequal" unicode="&#x2264;" horiz-adv-x="1263" 
d="M1141 188l-1014 492v96l1014 490v-111l-910 -424v-4l910 -428v-111zM1145 4h-1030v94h1030v-94z" />
    <glyph glyph-name="greaterequal" unicode="&#x2265;" horiz-adv-x="1263" 
d="M129 1266l1012 -490v-98l-1012 -490v111l907 426v4l-907 426v111zM1145 4h-1028v94h1028v-94z" />
    <glyph glyph-name="lozenge" unicode="&#x25ca;" horiz-adv-x="1259" 
d="M1135 731l-453 -831h-111l-448 831l450 832h111zM1008 727l-336 619q-33 68 -43 104h-4q-14 -47 -45 -104l-332 -613l338 -620q34 -72 41 -103h6q16 52 39 101z" />
    <glyph glyph-name="fi" unicode="&#xfb01;" horiz-adv-x="1138" 
d="M356 0h-147v938h-180v127h180v121q0 94 15.5 155.5t49.5 96t80 48t115 13.5q23 0 131 -10v-131q-9 1 -48 7.5t-58 6.5q-77 0 -107.5 -32t-30.5 -119v-156h232v-127h-232v-938zM813 0v1065h148v-1065h-148zM813 1499h148v-176h-148v176z" />
    <glyph glyph-name="fl" unicode="&#xfb02;" horiz-adv-x="1138" 
d="M356 0h-147v938h-180v127h180v121q0 94 15.5 155.5t49.5 96t80 48t115 13.5q23 0 131 -10v-131q-9 1 -48 7.5t-58 6.5q-77 0 -107.5 -32t-30.5 -119v-156h232v-127h-232v-938zM813 1479h148v-1479h-148v1479z" />
    <glyph glyph-name="a.superior" horiz-adv-x="614" 
d="M135 1315l-84 49q37 61 102.5 98t157.5 37q63 0 115.5 -17.5t89.5 -62.5t37 -112v-322q0 -84 16 -137h-108l-12 72q-35 -25 -57 -38.5t-69 -29.5t-94 -16q-86 0 -143 46t-57 130q0 105 96 167.5t317 100.5v27q0 48 -34.5 73t-96.5 25q-73 0 -116.5 -26t-59.5 -64z
M442 1018v168q-152 -29 -227.5 -70.5t-75.5 -105.5q0 -33 27.5 -56.5t71.5 -23.5q52 0 108.5 26t95.5 62z" />
    <glyph glyph-name="o.superior" horiz-adv-x="614" 
d="M143 1171q0 -237 164 -237q80 0 122 61t42 172t-42 172.5t-122 61.5q-76 0 -120 -62t-44 -168zM25 1167q0 154 76 243t206 89q131 0 207 -88.5t76 -243.5t-76 -243t-207 -88q-130 0 -206 88.5t-76 242.5z" />
    <glyph glyph-name="one.superior" horiz-adv-x="749" 
d="M338 1499h111v-799h161v-102h-436v102h156v697l-174 -27v68q148 40 182 61z" />
    <glyph glyph-name="two.superior" horiz-adv-x="749" 
d="M692 598h-635v111q38 70 95 130t113 97.5t113.5 76t101 69.5t71 74t27.5 93q0 66 -48 107t-135 41q-99 0 -158.5 -52t-82.5 -128l-95 32q32 109 118 179.5t224 70.5q130 0 208.5 -64t78.5 -173q0 -59 -22 -109.5t-59.5 -89t-84 -72.5t-98.5 -67t-99 -65t-89.5 -73.5
t-67.5 -85.5h524v-102z" />
    <glyph glyph-name="three.superior" horiz-adv-x="749" 
d="M227 1022v102h84q120 0 179 36.5t59 117.5q0 48 -47.5 83.5t-120.5 35.5q-83 0 -129.5 -23.5t-93.5 -81.5l-86 58q55 70 128 109.5t181 39.5q130 0 204 -58t74 -163q0 -76 -37 -125.5t-96 -69.5v-4q84 -27 125 -95t41 -142q0 -115 -88 -185.5t-237 -70.5
q-123 0 -210.5 53t-131.5 119l81 65q102 -135 261 -135q102 0 158.5 41t56.5 111q0 93 -61 137.5t-202 44.5h-92z" />
    </font>
</defs>
</svg>
