<?xml version="1.0" standalone="no"?>
<!DOCTYPE svg PUBLIC "-//W3C//DTD SVG 1.1//EN" "http://www.w3.org/Graphics/SVG/1.1/DTD/svg11.dtd" >
<svg xmlns="http://www.w3.org/2000/svg" xmlns:xlink="http://www.w3.org/1999/xlink" version="1.1">
<metadata>
Created by FontForge 20170731 at Fri Jan 21 06:48:17 2022
 By Aleksey,,,
(c) 1989, 1990, 2002 Adobe Systems Incorporated. All rights reserved. (c) 1981, 2002 Heidelberger Druckmaschinen AG. All rights reserved.
</metadata>
<defs>
<font id="TradeGothicLTStd-Bold" horiz-adv-x="1024" >
  <font-face 
    font-family="Trade Gothic LT Std Bold"
    font-weight="700"
    font-stretch="semi-condensed"
    units-per-em="2048"
    panose-1="2 11 8 4 5 5 2 2 2 4"
    ascent="1479"
    descent="-569"
    x-height="1114"
    cap-height="1479"
    bbox="-342 -467 2048 1989"
    underline-thickness="102"
    underline-position="-307"
    unicode-range="U+0020-FB02"
  />
<missing-glyph 
d="M0 0v1434h1024v-1434h-1024zM512 809l348 522h-696zM573 717l349 -522v1044zM164 102h696l-348 523zM102 1239v-1044l349 522z" />
    <glyph glyph-name="f_i" unicode="fi" 
d="M659 1065h259v-1065h-259v1065zM918 1257h-259v234h259v-234zM553 1487v-213h-74q-44 0 -66 -25.5t-22 -68.5v-115h154v-209h-154v-856h-258v856h-117v209h117v106q0 95 19.5 160t59 101.5t92 51.5t126.5 15q37 0 123 -12z" />
    <glyph glyph-name="f_l" unicode="fl" 
d="M659 0v1479h259v-1479h-259zM553 1487v-213h-74q-44 0 -66 -25.5t-22 -68.5v-115h154v-209h-154v-856h-258v856h-117v209h117v106q0 95 19.5 160t59 101.5t92 51.5t126.5 15q37 0 123 -12z" />
    <glyph glyph-name=".notdef" 
d="M0 0v1434h1024v-1434h-1024zM512 809l348 522h-696zM573 717l349 -522v1044zM164 102h696l-348 523zM102 1239v-1044l349 522z" />
    <glyph glyph-name=".null" horiz-adv-x="0" 
 />
    <glyph glyph-name="nonmarkingreturn" horiz-adv-x="682" 
 />
    <glyph glyph-name="space" unicode=" " horiz-adv-x="569" 
 />
    <glyph glyph-name="exclam" unicode="!" horiz-adv-x="569" 
d="M434 1479l-57 -979h-184l-58 979h299zM430 0h-291v291h291v-291z" />
    <glyph glyph-name="quotedbl" unicode="&#x22;" horiz-adv-x="681" 
d="M408 926v553h225v-553h-225zM49 926v553h225v-553h-225z" />
    <glyph glyph-name="numbersign" unicode="#" horiz-adv-x="1138" 
d="M1036 614v-192h-202l-60 -422h-196l57 422h-203l-59 -422h-197l57 422h-192v192h219l37 250h-193v193h218l59 422h197l-58 -422h203l59 422h197l-57 -422h176v-193h-201l-37 -250h176zM698 864h-202l-37 -250h203z" />
    <glyph glyph-name="dollar" unicode="$" horiz-adv-x="1138" 
d="M39 260l176 160q52 -72 119.5 -124.5t140.5 -66.5v422q-83 24 -154 61.5t-129.5 90t-92 124.5t-33.5 156q0 117 56 207t147.5 137t205.5 52v131h160v-131q228 -38 389 -217l-160 -154q-109 132 -229 145v-376q77 -28 134 -54t117 -66.5t97.5 -87t61.5 -113t24 -146.5
q0 -181 -124.5 -293t-309.5 -117v-233h-160v235q-104 0 -231.5 77t-204.5 181zM475 922v344q-74 -2 -125 -45t-51 -117q0 -63 51 -111.5t125 -70.5zM635 604v-379q80 0 132 49t52 127q0 35 -11 64t-25 47t-43 37t-48 28.5t-57 26.5z" />
    <glyph glyph-name="percent" unicode="%" horiz-adv-x="1820" 
d="M438 1479q154 0 261.5 -108.5t107.5 -260.5t-107.5 -260.5t-261.5 -108.5t-261 108.5t-107 260.5t107 260.5t261 108.5zM438 1278q-68 0 -118 -50.5t-50 -117.5t50 -117.5t118 -50.5t118 50.5t50 117.5t-50 117.5t-118 50.5zM1382 737q154 0 261.5 -108t107.5 -260
t-107.5 -260.5t-261.5 -108.5t-261 108.5t-107 260.5t107 260t261 108zM1382 537q-68 0 -118 -50.5t-50 -117.5t50 -117.5t118 -50.5t118 50.5t50 117.5t-50 117.5t-118 50.5zM403 -20l850 1519h174l-849 -1519h-175z" />
    <glyph glyph-name="ampersand" unicode="&#x26;" horiz-adv-x="1366" 
d="M561 1327q-60 0 -94.5 -45t-34.5 -115q0 -59 20 -109.5t64 -123.5q8 7 39 34t42.5 38t34.5 37t32.5 44.5t18.5 46t9 56.5q0 52 -35.5 94.5t-95.5 42.5zM1038 743l228 -63q-87 -227 -176 -369q103 -71 204 -82v-249q-108 0 -189 32t-183 119q-154 -151 -371 -151
q-220 0 -350.5 105.5t-130.5 303.5q0 143 63 236.5t186 173.5q-63 94 -91.5 168.5t-28.5 162.5q0 92 30.5 164t84 116t120.5 66.5t144 22.5q150 0 249 -96.5t99 -237.5q0 -65 -22 -122.5t-64.5 -106.5t-83.5 -85.5t-99 -82.5q-11 -8 -16 -12q119 -162 264 -301q38 69 54 99
t40.5 85.5t38.5 103.5zM352 426q0 -102 61.5 -157.5t149.5 -55.5q56 0 107.5 23t83.5 59q-155 135 -295 315q-53 -42 -80 -83t-27 -101z" />
    <glyph glyph-name="quotesingle" unicode="'" horiz-adv-x="454" 
d="M115 926v553h225v-553h-225z" />
    <glyph glyph-name="parenleft" unicode="(" horiz-adv-x="681" 
d="M623 -172h-242q-130 183 -204.5 396.5t-74.5 439.5t74.5 439t204.5 396h242q-66 -92 -114 -176t-91.5 -188t-66.5 -223t-23 -248t23 -248t66.5 -223.5t92 -188.5t113.5 -176z" />
    <glyph glyph-name="parenright" unicode=")" horiz-adv-x="681" 
d="M301 -172h-242q65 92 113.5 176t92 188.5t66.5 223.5t23 248t-23 248t-66.5 223t-91.5 188t-114 176h242q130 -183 204.5 -396t74.5 -439t-74.5 -439.5t-204.5 -396.5z" />
    <glyph glyph-name="asterisk" unicode="*" 
d="M410 1479h204l-59 -297l8 -11l273 140l53 -183l-299 -36l-4 -13l217 -213l-154 -116l-131 274h-12l-131 -274l-154 116l217 213l-4 13l-299 36l53 183l273 -140l8 11z" />
    <glyph glyph-name="plus" unicode="+" horiz-adv-x="1228" 
d="M489 682v432h250v-432h432v-250h-432v-432h-250v432h-432v250h432z" />
    <glyph glyph-name="comma" unicode="," horiz-adv-x="569" 
d="M158 -303l104 303h-123v291h291v-291l-129 -303h-143z" />
    <glyph glyph-name="hyphen" unicode="-" horiz-adv-x="681" 
d="M592 444h-504v226h504v-226z" />
    <glyph glyph-name="period" unicode="." horiz-adv-x="569" 
d="M430 0h-291v291h291v-291z" />
    <glyph glyph-name="slash" unicode="/" horiz-adv-x="569" 
d="M688 1499l-557 -1519h-250l557 1519h250z" />
    <glyph glyph-name="zero" unicode="0" horiz-adv-x="1138" 
d="M74 492v495q0 239 129 375.5t366 136.5t366.5 -136.5t129.5 -375.5v-495q0 -239 -129.5 -375.5t-366.5 -136.5t-366 136.5t-129 375.5zM344 956v-434q0 -174 53 -241.5t172 -67.5t172.5 67.5t53.5 241.5v434q0 174 -53.5 242t-172.5 68t-172 -68t-53 -242z" />
    <glyph glyph-name="one" unicode="1" horiz-adv-x="1138" 
d="M481 0v1130h-227v162q36 7 66 15t55 18.5t43.5 18.5t37 22.5t29.5 22.5t26.5 26t22 26t22.5 29t22 29h161v-1499h-258z" />
    <glyph glyph-name="two" unicode="2" horiz-adv-x="1138" 
d="M1014 0h-932v240q193 183 300 288.5t193.5 196.5t122 145t52 99t16.5 94q0 92 -50.5 147.5t-146.5 55.5q-100 0 -155.5 -54.5t-55.5 -140.5v-53h-270v69q0 82 32 156t90 131t146 91t193 34q223 0 355 -111.5t132 -318.5q0 -82 -31.5 -165.5t-79 -151.5t-117 -144
t-130.5 -132t-136 -126t-118 -117h590v-233z" />
    <glyph glyph-name="three" unicode="3" horiz-adv-x="1138" 
d="M70 434h270q0 -114 52.5 -167.5t166.5 -53.5q102 0 158.5 60.5t56.5 158.5q0 123 -71.5 176.5t-227.5 55.5v233q143 0 203.5 43.5t60.5 146.5q0 79 -50 129t-140 50q-75 0 -125 -48.5t-53 -123.5h-271q1 132 63 225t161.5 136.5t226.5 43.5q206 0 332.5 -105t126.5 -296
q0 -101 -47 -190t-132 -132q213 -82 213 -356q0 -142 -65.5 -243t-172.5 -149t-243 -48q-244 0 -368.5 120t-124.5 334z" />
    <glyph glyph-name="four" unicode="4" horiz-adv-x="1138" 
d="M225 598h424v578h-4zM0 627l627 852h280v-881h207v-209h-207v-389h-258v389h-649v238z" />
    <glyph glyph-name="five" unicode="5" horiz-adv-x="1138" 
d="M72 424h270q-4 -101 52.5 -156t158.5 -55q127 0 178 79.5t51 242.5q0 141 -51 212.5t-164 71.5q-134 0 -217 -114h-223v774h854v-234h-621v-307q128 90 269 90q116 0 199 -35t131.5 -102t71 -156.5t22.5 -206.5q0 -548 -496 -548q-107 0 -191.5 25t-139 66.5t-90 100
t-50 120.5t-14.5 132z" />
    <glyph glyph-name="six" unicode="6" horiz-adv-x="1138" 
d="M344 604v-82q0 -174 53 -241.5t172 -67.5q104 0 158.5 71.5t54.5 200.5q0 119 -57.5 179.5t-155.5 60.5q-58 0 -108.5 -30.5t-116.5 -90.5zM1026 1092h-270q-3 74 -57 124t-130 50q-119 0 -172 -68t-53 -242v-137q151 115 318 115q125 0 215 -60.5t133 -158t43 -219.5
q0 -116 -29 -209t-86.5 -162.5t-151.5 -107t-217 -37.5q-237 0 -366 136.5t-129 375.5v495q0 239 129 375.5t366 136.5q196 0 319 -105.5t138 -301.5z" />
    <glyph glyph-name="seven" unicode="7" horiz-adv-x="1138" 
d="M61 1245v234h934v-136l-399 -1343h-295l410 1245h-650z" />
    <glyph glyph-name="eight" unicode="8" horiz-adv-x="1138" 
d="M795 428q0 103 -61.5 165t-164.5 62t-164 -62t-61 -165q0 -215 225 -215q226 0 226 215zM758 1075q0 79 -53.5 135t-135.5 56t-135 -55.5t-53 -135.5q0 -78 55 -132t133 -54t133.5 54t55.5 132zM1065 420q0 -142 -66 -243t-176.5 -149t-253.5 -48q-220 0 -357.5 114
t-137.5 326q0 273 215 356q-85 43 -131.5 132t-46.5 190q0 132 62 224.5t163 134.5t233 42q98 0 180 -24.5t145 -72.5t98.5 -126t35.5 -178q0 -101 -46.5 -190t-131.5 -132q215 -83 215 -356z" />
    <glyph glyph-name="nine" unicode="9" horiz-adv-x="1138" 
d="M795 874v82q0 174 -53.5 242t-172.5 68q-104 0 -158.5 -71.5t-54.5 -201.5q0 -119 57.5 -179t155.5 -60q58 0 109.5 30.5t116.5 89.5zM113 387h270q3 -75 56.5 -124.5t129.5 -49.5q119 0 172.5 67.5t53.5 241.5v137q-150 -114 -318 -114q-125 0 -215 60.5t-133 158
t-43 219.5q0 116 28.5 209t86.5 162.5t151.5 107t216.5 37.5q237 0 366.5 -136.5t129.5 -375.5v-495q0 -239 -129.5 -375.5t-366.5 -136.5q-196 0 -318.5 105.5t-137.5 301.5z" />
    <glyph glyph-name="colon" unicode=":" horiz-adv-x="569" 
d="M430 0h-291v291h291v-291zM430 614h-291v291h291v-291z" />
    <glyph glyph-name="semicolon" unicode=";" horiz-adv-x="569" 
d="M158 -303l104 303h-123v291h291v-291l-129 -303h-143zM430 614h-291v291h291v-291z" />
    <glyph glyph-name="less" unicode="&#x3c;" horiz-adv-x="1228" 
d="M1171 221v-239l-1114 477v196l1114 478v-240l-796 -336z" />
    <glyph glyph-name="equal" unicode="=" horiz-adv-x="1228" 
d="M1171 932v-250h-1114v250h1114zM1171 432v-250h-1114v250h1114z" />
    <glyph glyph-name="greater" unicode="&#x3e;" horiz-adv-x="1228" 
d="M57 -18v239l797 336l-797 336v240l1114 -478v-196z" />
    <glyph glyph-name="question" unicode="?" horiz-adv-x="909" 
d="M256 1110l-236 66q38 152 146.5 237.5t265.5 85.5q100 0 185.5 -38.5t141.5 -119.5t56 -190q0 -63 -38 -130t-109 -157q-42 -54 -57 -74.5t-42.5 -62.5t-38 -73t-10.5 -60v-102h-225v200q0 32 41 99.5t90 132t90 136t41 111.5q0 51 -39 85t-90 34q-62 0 -114.5 -56
t-57.5 -124zM553 0h-291v291h291v-291z" />
    <glyph glyph-name="at" unicode="@" horiz-adv-x="1638" 
d="M842 926q-92 0 -155.5 -74t-63.5 -166q0 -75 42.5 -122.5t114.5 -47.5q96 0 160 74t64 170q0 74 -45 120t-117 46zM1061 1008l24 102h185l-103 -500q-1 -7 -5 -23.5t-6.5 -30.5t-2.5 -26q0 -38 31 -38q79 0 143 89t64 242q0 239 -151 371.5t-392 132.5q-168 0 -297 -77
t-197.5 -210.5t-68.5 -302.5q0 -176 76.5 -309.5t211.5 -204.5t308 -71q115 0 219.5 38t183.5 105h189q-106 -152 -263 -233.5t-346 -81.5q-214 0 -394.5 97t-287 271.5t-106.5 388.5q0 159 62 301t166.5 242.5t248 159.5t301.5 59q135 0 262.5 -44.5t227 -122.5t159.5 -196
t60 -255q0 -93 -22 -174.5t-58.5 -140t-84 -106.5t-97 -79t-99.5 -52t-89.5 -29.5t-68.5 -8.5q-45 0 -77 28t-33 78l-4 2q-41 -46 -96.5 -77t-108.5 -31q-132 0 -230 107.5t-98 252.5q0 124 50.5 234t148.5 180t221 70q162 0 244 -127z" />
    <glyph glyph-name="A" unicode="A" horiz-adv-x="1138" 
d="M569 1159l-139 -598h281l-138 598h-4zM299 0h-272l366 1479h363l356 -1479h-270l-72 311h-391z" />
    <glyph glyph-name="B" unicode="B" horiz-adv-x="1138" 
d="M127 0v1479h397q230 0 353.5 -96.5t123.5 -284.5q0 -197 -182 -307q121 -76 169 -153.5t48 -211.5q0 -213 -131.5 -319.5t-363.5 -106.5h-414zM410 659v-426h118q108 0 167 58.5t59 157.5q0 103 -66 156.5t-180 53.5h-98zM410 1245v-352h98q94 0 152.5 49t58.5 125
q0 84 -49.5 131t-147.5 47h-112z" />
    <glyph glyph-name="C" unicode="C" horiz-adv-x="1138" 
d="M385 1040v-602q0 -117 46.5 -163t137.5 -46t138 46.5t47 162.5v99h282v-62q0 -495 -467 -495t-467 495v529q0 495 467 495t467 -495v-5h-282v41q0 116 -47 162.5t-138 46.5t-137.5 -46t-46.5 -163z" />
    <glyph glyph-name="D" unicode="D" horiz-adv-x="1138" 
d="M127 0v1479h393q251 0 379 -120t137 -392v-455q-9 -272 -137 -392t-379 -120h-393zM410 1229v-979h98q123 0 184.5 67.5t61.5 227.5v389q0 157 -57 226t-189 69h-98z" />
    <glyph glyph-name="E" unicode="E" 
d="M922 0h-795v1479h774v-250h-491v-340h374v-250h-374v-389h512v-250z" />
    <glyph glyph-name="F" unicode="F" horiz-adv-x="909" 
d="M410 0h-283v1479h737v-250h-454v-340h356v-250h-356v-639z" />
    <glyph glyph-name="G" unicode="G" horiz-adv-x="1138" 
d="M877 0l-43 123q-126 -143 -265 -143q-467 0 -467 495v529q0 495 467 495q440 0 455 -502h-283q0 135 -45 193.5t-127 58.5q-91 0 -137.5 -46t-46.5 -163v-602q0 -117 46.5 -163t137.5 -46q80 0 126 55t46 150v90h-198v234h481v-758h-147z" />
    <glyph glyph-name="H" unicode="H" horiz-adv-x="1251" 
d="M426 0h-283v1479h283v-590h399v590h283v-1479h-283v639h-399v-639z" />
    <glyph glyph-name="I" unicode="I" horiz-adv-x="569" 
d="M426 0h-283v1479h283v-1479z" />
    <glyph glyph-name="J" unicode="J" horiz-adv-x="681" 
d="M256 1479h283v-1166q0 -152 -99 -242.5t-280 -90.5q-78 0 -140 6v250q11 -1 36.5 -4t39.5 -3q95 0 127.5 30.5t32.5 111.5v1108z" />
    <glyph glyph-name="K" unicode="K" horiz-adv-x="1138" 
d="M410 0h-283v1479h283v-611h4l366 611h310l-381 -596l424 -883h-318l-295 621l-110 -168v-453z" />
    <glyph glyph-name="L" unicode="L" horiz-adv-x="909" 
d="M864 0h-737v1479h283v-1229h454v-250z" />
    <glyph glyph-name="M" unicode="M" horiz-adv-x="1593" 
d="M385 0h-242v1479h396l256 -971h4l256 971h395v-1479h-242v1163h-4l-301 -1163h-213l-301 1163h-4v-1163z" />
    <glyph glyph-name="N" unicode="N" horiz-adv-x="1251" 
d="M401 0h-258v1479h310l393 -877h4v877h258v-1479h-270l-432 954h-5v-954z" />
    <glyph glyph-name="O" unicode="O" horiz-adv-x="1138" 
d="M102 475v529q0 495 467 495t467 -495v-529q0 -495 -467 -495t-467 495zM385 1040v-602q0 -117 46.5 -163t137.5 -46t138 46.5t47 162.5v602q0 116 -47 162.5t-138 46.5t-137.5 -46t-46.5 -163z" />
    <glyph glyph-name="P" unicode="P" horiz-adv-x="1138" 
d="M426 0h-283v1479h408q257 0 387.5 -115t130.5 -328t-130.5 -327.5t-387.5 -114.5h-125v-594zM426 1245v-418h152q208 0 208 209t-208 209h-152z" />
    <glyph glyph-name="Q" unicode="Q" horiz-adv-x="1138" 
d="M1124 137v-246q-172 0 -297 146q-103 -57 -258 -57q-467 0 -467 495v529q0 495 467 495t467 -495v-529q0 -177 -59 -289q62 -46 147 -49zM551 369v245q119 -15 199 -135h4v561q0 116 -47 162.5t-138 46.5t-137.5 -46t-46.5 -163v-602q0 -117 46.5 -163t137.5 -46
q65 0 107 23q-70 98 -125 117z" />
    <glyph glyph-name="R" unicode="R" horiz-adv-x="1138" 
d="M1094 0h-303l-246 602h-135v-602h-283v1479h410q251 0 376 -115t125 -328q0 -294 -223 -377zM410 1245v-409h145q201 0 201 204q0 205 -201 205h-145z" />
    <glyph glyph-name="S" unicode="S" horiz-adv-x="1138" 
d="M1006 1141l-254 -74q-35 104 -84.5 151.5t-122.5 47.5q-74 0 -115 -43t-41 -119q0 -45 35 -84.5t90.5 -72t122.5 -67.5t134.5 -79t123 -96.5t90.5 -131t35 -172.5q0 -193 -125.5 -307t-345.5 -114q-178 0 -303 101.5t-180 313.5l278 60q23 -123 85 -182.5t134 -59.5
q76 0 125 47.5t49 128.5q0 56 -35 104t-90.5 84t-123 72t-134.5 77t-122.5 88.5t-90.5 117t-35 153.5q0 194 114.5 304t330.5 110q183 0 300 -97.5t155 -260.5z" />
    <glyph glyph-name="T" unicode="T" 
d="M41 1479h942v-250h-330v-1229h-282v1229h-330v250z" />
    <glyph glyph-name="U" unicode="U" horiz-adv-x="1251" 
d="M143 1479h283v-1035q0 -215 199 -215q200 0 200 215v1035h283v-1037q0 -236 -127.5 -349t-355.5 -113t-355 113t-127 349v1037z" />
    <glyph glyph-name="V" unicode="V" horiz-adv-x="1138" 
d="M410 0l-379 1479h278l260 -1057h4l258 1057h277l-377 -1479h-321z" />
    <glyph glyph-name="W" unicode="W" horiz-adv-x="1705" 
d="M356 0l-309 1479h262l199 -967h4l203 967h272l205 -967h4l197 967h264l-324 -1479h-272l-207 1012h-4l-223 -1012h-271z" />
    <glyph glyph-name="X" unicode="X" horiz-adv-x="1138" 
d="M356 1479l213 -443l213 443h303l-358 -701l393 -778h-305l-246 522l-245 -522h-306l398 778l-363 701h303z" />
    <glyph glyph-name="Y" unicode="Y" horiz-adv-x="1138" 
d="M326 1479l247 -596l240 596h301l-403 -881v-598h-283v598l-403 881h301z" />
    <glyph glyph-name="Z" unicode="Z" 
d="M125 1229v250h819v-238l-559 -991h571v-250h-888v240l559 989h-502z" />
    <glyph glyph-name="bracketleft" unicode="[" horiz-adv-x="681" 
d="M582 -152h-480v1631h480v-123h-254v-1385h254v-123z" />
    <glyph glyph-name="backslash" unicode="\" horiz-adv-x="569" 
d="M438 -20l-557 1519h250l557 -1519h-250z" />
    <glyph glyph-name="bracketright" unicode="]" horiz-adv-x="681" 
d="M100 1479h480v-1631h-480v123h254v1385h-254v123z" />
    <glyph glyph-name="asciicircum" unicode="^" horiz-adv-x="1228" 
d="M346 655h-240l398 824h221l397 -824h-243l-265 578z" />
    <glyph glyph-name="underscore" unicode="_" 
d="M1024 -256h-1024v102h1024v-102z" />
    <glyph glyph-name="grave" unicode="`" horiz-adv-x="569" 
d="M-49 1548h317l191 -299h-207z" />
    <glyph glyph-name="a" unicode="a" 
d="M356 788h-258q14 177 138 267q108 80 276 80q196 0 287.5 -90t91.5 -248v-707q0 -39 14 -90h-258q-3 16 -8.5 52.5t-9.5 56.5q-129 -129 -307 -129q-120 0 -188 67t-68 199q0 75 29 138t76.5 109t124 87t154 70t183.5 61v82q0 68 -36.5 100.5t-96.5 32.5
q-59 0 -101.5 -39.5t-42.5 -98.5zM633 274v271q-85 -29 -150 -63.5t-112 -86t-47 -106.5t30.5 -86t83.5 -31q55 0 99.5 25.5t95.5 76.5z" />
    <glyph glyph-name="b" unicode="b" 
d="M381 862v-610q74 -80 156 -80q29 0 50 11t39.5 38.5t28 82t9.5 134.5v238q0 80 -9.5 134.5t-28 82t-39.5 38.5t-50 11q-82 0 -156 -80zM360 0h-237v1479h258v-467q94 69 150 96t108 27q147 0 215 -111t68 -332v-270q0 -220 -67.5 -331t-215.5 -111q-80 0 -158 48
t-116 107h-5v-135z" />
    <glyph glyph-name="c" unicode="c" 
d="M920 729h-256v49q0 63 -41.5 97t-110.5 34t-110.5 -34t-41.5 -97v-442q0 -63 41.5 -97t110.5 -34t110.5 34t41.5 97v70h258v-5q0 -421 -410 -421t-410 421v312q0 422 410 422q402 0 408 -406z" />
    <glyph glyph-name="d" unicode="d" 
d="M643 252v610q-74 80 -156 80q-29 0 -50 -11t-39.5 -38.5t-28 -82t-9.5 -134.5v-238q0 -80 9.5 -134.5t28 -82t39.5 -38.5t50 -11q82 0 156 80zM901 0h-237v135h-5q-38 -59 -116 -107t-158 -48q-148 0 -215.5 111t-67.5 331v270q0 221 68 332t215 111q52 0 108 -27
t150 -96v467h258v-1479z" />
    <glyph glyph-name="e" unicode="e" 
d="M922 496h-562v-148q0 -80 42 -120t110 -40q77 0 114.5 43t37.5 113h258q-9 -174 -113.5 -269t-296.5 -95q-186 0 -298 106.5t-112 288.5v364q0 182 112 289t298 107q181 0 295.5 -105t114.5 -274v-260zM360 705h304v61q0 76 -38 118t-114 42t-114 -42t-38 -118v-61z" />
    <glyph glyph-name="f" unicode="f" horiz-adv-x="569" 
d="M553 1487v-213h-74q-44 0 -66 -25.5t-22 -68.5v-115h154v-209h-154v-856h-258v856h-117v209h117v106q0 95 19.5 160t59 101.5t92 51.5t126.5 15q37 0 123 -12z" />
    <glyph glyph-name="g" unicode="g" 
d="M598 711q0 215 -135 215q-73 0 -104 -55.5t-31 -186.5q0 -103 32 -156t91 -53q58 0 88 18.5t44.5 69t14.5 148.5zM979 1135v-226q-7 1 -24 6t-32 8t-24 3q-12 0 -25.5 -4t-32 -11t-30.5 -10q3 -15 11.5 -50.5t11.5 -52t6.5 -43t3.5 -50.5q0 -213 -93 -326t-280 -113
q-57 0 -106 15q-4 -6 -17 -18.5t-21 -24t-8 -23.5q0 -25 28 -38t73.5 -15.5t103.5 -5.5t119 -6t119 -19t103.5 -42t73.5 -78t28 -124q0 -139 -132.5 -209.5t-363.5 -70.5q-203 0 -314.5 54t-111.5 149q0 15 5 30t10.5 26.5t18.5 25.5t20.5 21.5t26 20.5t25 17.5t27 17.5
t23.5 15q-107 65 -107 157q0 31 14 59.5t41.5 53.5t48 39.5t52.5 34.5q-91 60 -129.5 152t-38.5 235q0 420 381 420q81 0 161.5 -35t129.5 -94q53 66 104.5 97.5t120.5 31.5zM627 -74l-283 25l-8 -8l-8 -8t-7 -7.5t-7 -8t-6.5 -8t-6 -9t-4 -9t-3.5 -10t-2 -10.5t-1 -12
q0 -82 235 -82q93 0 144 23t51 65q0 29 -19 42t-75 17z" />
    <glyph glyph-name="h" unicode="h" 
d="M381 0h-258v1479h258v-492q74 71 141 109.5t140 38.5q121 0 180 -67.5t59 -219.5v-848h-258v819q0 123 -94 123q-25 0 -56.5 -16.5t-54 -34.5t-57.5 -49v-842z" />
    <glyph glyph-name="i" unicode="i" horiz-adv-x="569" 
d="M156 1114h258v-1114h-258v1114zM414 1307h-258v233h258v-233z" />
    <glyph glyph-name="j" unicode="j" horiz-adv-x="569" 
d="M156 1114h258v-1204q0 -151 -88.5 -227t-227.5 -76q-50 0 -94 6v227q82 0 117 24.5t35 78.5v1171zM414 1307h-258v233h258v-233z" />
    <glyph glyph-name="k" unicode="k" 
d="M393 0h-258v1479h258v-797h4l275 432h289l-256 -377l278 -737h-272l-189 522l-129 -182v-340z" />
    <glyph glyph-name="l" unicode="l" horiz-adv-x="569" 
d="M156 0v1479h258v-1479h-258z" />
    <glyph glyph-name="m" unicode="m" horiz-adv-x="1478" 
d="M123 0v1114h250v-127q40 36 65 56.5t62 45t73.5 35.5t75.5 11q71 0 122 -45t75 -123q49 54 83 85t86 57t105 26q236 0 236 -295v-840h-258v848q0 52 -17.5 73t-50.5 21q-35 0 -85 -32.5t-77 -67.5v-842h-258v848q0 52 -18 73t-51 21q-39 0 -86.5 -32t-73.5 -68v-842h-258
z" />
    <glyph glyph-name="n" unicode="n" 
d="M381 0h-258v1114h250v-127q83 73 149.5 110.5t139.5 37.5q121 0 180 -67.5t59 -219.5v-848h-258v819q0 123 -94 123q-25 0 -56.5 -16.5t-54 -34.5t-57.5 -49v-842z" />
    <glyph glyph-name="o" unicode="o" 
d="M102 401v312q0 422 410 422t410 -422v-312q0 -421 -410 -421t-410 421zM360 778v-442q0 -63 41.5 -97t110.5 -34t110.5 34t41.5 97v442q0 63 -41.5 97t-110.5 34t-110.5 -34t-41.5 -97z" />
    <glyph glyph-name="p" unicode="p" 
d="M381 862v-610q74 -80 156 -80q29 0 50 11t39.5 38.5t28 82t9.5 134.5v238q0 80 -9.5 134.5t-28 82t-39.5 38.5t-50 11q-82 0 -156 -80zM123 1114h237v-135h5q38 59 116 107.5t158 48.5q147 0 215 -111t68 -332v-270q0 -220 -67.5 -331t-215.5 -111q-52 0 -108.5 27
t-149.5 95v-495h-258v1507z" />
    <glyph glyph-name="q" unicode="q" 
d="M643 252v610q-74 80 -156 80q-29 0 -50 -11t-39.5 -38.5t-28 -82t-9.5 -134.5v-238q0 -80 9.5 -134.5t28 -82t39.5 -38.5t50 -11q82 0 156 80zM664 1114h237v-1507h-258v495q-93 -68 -149.5 -95t-108.5 -27q-148 0 -215.5 111t-67.5 331v270q0 221 68 332t215 111
q80 0 158 -48.5t116 -107.5h5v135z" />
    <glyph glyph-name="r" unicode="r" horiz-adv-x="681" 
d="M381 0h-258v1114h252v-147h4q45 86 108.5 127t157.5 41v-279q-104 29 -137 29q-59 0 -93 -37.5t-34 -85.5v-762z" />
    <glyph glyph-name="s" unicode="s" horiz-adv-x="909" 
d="M827 856l-213 -82q-26 75 -72 113.5t-106 38.5q-44 0 -74 -29t-30 -72q0 -35 28 -64.5t72 -53.5t98 -49t108 -56t98 -68.5t72 -93.5t28 -123q0 -161 -102 -249t-269 -88q-66 0 -115.5 11t-104.5 42.5t-105 97t-95 166.5l231 63q18 -80 66 -126t123 -46q58 0 91.5 26.5
t33.5 72.5q0 43 -28 76.5t-72 57.5t-98 47.5t-108 53.5t-98 67.5t-72 97.5t-28 136q0 101 51 173.5t129 105.5t172 33q141 0 240.5 -74.5t148.5 -204.5z" />
    <glyph glyph-name="t" unicode="t" horiz-adv-x="569" 
d="M115 856h-103v209h103v303h258v-303h166v-209h-166v-569q0 -40 31 -61t85 -21q36 0 52 2v-217q-61 -10 -148 -10q-278 0 -278 221v655z" />
    <glyph glyph-name="u" unicode="u" 
d="M643 1114h258v-1114h-250v127q-83 -72 -149.5 -109.5t-139.5 -37.5q-121 0 -180 67t-59 219v848h258v-819q0 -123 94 -123q25 0 56.5 16.5t54 34.5t57.5 49v842z" />
    <glyph glyph-name="v" unicode="v" horiz-adv-x="909" 
d="M283 1114l170 -717h4l170 717h258l-303 -1114h-254l-303 1114h258z" />
    <glyph glyph-name="w" unicode="w" horiz-adv-x="1366" 
d="M293 0l-266 1114h241l150 -696h4l149 696h222l157 -696h4l142 696h241l-262 -1114h-241l-158 696h-4l-137 -696h-242z" />
    <glyph glyph-name="x" unicode="x" horiz-adv-x="909" 
d="M317 573l-282 541h274l146 -319l149 319h275l-283 -543l301 -571h-274l-168 360l-168 -360h-275z" />
    <glyph glyph-name="y" unicode="y" horiz-adv-x="909" 
d="M66 -389v225q25 -4 75 -4q77 0 132 52t55 96q0 71 -47 235l-258 899h262l174 -737h4l162 737h262l-297 -1110q-60 -226 -155 -311.5t-288 -85.5q-23 0 -81 4z" />
    <glyph glyph-name="z" unicode="z" horiz-adv-x="909" 
d="M104 889v225h742v-221l-473 -668h473v-225h-783v221l465 668h-424z" />
    <glyph glyph-name="braceleft" unicode="{" horiz-adv-x="681" 
d="M535 1499v-123h-64q-56 0 -82.5 -29t-26.5 -96v-397q0 -160 -161 -186v-4q161 -26 161 -187v-401q0 -67 26.5 -96t82.5 -29h64v-123h-162q-94 0 -165 63t-71 181v403q0 71 -38.5 100t-106.5 29v123q68 0 106.5 29t38.5 100v399q0 118 71 181t165 63h162z" />
    <glyph glyph-name="bar" unicode="|" horiz-adv-x="454" 
d="M102 -20v1519h250v-1519h-250z" />
    <glyph glyph-name="braceright" unicode="}" horiz-adv-x="681" 
d="M147 -172v123h64q56 0 82 29t26 96v397q0 160 162 186v5q-162 26 -162 186v401q0 67 -26 96t-82 29h-64v123h162q94 0 165 -63t71 -181v-403q0 -71 38.5 -100t106.5 -29v-123q-68 0 -106.5 -29t-38.5 -100v-399q0 -118 -71 -181t-165 -63h-162z" />
    <glyph glyph-name="asciitilde" unicode="~" horiz-adv-x="1228" 
d="M1044 756l78 -201q-29 -42 -51.5 -69.5t-56.5 -58t-75.5 -45.5t-90.5 -15q-41 0 -84 12t-69.5 25t-73.5 38q-46 23 -78.5 36.5t-82.5 25.5t-100 12q-101 0 -174 -158l-80 197q99 190 277 190q65 0 159 -37.5t182 -74.5t138 -37q28 0 53 12.5t49.5 40.5t39 47.5t40.5 59.5
z" />
    <glyph glyph-name="uni00A0" unicode="&#xa0;" horiz-adv-x="569" 
 />
    <glyph glyph-name="exclamdown" unicode="&#xa1;" horiz-adv-x="569" 
d="M434 -365h-299l58 979h184zM139 1114h291v-291h-291v291z" />
    <glyph glyph-name="cent" unicode="&#xa2;" horiz-adv-x="1138" 
d="M395 276l158 633h-4q-80 0 -124 -33.5t-44 -97.5v-442q0 -35 14 -60zM981 729h-256v49q0 49 -33 82l-168 -653q8 -2 25 -2q176 0 176 131v70h258v-5q0 -217 -109 -319t-325 -102q-20 0 -70 4l-73 -271h-183l86 316q-186 98 -186 372v312q0 217 108 319.5t318 102.5
q38 0 63 -5l70 254h182l-80 -294q194 -82 197 -361z" />
    <glyph glyph-name="sterling" unicode="&#xa3;" horiz-adv-x="1138" 
d="M229 651h-196v180h170q-31 171 -31 269q0 96 34 173t92 126t132.5 74.5t159.5 25.5q243 0 360 -114t117 -324h-258q-8 103 -52.5 158t-142.5 55q-79 0 -125.5 -50t-46.5 -134q0 -77 31 -259h270v-180h-245q0 -63 -13.5 -176t-38.5 -172q68 -44 126 -67t128 -23
q74 0 107 57.5t39 175.5h246q0 -79 -8.5 -142t-33 -125.5t-65 -104.5t-107.5 -68t-157 -26q-106 0 -179 25t-206 108q-84 -74 -144.5 -103.5t-144.5 -29.5v249q92 3 140.5 94t48.5 238q0 32 -7 90z" />
    <glyph glyph-name="currency" unicode="&#xa4;" horiz-adv-x="1138" 
d="M1100 328l-119 -119l-117 119q-49 -47 -128 -74t-167 -27t-167 27t-128 74l-116 -119l-119 119l115 114q-44 54 -68.5 132t-24.5 165t24.5 165t68.5 132l-115 115l119 119l116 -119q49 47 128 73.5t167 26.5t167 -26.5t128 -73.5l117 119l119 -119l-115 -115
q44 -54 68 -132t24 -165t-24 -165t-68 -132zM848 739q0 130 -76 216.5t-203 86.5t-202.5 -86.5t-75.5 -216.5t75.5 -216.5t202.5 -86.5t203 86.5t76 216.5z" />
    <glyph glyph-name="yen" unicode="&#xa5;" horiz-adv-x="1138" 
d="M1022 926v-181h-258l-66 -147h324v-180h-332v-418h-241v418h-332v180h323l-65 147h-258v181h176l-256 553h250l286 -660l279 660h250l-256 -553h176z" />
    <glyph glyph-name="brokenbar" unicode="&#xa6;" horiz-adv-x="454" 
d="M102 -20v581h250v-581h-250zM102 918v581h250v-581h-250z" />
    <glyph glyph-name="section" unicode="&#xa7;" 
d="M823 1335l-139 -110q-86 102 -168 102q-41 0 -68.5 -24.5t-27.5 -61.5q0 -43 51.5 -104t124.5 -126t146 -135t124.5 -153.5t51.5 -159.5q0 -96 -62 -155.5t-162 -77.5q107 -116 107 -240q0 -122 -85.5 -192t-209.5 -70q-63 0 -111.5 12t-88.5 39.5t-65.5 52.5t-64.5 70
l139 109q24 -47 73 -79t112 -32q43 0 73.5 27t30.5 71q0 47 -51.5 113.5t-124.5 135t-146 139t-124.5 145.5t-51.5 135q0 130 54.5 190t158.5 76q-50 61 -73 111.5t-23 118.5q0 99 79 168t196 69q104 0 180.5 -39t144.5 -125zM721 555q0 26 -26.5 61.5t-110.5 126.5
q-142 154 -201 154q-32 0 -55.5 -21.5t-24.5 -54.5q0 -31 27 -73.5t100 -118.5q156 -164 211 -164q37 0 58.5 26t21.5 64z" />
    <glyph glyph-name="dieresis" unicode="&#xa8;" horiz-adv-x="569" 
d="M-33 1499h246v-233h-246v233zM356 1499h246v-233h-246v233z" />
    <glyph glyph-name="copyright" unicode="&#xa9;" horiz-adv-x="1638" 
d="M819 -20q-123 0 -239 32.5t-214.5 97.5t-172.5 155t-116 212t-42 262t42 262t116 212t172.5 155t214.5 98t239 33t239 -33t214.5 -98t173 -155t116.5 -212t42 -262q0 -174 -65 -319t-174 -240t-250 -147.5t-296 -52.5zM1370 739q0 168 -75 301.5t-200.5 206t-275.5 72.5
q-114 0 -215.5 -42.5t-175.5 -118t-117 -184.5t-43 -235t43 -235t117 -184t175.5 -117.5t215.5 -42.5q112 0 213 42.5t175.5 117.5t118.5 184t44 235zM1032 625h185q-24 -152 -127 -237t-240 -85q-190 0 -307 125.5t-117 316.5q0 195 113.5 319t306.5 124q141 0 239.5 -80.5
t122.5 -230.5h-176q-13 67 -64 99t-122 32q-99 0 -153 -69t-54 -189q0 -116 58.5 -191.5t152.5 -75.5q78 0 126.5 35.5t55.5 106.5z" />
    <glyph glyph-name="ordfeminine" unicode="&#xaa;" horiz-adv-x="614" 
d="M217 1284h-184q8 113 90 168q70 47 186 47q248 0 248 -203v-424q0 -21 8 -53h-176q-1 2 -10 66q-71 -78 -193 -78q-77 0 -121.5 40.5t-44.5 119.5q0 45 19 83.5t49 66.5t78 53t95.5 42.5t111.5 36.5v45q0 62 -70 62q-37 0 -61.5 -21t-24.5 -51zM373 1004v118
q-40 -16 -63 -26.5t-51 -27t-41 -35t-13 -40.5q0 -26 16.5 -38.5t40.5 -12.5q69 0 111 62z" />
    <glyph glyph-name="guillemotleft" unicode="&#xab;" horiz-adv-x="1138" 
d="M791 229l-250 328l250 328h225l-250 -328l250 -328h-225zM373 229l-250 328l250 328h225l-250 -328l250 -328h-225z" />
    <glyph glyph-name="logicalnot" unicode="&#xac;" horiz-adv-x="1228" 
d="M922 182v500h-865v250h1114v-750h-249z" />
    <glyph glyph-name="uni00AD" unicode="&#xad;" horiz-adv-x="681" 
d="M592 444h-504v226h504v-226z" />
    <glyph glyph-name="registered" unicode="&#xae;" horiz-adv-x="1638" 
d="M690 666v-342h-180v833h313q171 0 256.5 -57.5t85.5 -194.5q0 -109 -56 -161.5t-151 -59.5l193 -360h-199l-178 342h-84zM690 1010v-197h158q75 0 102 24t27 87q0 48 -34.5 67t-125.5 19h-127zM819 -20q-123 0 -239 32.5t-214.5 97.5t-172.5 155t-116 212t-42 262t42 262
t116 212t172.5 155t214.5 98t239 33t239 -33t214.5 -98t173 -155t116.5 -212t42 -262q0 -174 -65 -319t-174 -240t-250 -147.5t-296 -52.5zM1370 739q0 168 -75 301.5t-200.5 206t-275.5 72.5q-114 0 -215.5 -42.5t-175.5 -118t-117 -184.5t-43 -235t43 -235t117 -184
t175.5 -117.5t215.5 -42.5q112 0 213 42.5t175.5 117.5t118.5 184t44 235z" />
    <glyph glyph-name="macron" unicode="&#xaf;" horiz-adv-x="569" 
d="M641 1311h-713v151h713v-151z" />
    <glyph glyph-name="degree" unicode="&#xb0;" horiz-adv-x="819" 
d="M410 1028q73 0 120.5 51.5t47.5 126.5t-47.5 126.5t-120.5 51.5t-120.5 -51.5t-47.5 -126.5t47.5 -126.5t120.5 -51.5zM410 913q-124 0 -209.5 85t-85.5 208t85.5 208t209.5 85t209.5 -85t85.5 -208t-85.5 -208t-209.5 -85z" />
    <glyph glyph-name="plusminus" unicode="&#xb1;" horiz-adv-x="1228" 
d="M489 840v274h250v-274h432v-250h-432v-275h-250v275h-432v250h432zM57 0v250h1114v-250h-1114z" />
    <glyph glyph-name="twosuperior" unicode="&#xb2;" horiz-adv-x="681" 
d="M637 598h-606v154q153 135 228.5 203.5t128 126.5t66 88.5t13.5 66.5q0 48 -30 79.5t-89 31.5q-63 0 -96 -30.5t-33 -74.5v-33h-184v43q0 101 82 173.5t217 72.5q145 0 231 -67t86 -191q0 -58 -24.5 -115t-72 -111t-89 -93.5t-105 -92.5t-90.5 -79h367v-152z" />
    <glyph glyph-name="threesuperior" unicode="&#xb3;" horiz-adv-x="681" 
d="M20 860h185q0 -65 31.5 -94t101.5 -29q62 0 97.5 33.5t35.5 89.5q0 72 -44.5 101.5t-141.5 29.5v152q87 0 124 24t37 86q0 39 -31 67t-83 28q-45 0 -75 -29t-32 -72h-184q3 124 86 191q79 61 207 61q133 0 215 -62.5t82 -176.5q0 -61 -30 -114.5t-85 -80.5
q139 -50 139 -213q0 -127 -88.5 -196.5t-224.5 -69.5q-159 0 -240.5 73t-81.5 201z" />
    <glyph glyph-name="acute" unicode="&#xb4;" horiz-adv-x="569" 
d="M301 1548h317l-301 -299h-206z" />
    <glyph glyph-name="mu" unicode="&#xb5;" 
d="M643 1114h258v-1114h-250v127q-79 -68 -140.5 -105t-129.5 -42v-373h-258v1507h258v-819q0 -123 94 -123q25 0 56.5 16.5t54 34.5t57.5 49v842z" />
    <glyph glyph-name="paragraph" unicode="&#xb6;" horiz-adv-x="1138" 
d="M389 -172v930q-172 0 -270.5 95t-98.5 259q0 186 104.5 276.5t334.5 90.5h659v-172h-139v-1479h-225v1479h-140v-1479h-225z" />
    <glyph glyph-name="periodcentered" unicode="&#xb7;" horiz-adv-x="569" 
d="M285 713q67 0 111 -47t44 -109t-44 -109t-111 -47t-111.5 47t-44.5 109t44.5 109t111.5 47z" />
    <glyph glyph-name="cedilla" unicode="&#xb8;" horiz-adv-x="569" 
d="M4 -416l39 86q107 -35 154 -35q44 0 79 20t35 60q0 33 -24.5 54.5t-59.5 21.5q-30 0 -92 -16l-43 41l121 184h109l-86 -125l4 -4q21 14 63 14q73 0 128.5 -44.5t55.5 -114.5q0 -50 -23.5 -88.5t-62 -60.5t-83 -33t-91.5 -11q-96 0 -223 51z" />
    <glyph glyph-name="onesuperior" unicode="&#xb9;" horiz-adv-x="681" 
d="M293 598v676h-137v110q87 17 124 42t70 73h127v-901h-184z" />
    <glyph glyph-name="ordmasculine" unicode="&#xba;" horiz-adv-x="614" 
d="M41 1061v186q0 252 266 252t266 -252v-186q0 -254 -266 -254t-266 254zM225 1270v-234q0 -78 82 -78t82 78v234q0 78 -82 78q-44 0 -64 -19.5t-18 -58.5z" />
    <glyph glyph-name="guillemotright" unicode="&#xbb;" horiz-adv-x="1138" 
d="M598 557l-250 -328h-225l250 328l-250 328h225zM1016 557l-250 -328h-225l250 328l-250 328h225z" />
    <glyph glyph-name="onequarter" unicode="&#xbc;" horiz-adv-x="1708" 
d="M1106 377h209v268h-4zM909 377l408 510h182v-510h135v-144h-135v-233h-184v233h-406v144zM301 598v676h-137v110q87 17 124 42t70 73h127v-901h-184zM313 -20l830 1519h196l-829 -1519h-197z" />
    <glyph glyph-name="onehalf" unicode="&#xbd;" horiz-adv-x="1708" 
d="M301 598v676h-137v110q87 17 124 42t70 73h127v-901h-184zM1620 0h-606v154q153 135 228.5 203.5t128 126.5t66 88.5t13.5 66.5q0 48 -30 79.5t-89 31.5q-63 0 -96 -30.5t-33 -74.5v-33h-184v43q0 101 82 173.5t217 72.5q145 0 231 -67t86 -191q0 -58 -24.5 -115
t-72 -111t-89 -93.5t-105 -92.5t-90.5 -79h367v-152zM276 -20l830 1519h197l-830 -1519h-197z" />
    <glyph glyph-name="threequarters" unicode="&#xbe;" horiz-adv-x="1708" 
d="M1106 377h209v268h-4zM909 377l408 510h182v-510h135v-144h-135v-233h-184v233h-406v144zM74 860h184q0 -65 31.5 -94t101.5 -29q62 0 97.5 33.5t35.5 89.5q0 72 -44.5 101.5t-141.5 29.5v152q87 0 124.5 24t37.5 86q0 39 -31.5 67t-83.5 28q-45 0 -74.5 -29t-31.5 -72
h-185q3 124 86 191q79 61 207 61q133 0 215 -62.5t82 -176.5q0 -61 -30 -114.5t-85 -80.5q140 -51 140 -213q0 -127 -89 -196.5t-225 -69.5q-159 0 -240 73t-81 201zM354 -20l830 1519h196l-829 -1519h-197z" />
    <glyph glyph-name="questiondown" unicode="&#xbf;" horiz-adv-x="909" 
d="M653 4l236 -65q-38 -153 -147 -238.5t-265 -85.5q-100 0 -185.5 38.5t-141.5 119.5t-56 190q0 44 24 98t50.5 91.5t73.5 99.5q50 63 74 96t48.5 83.5t24.5 88.5v103h225v-201q0 -32 -41 -99.5t-90 -132t-90 -136t-41 -111.5q0 -51 39 -85t90 -34q62 0 114.5 56t57.5 124z
M356 1114h291v-291h-291v291z" />
    <glyph glyph-name="Agrave" unicode="&#xc0;" horiz-adv-x="1138" 
d="M569 1159l-139 -598h281l-138 598h-4zM299 0h-272l366 1479h363l356 -1479h-270l-72 311h-391zM236 1862h317l190 -299h-206z" />
    <glyph glyph-name="Aacute" unicode="&#xc1;" horiz-adv-x="1138" 
d="M569 1159l-139 -598h281l-138 598h-4zM299 0h-272l366 1479h363l356 -1479h-270l-72 311h-391zM586 1862h317l-301 -299h-207z" />
    <glyph glyph-name="Acircumflex" unicode="&#xc2;" horiz-adv-x="1138" 
d="M569 1159l-139 -598h281l-138 598h-4zM299 0h-272l366 1479h363l356 -1479h-270l-72 311h-391zM440 1862h258l234 -299h-232l-131 168l-131 -168h-231z" />
    <glyph glyph-name="Atilde" unicode="&#xc3;" horiz-adv-x="1138" 
d="M569 1159l-139 -598h281l-138 598h-4zM299 0h-272l366 1479h363l356 -1479h-270l-72 311h-391zM811 1837h133q-11 -53 -26.5 -94t-41.5 -77.5t-66 -56.5t-93 -20q-58 0 -157.5 36t-143.5 36q-36 0 -60 -24t-32 -62h-129q17 108 75.5 179t159.5 71q60 0 158.5 -38
t126.5 -38q36 0 62 25t34 63z" />
    <glyph glyph-name="Adieresis" unicode="&#xc4;" horiz-adv-x="1138" 
d="M569 1159l-139 -598h281l-138 598h-4zM299 0h-272l366 1479h363l356 -1479h-270l-72 311h-391zM252 1812h246v-233h-246v233zM641 1812h246v-233h-246v233z" />
    <glyph glyph-name="Aring" unicode="&#xc5;" horiz-adv-x="1138" 
d="M569 1159l-139 -598h281l-138 598h-4zM299 0h-272l366 1479h363l356 -1479h-270l-72 311h-391zM567 1550q-91 0 -154 64t-63 155q0 90 63.5 155t153.5 65q89 0 155 -65.5t66 -154.5q0 -90 -65.5 -154.5t-155.5 -64.5zM567 1878q-45 0 -75.5 -32t-30.5 -77q0 -46 30 -77
t76 -31q45 0 78 31.5t33 76.5q0 44 -33.5 76.5t-77.5 32.5z" />
    <glyph glyph-name="AE" unicode="&#xc6;" horiz-adv-x="2048" 
d="M954 1253l-319 -643h356v643h-37zM332 0h-303l757 1479h1090v-250h-602v-340h452v-250h-452v-389h627v-250h-910v360h-483z" />
    <glyph glyph-name="Ccedilla" unicode="&#xc7;" horiz-adv-x="1138" 
d="M385 1040v-602q0 -117 46.5 -163t137.5 -46t138 46.5t47 162.5v99h282v-62q0 -481 -444 -495l-72 -105l4 -4q21 14 64 14q73 0 128.5 -44.5t55.5 -114.5q0 -50 -23.5 -88.5t-62 -60.5t-83 -33t-91.5 -11q-96 0 -223 51l39 86q107 -35 153 -35q44 0 79.5 20t35.5 60
q0 33 -24.5 54.5t-59.5 21.5q-30 0 -92 -16l-43 41l110 168q-385 42 -385 491v529q0 495 467 495t467 -495v-5h-282v41q0 116 -47 162.5t-138 46.5t-137.5 -46t-46.5 -163z" />
    <glyph glyph-name="Egrave" unicode="&#xc8;" 
d="M922 0h-795v1479h774v-250h-491v-340h374v-250h-374v-389h512v-250zM178 1862h318l190 -299h-207z" />
    <glyph glyph-name="Eacute" unicode="&#xc9;" 
d="M922 0h-795v1479h774v-250h-491v-340h374v-250h-374v-389h512v-250zM528 1862h318l-301 -299h-207z" />
    <glyph glyph-name="Ecircumflex" unicode="&#xca;" 
d="M922 0h-795v1479h774v-250h-491v-340h374v-250h-374v-389h512v-250zM383 1862h258l233 -299h-231l-131 168l-131 -168h-231z" />
    <glyph glyph-name="Edieresis" unicode="&#xcb;" 
d="M922 0h-795v1479h774v-250h-491v-340h374v-250h-374v-389h512v-250zM195 1812h245v-233h-245v233zM584 1812h245v-233h-245v233z" />
    <glyph glyph-name="Igrave" unicode="&#xcc;" horiz-adv-x="569" 
d="M426 0h-283v1479h283v-1479zM-49 1862h317l191 -299h-207z" />
    <glyph glyph-name="Iacute" unicode="&#xcd;" horiz-adv-x="569" 
d="M426 0h-283v1479h283v-1479zM301 1862h317l-301 -299h-206z" />
    <glyph glyph-name="Icircumflex" unicode="&#xce;" horiz-adv-x="569" 
d="M426 0h-283v1479h283v-1479zM156 1862h258l233 -299h-231l-131 168l-131 -168h-232z" />
    <glyph glyph-name="Idieresis" unicode="&#xcf;" horiz-adv-x="569" 
d="M426 0h-283v1479h283v-1479zM-33 1812h246v-233h-246v233zM356 1812h246v-233h-246v233z" />
    <glyph glyph-name="Eth" unicode="&#xd0;" horiz-adv-x="1138" 
d="M16 639v250h111v590h393q251 0 379 -120t137 -392v-455q-9 -272 -137 -392t-379 -120h-393v639h-111zM590 889v-250h-180v-389h98q123 0 184.5 67.5t61.5 227.5v389q0 157 -57 226t-189 69h-98v-340h180z" />
    <glyph glyph-name="Ntilde" unicode="&#xd1;" horiz-adv-x="1251" 
d="M401 0h-258v1479h310l393 -877h4v877h258v-1479h-270l-432 954h-5v-954zM868 1837h133q-11 -53 -26.5 -94t-41.5 -77.5t-66 -56.5t-93 -20q-58 0 -157.5 36t-143.5 36q-36 0 -60 -24t-32 -62h-129q17 108 75.5 179t159.5 71q60 0 158.5 -38t126.5 -38q36 0 62 25t34 63z
" />
    <glyph glyph-name="Ograve" unicode="&#xd2;" horiz-adv-x="1138" 
d="M102 475v529q0 495 467 495t467 -495v-529q0 -495 -467 -495t-467 495zM385 1040v-602q0 -117 46.5 -163t137.5 -46t138 46.5t47 162.5v602q0 116 -47 162.5t-138 46.5t-137.5 -46t-46.5 -163zM236 1862h317l190 -299h-206z" />
    <glyph glyph-name="Oacute" unicode="&#xd3;" horiz-adv-x="1138" 
d="M102 475v529q0 495 467 495t467 -495v-529q0 -495 -467 -495t-467 495zM385 1040v-602q0 -117 46.5 -163t137.5 -46t138 46.5t47 162.5v602q0 116 -47 162.5t-138 46.5t-137.5 -46t-46.5 -163zM586 1862h317l-301 -299h-207z" />
    <glyph glyph-name="Ocircumflex" unicode="&#xd4;" horiz-adv-x="1138" 
d="M102 475v529q0 495 467 495t467 -495v-529q0 -495 -467 -495t-467 495zM385 1040v-602q0 -117 46.5 -163t137.5 -46t138 46.5t47 162.5v602q0 116 -47 162.5t-138 46.5t-137.5 -46t-46.5 -163zM440 1862h258l234 -299h-232l-131 168l-131 -168h-231z" />
    <glyph glyph-name="Otilde" unicode="&#xd5;" horiz-adv-x="1138" 
d="M102 475v529q0 495 467 495t467 -495v-529q0 -495 -467 -495t-467 495zM385 1040v-602q0 -117 46.5 -163t137.5 -46t138 46.5t47 162.5v602q0 116 -47 162.5t-138 46.5t-137.5 -46t-46.5 -163zM811 1837h133q-11 -53 -26.5 -94t-41.5 -77.5t-66 -56.5t-93 -20
q-58 0 -157.5 36t-143.5 36q-36 0 -60 -24t-32 -62h-129q17 108 75.5 179t159.5 71q60 0 158.5 -38t126.5 -38q36 0 62 25t34 63z" />
    <glyph glyph-name="Odieresis" unicode="&#xd6;" horiz-adv-x="1138" 
d="M102 475v529q0 495 467 495t467 -495v-529q0 -495 -467 -495t-467 495zM385 1040v-602q0 -117 46.5 -163t137.5 -46t138 46.5t47 162.5v602q0 116 -47 162.5t-138 46.5t-137.5 -46t-46.5 -163zM252 1812h246v-233h-246v233zM641 1812h246v-233h-246v233z" />
    <glyph glyph-name="multiply" unicode="&#xd7;" horiz-adv-x="1228" 
d="M438 559l-381 381l179 174l378 -379l381 379l176 -174l-380 -383l380 -381l-176 -176l-381 381l-378 -381l-179 176l381 381v2z" />
    <glyph glyph-name="Oslash" unicode="&#xd8;" horiz-adv-x="1138" 
d="M389 537l332 647q-41 65 -152 65q-91 0 -137.5 -46t-46.5 -163v-503h4zM750 887l-316 -613q40 -45 135 -45q91 0 138 46.5t47 162.5v449h-4zM913 1577h213l-149 -287q59 -112 59 -286v-529q0 -495 -467 -495q-149 0 -245 51l-99 -191h-213l166 320q-76 118 -76 315v529
q0 495 467 495q163 0 271 -61z" />
    <glyph glyph-name="Ugrave" unicode="&#xd9;" horiz-adv-x="1251" 
d="M143 1479h283v-1035q0 -215 199 -215q200 0 200 215v1035h283v-1037q0 -236 -127.5 -349t-355.5 -113t-355 113t-127 349v1037zM293 1862h317l191 -299h-207z" />
    <glyph glyph-name="Uacute" unicode="&#xda;" horiz-adv-x="1251" 
d="M143 1479h283v-1035q0 -215 199 -215q200 0 200 215v1035h283v-1037q0 -236 -127.5 -349t-355.5 -113t-355 113t-127 349v1037zM643 1862h318l-302 -299h-206z" />
    <glyph glyph-name="Ucircumflex" unicode="&#xdb;" horiz-adv-x="1251" 
d="M143 1479h283v-1035q0 -215 199 -215q200 0 200 215v1035h283v-1037q0 -236 -127.5 -349t-355.5 -113t-355 113t-127 349v1037zM498 1862h258l233 -299h-231l-131 168l-131 -168h-232z" />
    <glyph glyph-name="Udieresis" unicode="&#xdc;" horiz-adv-x="1251" 
d="M143 1479h283v-1035q0 -215 199 -215q200 0 200 215v1035h283v-1037q0 -236 -127.5 -349t-355.5 -113t-355 113t-127 349v1037zM309 1812h246v-233h-246v233zM698 1812h246v-233h-246v233z" />
    <glyph glyph-name="Yacute" unicode="&#xdd;" horiz-adv-x="1138" 
d="M326 1479l247 -596l240 596h301l-403 -881v-598h-283v598l-403 881h301zM586 1862h317l-301 -299h-207z" />
    <glyph glyph-name="Thorn" unicode="&#xde;" horiz-adv-x="1138" 
d="M426 0h-283v1479h283v-271h125q257 0 387.5 -114.5t130.5 -327.5t-130.5 -327.5t-387.5 -114.5h-125v-324zM426 975v-418h152q208 0 208 209t-208 209h-152z" />
    <glyph glyph-name="germandbls" unicode="&#xdf;" 
d="M381 0h-258v1071q0 95 18.5 166.5t61.5 127.5t120 85t187 29q177 0 272 -106.5t95 -305.5q0 -79 -35 -153t-99 -109q108 -58 150.5 -154.5t42.5 -257.5q0 -198 -84 -305.5t-219 -107.5q-79 0 -150 30v234q40 -19 82 -19q59 0 86 48t27 155q0 63 -7.5 106.5t-28 79
t-59.5 53t-98 17.5v209q69 3 107.5 50t38.5 130q0 180 -135 180q-57 0 -86 -34.5t-29 -85.5v-1133z" />
    <glyph glyph-name="agrave" unicode="&#xe0;" 
d="M356 788h-258q14 177 138 267q108 80 276 80q196 0 287.5 -90t91.5 -248v-707q0 -39 14 -90h-258q-3 16 -8.5 52.5t-9.5 56.5q-129 -129 -307 -129q-120 0 -188 67t-68 199q0 75 29 138t76.5 109t124 87t154 70t183.5 61v82q0 68 -36.5 100.5t-96.5 32.5
q-59 0 -101.5 -39.5t-42.5 -98.5zM633 274v271q-85 -29 -150 -63.5t-112 -86t-47 -106.5t30.5 -86t83.5 -31q55 0 99.5 25.5t95.5 76.5zM178 1548h318l190 -299h-207z" />
    <glyph glyph-name="aacute" unicode="&#xe1;" 
d="M356 788h-258q14 177 138 267q108 80 276 80q196 0 287.5 -90t91.5 -248v-707q0 -39 14 -90h-258q-3 16 -8.5 52.5t-9.5 56.5q-129 -129 -307 -129q-120 0 -188 67t-68 199q0 75 29 138t76.5 109t124 87t154 70t183.5 61v82q0 68 -36.5 100.5t-96.5 32.5
q-59 0 -101.5 -39.5t-42.5 -98.5zM633 274v271q-85 -29 -150 -63.5t-112 -86t-47 -106.5t30.5 -86t83.5 -31q55 0 99.5 25.5t95.5 76.5zM528 1548h318l-301 -299h-207z" />
    <glyph glyph-name="acircumflex" unicode="&#xe2;" 
d="M356 788h-258q14 177 138 267q108 80 276 80q196 0 287.5 -90t91.5 -248v-707q0 -39 14 -90h-258q-3 16 -8.5 52.5t-9.5 56.5q-129 -129 -307 -129q-120 0 -188 67t-68 199q0 75 29 138t76.5 109t124 87t154 70t183.5 61v82q0 68 -36.5 100.5t-96.5 32.5
q-59 0 -101.5 -39.5t-42.5 -98.5zM633 274v271q-85 -29 -150 -63.5t-112 -86t-47 -106.5t30.5 -86t83.5 -31q55 0 99.5 25.5t95.5 76.5zM383 1548h258l233 -299h-231l-131 168l-131 -168h-231z" />
    <glyph glyph-name="atilde" unicode="&#xe3;" 
d="M356 788h-258q14 177 138 267q108 80 276 80q196 0 287.5 -90t91.5 -248v-707q0 -39 14 -90h-258q-3 16 -8.5 52.5t-9.5 56.5q-129 -129 -307 -129q-120 0 -188 67t-68 199q0 75 29 138t76.5 109t124 87t154 70t183.5 61v82q0 68 -36.5 100.5t-96.5 32.5
q-59 0 -101.5 -39.5t-42.5 -98.5zM633 274v271q-85 -29 -150 -63.5t-112 -86t-47 -106.5t30.5 -86t83.5 -31q55 0 99.5 25.5t95.5 76.5zM754 1524h133q-11 -53 -27 -94t-41.5 -77.5t-66 -56.5t-93.5 -20q-58 0 -157.5 36t-143.5 36q-36 0 -60 -24t-32 -62h-129
q17 107 75.5 178t160.5 71q60 0 158 -37.5t126 -37.5q36 0 62.5 25t34.5 63z" />
    <glyph glyph-name="adieresis" unicode="&#xe4;" 
d="M356 788h-258q14 177 138 267q108 80 276 80q196 0 287.5 -90t91.5 -248v-707q0 -39 14 -90h-258q-3 16 -8.5 52.5t-9.5 56.5q-129 -129 -307 -129q-120 0 -188 67t-68 199q0 75 29 138t76.5 109t124 87t154 70t183.5 61v82q0 68 -36.5 100.5t-96.5 32.5
q-59 0 -101.5 -39.5t-42.5 -98.5zM633 274v271q-85 -29 -150 -63.5t-112 -86t-47 -106.5t30.5 -86t83.5 -31q55 0 99.5 25.5t95.5 76.5zM195 1499h245v-233h-245v233zM584 1499h245v-233h-245v233z" />
    <glyph glyph-name="aring" unicode="&#xe5;" 
d="M356 788h-258q14 177 138 267q108 80 276 80q196 0 287.5 -90t91.5 -248v-707q0 -39 14 -90h-258q-3 16 -8.5 52.5t-9.5 56.5q-129 -129 -307 -129q-120 0 -188 67t-68 199q0 75 29 138t76.5 109t124 87t154 70t183.5 61v82q0 68 -36.5 100.5t-96.5 32.5
q-59 0 -101.5 -39.5t-42.5 -98.5zM633 274v271q-85 -29 -150 -63.5t-112 -86t-47 -106.5t30.5 -86t83.5 -31q55 0 99.5 25.5t95.5 76.5zM510 1237q-91 0 -154 64t-63 155q0 90 63.5 154.5t153.5 64.5q89 0 155 -65t66 -154q0 -90 -65.5 -154.5t-155.5 -64.5zM510 1565
q-45 0 -76 -32t-31 -77q0 -46 30.5 -77t76.5 -31q45 0 78 31.5t33 76.5q0 44 -33.5 76.5t-77.5 32.5z" />
    <glyph glyph-name="ae" unicode="&#xe6;" horiz-adv-x="1593" 
d="M647 274v271q-45 -17 -84.5 -35.5t-79 -43.5t-68 -51.5t-46 -59t-17.5 -66.5q0 -55 31 -86t84 -31q101 0 180 102zM1466 496h-561v-148q0 -80 42 -120t110 -40q77 0 114 43t37 113h258q-9 -174 -113 -269t-296 -95q-122 0 -207.5 45t-130.5 98q-117 -89 -198 -116
t-171 -27q-120 0 -188 67t-68 199q0 75 29.5 138.5t75.5 109t121.5 87t149.5 70t177 60.5v82q0 133 -119 133q-59 0 -101 -39.5t-42 -98.5h-258q6 89 42 158t90.5 109t117.5 60t131 20q95 0 171.5 -33.5t123.5 -93.5q113 127 274 127q167 0 278 -105.5t111 -273.5v-260z
M905 705h303v61q0 76 -37.5 118t-113.5 42t-114 -42t-38 -118v-61z" />
    <glyph glyph-name="ccedilla" unicode="&#xe7;" 
d="M920 729h-256v49q0 63 -41.5 97t-110.5 34t-110.5 -34t-41.5 -97v-442q0 -63 41.5 -97t110.5 -34t110.5 34t41.5 97v70h258v-5q0 -408 -387 -421l-72 -105l4 -4q21 14 63 14q73 0 129 -44.5t56 -114.5q0 -50 -23.5 -88.5t-62 -60.5t-83 -33t-91.5 -11q-97 0 -224 51
l39 86q107 -35 154 -35q44 0 79.5 20t35.5 60q0 33 -24.5 54.5t-59.5 21.5q-31 0 -93 -16l-43 41l111 168q-328 40 -328 417v312q0 422 410 422q402 0 408 -406z" />
    <glyph glyph-name="egrave" unicode="&#xe8;" 
d="M922 496h-562v-148q0 -80 42 -120t110 -40q77 0 114.5 43t37.5 113h258q-9 -174 -113.5 -269t-296.5 -95q-186 0 -298 106.5t-112 288.5v364q0 182 112 289t298 107q181 0 295.5 -105t114.5 -274v-260zM360 705h304v61q0 76 -38 118t-114 42t-114 -42t-38 -118v-61z
M178 1548h318l190 -299h-207z" />
    <glyph glyph-name="eacute" unicode="&#xe9;" 
d="M922 496h-562v-148q0 -80 42 -120t110 -40q77 0 114.5 43t37.5 113h258q-9 -174 -113.5 -269t-296.5 -95q-186 0 -298 106.5t-112 288.5v364q0 182 112 289t298 107q181 0 295.5 -105t114.5 -274v-260zM360 705h304v61q0 76 -38 118t-114 42t-114 -42t-38 -118v-61z
M528 1548h318l-301 -299h-207z" />
    <glyph glyph-name="ecircumflex" unicode="&#xea;" 
d="M922 496h-562v-148q0 -80 42 -120t110 -40q77 0 114.5 43t37.5 113h258q-9 -174 -113.5 -269t-296.5 -95q-186 0 -298 106.5t-112 288.5v364q0 182 112 289t298 107q181 0 295.5 -105t114.5 -274v-260zM360 705h304v61q0 76 -38 118t-114 42t-114 -42t-38 -118v-61z
M383 1548h258l233 -299h-231l-131 168l-131 -168h-231z" />
    <glyph glyph-name="edieresis" unicode="&#xeb;" 
d="M922 496h-562v-148q0 -80 42 -120t110 -40q77 0 114.5 43t37.5 113h258q-9 -174 -113.5 -269t-296.5 -95q-186 0 -298 106.5t-112 288.5v364q0 182 112 289t298 107q181 0 295.5 -105t114.5 -274v-260zM360 705h304v61q0 76 -38 118t-114 42t-114 -42t-38 -118v-61z
M195 1499h245v-233h-245v233zM584 1499h245v-233h-245v233z" />
    <glyph glyph-name="igrave" unicode="&#xec;" horiz-adv-x="569" 
d="M414 0h-258v1114h258v-1114zM-49 1548h317l191 -299h-207z" />
    <glyph glyph-name="iacute" unicode="&#xed;" horiz-adv-x="569" 
d="M414 0h-258v1114h258v-1114zM301 1548h317l-301 -299h-206z" />
    <glyph glyph-name="icircumflex" unicode="&#xee;" horiz-adv-x="569" 
d="M414 0h-258v1114h258v-1114zM156 1548h258l233 -299h-231l-131 168l-131 -168h-232z" />
    <glyph glyph-name="idieresis" unicode="&#xef;" horiz-adv-x="569" 
d="M414 0h-258v1114h258v-1114zM-33 1499h246v-233h-246v233zM356 1499h246v-233h-246v233z" />
    <glyph glyph-name="eth" unicode="&#xf0;" 
d="M360 717v-389q0 -59 41.5 -91t110.5 -32t110.5 32t41.5 91v389q0 60 -41 91.5t-111 31.5t-111 -31.5t-41 -91.5zM360 1450l242 29q17 -18 66 -76l221 76l61 -152l-186 -65q158 -270 158 -594v-293q0 -395 -410 -395t-410 395v293q0 397 410 397q51 0 88 -8
q-14 61 -51 131l-225 -78l-62 152l195 67q-6 8 -97 121z" />
    <glyph glyph-name="ntilde" unicode="&#xf1;" 
d="M381 0h-258v1114h250v-127q83 73 149.5 110.5t139.5 37.5q121 0 180 -67.5t59 -219.5v-848h-258v819q0 123 -94 123q-25 0 -56.5 -16.5t-54 -34.5t-57.5 -49v-842zM754 1524h133q-11 -53 -27 -94t-41.5 -77.5t-66 -56.5t-93.5 -20q-58 0 -157.5 36t-143.5 36
q-36 0 -60 -24t-32 -62h-129q17 107 75.5 178t160.5 71q60 0 158 -37.5t126 -37.5q36 0 62.5 25t34.5 63z" />
    <glyph glyph-name="ograve" unicode="&#xf2;" 
d="M102 401v312q0 422 410 422t410 -422v-312q0 -421 -410 -421t-410 421zM360 778v-442q0 -63 41.5 -97t110.5 -34t110.5 34t41.5 97v442q0 63 -41.5 97t-110.5 34t-110.5 -34t-41.5 -97zM178 1548h318l190 -299h-207z" />
    <glyph glyph-name="oacute" unicode="&#xf3;" 
d="M102 401v312q0 422 410 422t410 -422v-312q0 -421 -410 -421t-410 421zM360 778v-442q0 -63 41.5 -97t110.5 -34t110.5 34t41.5 97v442q0 63 -41.5 97t-110.5 34t-110.5 -34t-41.5 -97zM528 1548h318l-301 -299h-207z" />
    <glyph glyph-name="ocircumflex" unicode="&#xf4;" 
d="M102 401v312q0 422 410 422t410 -422v-312q0 -421 -410 -421t-410 421zM360 778v-442q0 -63 41.5 -97t110.5 -34t110.5 34t41.5 97v442q0 63 -41.5 97t-110.5 34t-110.5 -34t-41.5 -97zM383 1548h258l233 -299h-231l-131 168l-131 -168h-231z" />
    <glyph glyph-name="otilde" unicode="&#xf5;" 
d="M102 401v312q0 422 410 422t410 -422v-312q0 -421 -410 -421t-410 421zM360 778v-442q0 -63 41.5 -97t110.5 -34t110.5 34t41.5 97v442q0 63 -41.5 97t-110.5 34t-110.5 -34t-41.5 -97zM754 1524h133q-11 -53 -27 -94t-41.5 -77.5t-66 -56.5t-93.5 -20q-58 0 -157.5 36
t-143.5 36q-36 0 -60 -24t-32 -62h-129q17 107 75.5 178t160.5 71q60 0 158 -37.5t126 -37.5q36 0 62.5 25t34.5 63z" />
    <glyph glyph-name="odieresis" unicode="&#xf6;" 
d="M102 401v312q0 422 410 422t410 -422v-312q0 -421 -410 -421t-410 421zM360 778v-442q0 -63 41.5 -97t110.5 -34t110.5 34t41.5 97v442q0 63 -41.5 97t-110.5 34t-110.5 -34t-41.5 -97zM195 1499h245v-233h-245v233zM584 1499h245v-233h-245v233z" />
    <glyph glyph-name="divide" unicode="&#xf7;" horiz-adv-x="1228" 
d="M1171 432h-1114v250h1114v-250zM418 1014q0 79 58 136.5t138 57.5q77 0 135 -58t58 -136q0 -74 -58.5 -134.5t-132.5 -60.5q-82 0 -140 57.5t-58 137.5zM418 100q0 81 58 138t138 57q77 0 135 -58t58 -137q0 -73 -58.5 -133.5t-132.5 -60.5q-81 0 -139.5 58t-58.5 136z
" />
    <glyph glyph-name="oslash" unicode="&#xf8;" 
d="M365 428l241 457q-37 24 -94 24q-69 0 -110.5 -34t-41.5 -97v-350h5zM659 649l-227 -428q32 -16 80 -16q69 0 110.5 34t41.5 97v313h-5zM319 12l-129 -241h-182l180 335q-86 103 -86 295v312q0 422 410 422q124 0 209 -39l104 194h183l-160 -299q74 -100 74 -278v-312
q0 -421 -410 -421q-119 0 -193 32z" />
    <glyph glyph-name="ugrave" unicode="&#xf9;" 
d="M643 1114h258v-1114h-250v127q-83 -72 -149.5 -109.5t-139.5 -37.5q-121 0 -180 67t-59 219v848h258v-819q0 -123 94 -123q25 0 56.5 16.5t54 34.5t57.5 49v842zM160 1548h317l191 -299h-207z" />
    <glyph glyph-name="uacute" unicode="&#xfa;" 
d="M643 1114h258v-1114h-250v127q-83 -72 -149.5 -109.5t-139.5 -37.5q-121 0 -180 67t-59 219v848h258v-819q0 -123 94 -123q25 0 56.5 16.5t54 34.5t57.5 49v842zM510 1548h317l-301 -299h-207z" />
    <glyph glyph-name="ucircumflex" unicode="&#xfb;" 
d="M643 1114h258v-1114h-250v127q-83 -72 -149.5 -109.5t-139.5 -37.5q-121 0 -180 67t-59 219v848h258v-819q0 -123 94 -123q25 0 56.5 16.5t54 34.5t57.5 49v842zM365 1548h258l233 -299h-231l-131 168l-132 -168h-231z" />
    <glyph glyph-name="udieresis" unicode="&#xfc;" 
d="M643 1114h258v-1114h-250v127q-83 -72 -149.5 -109.5t-139.5 -37.5q-121 0 -180 67t-59 219v848h258v-819q0 -123 94 -123q25 0 56.5 16.5t54 34.5t57.5 49v842zM176 1499h246v-233h-246v233zM565 1499h246v-233h-246v233z" />
    <glyph glyph-name="yacute" unicode="&#xfd;" horiz-adv-x="909" 
d="M66 -389v225q25 -4 75 -4q77 0 132 52t55 96q0 71 -47 235l-258 899h262l174 -737h4l162 737h262l-297 -1110q-60 -226 -155 -311.5t-288 -85.5q-23 0 -81 4zM471 1548h317l-301 -299h-206z" />
    <glyph glyph-name="thorn" unicode="&#xfe;" 
d="M381 862v-610q74 -80 156 -80q29 0 50 11t39.5 38.5t28 82t9.5 134.5v238q0 80 -9.5 134.5t-28 82t-39.5 38.5t-50 11q-82 0 -156 -80zM123 1479h254v-480h4q26 44 103 90t155 46q147 0 215 -111t68 -332v-270q0 -220 -67.5 -331t-215.5 -111q-52 0 -108.5 27t-149.5 95
v-495h-258v1872z" />
    <glyph glyph-name="ydieresis" unicode="&#xff;" horiz-adv-x="909" 
d="M66 -389v225q25 -4 75 -4q77 0 132 52t55 96q0 71 -47 235l-258 899h262l174 -737h4l162 737h262l-297 -1110q-60 -226 -155 -311.5t-288 -85.5q-23 0 -81 4zM137 1499h246v-233h-246v233zM526 1499h246v-233h-246v233z" />
    <glyph glyph-name="dotlessi" unicode="&#x131;" horiz-adv-x="569" 
d="M414 0h-258v1114h258v-1114z" />
    <glyph glyph-name="Lslash" unicode="&#x141;" horiz-adv-x="909" 
d="M410 647v-397h454v-250h-737v532l-127 -51v238l127 51v709h283v-594l333 135l-2 -238z" />
    <glyph glyph-name="lslash" unicode="&#x142;" horiz-adv-x="569" 
d="M414 772v-772h-258v641l-152 -76v193l152 76v645h258v-514l151 75v-192z" />
    <glyph glyph-name="OE" unicode="&#x152;" horiz-adv-x="1933" 
d="M401 893v-307q0 -201 65 -279t226 -78q130 0 180 65t50 202v487q0 137 -50 201.5t-180 64.5q-161 0 -226 -77.5t-65 -278.5zM1204 1229v-340h457v-250h-457v-389h627v-250h-846q-87 0 -172 -10q-127 -10 -188 -10q-231 0 -368.5 154t-137.5 425v391q0 271 156.5 410
t424.5 139q122 0 232 -10q157 -10 211 -10h669v-250h-608z" />
    <glyph glyph-name="oe" unicode="&#x153;" horiz-adv-x="1593" 
d="M360 778v-442q0 -63 41.5 -97t110.5 -34t110.5 34t41.5 97v442q0 63 -41.5 97t-110.5 34t-110.5 -34t-41.5 -97zM1491 496h-569v-148q0 -79 45 -119.5t114 -40.5q77 0 114.5 43t37.5 113h258q-9 -174 -113.5 -269t-296.5 -95q-92 0 -166 40t-120 107q-97 -147 -295 -147
q-191 0 -294.5 103t-103.5 318v312q0 215 103.5 318.5t294.5 103.5q197 0 295 -148q47 68 123 108t176 40q172 0 284.5 -105.5t112.5 -273.5v-260zM922 705h311v61q0 76 -38 118t-114 42q-77 0 -118 -42.5t-41 -117.5v-61z" />
    <glyph glyph-name="Scaron" unicode="&#x160;" horiz-adv-x="1138" 
d="M1006 1141l-254 -74q-35 104 -84.5 151.5t-122.5 47.5q-74 0 -115 -43t-41 -119q0 -45 35 -84.5t90.5 -72t122.5 -67.5t134.5 -79t123 -96.5t90.5 -131t35 -172.5q0 -193 -125.5 -307t-345.5 -114q-178 0 -303 101.5t-180 313.5l278 60q23 -123 85 -182.5t134 -59.5
q76 0 125 47.5t49 128.5q0 56 -35 104t-90.5 84t-123 72t-134.5 77t-122.5 88.5t-90.5 117t-35 153.5q0 194 114.5 304t330.5 110q183 0 300 -97.5t155 -260.5zM698 1563h-258l-233 299h231l131 -168l131 168h232z" />
    <glyph glyph-name="scaron" unicode="&#x161;" horiz-adv-x="909" 
d="M827 856l-213 -82q-26 75 -72 113.5t-106 38.5q-44 0 -74 -29t-30 -72q0 -35 28 -64.5t72 -53.5t98 -49t108 -56t98 -68.5t72 -93.5t28 -123q0 -161 -102 -249t-269 -88q-66 0 -115.5 11t-104.5 42.5t-105 97t-95 166.5l231 63q18 -80 66 -126t123 -46q58 0 91.5 26.5
t33.5 72.5q0 43 -28 76.5t-72 57.5t-98 47.5t-108 53.5t-98 67.5t-72 97.5t-28 136q0 101 51 173.5t129 105.5t172 33q141 0 240.5 -74.5t148.5 -204.5zM584 1249h-258l-234 299h232l131 -168l131 168h231z" />
    <glyph glyph-name="Ydieresis" unicode="&#x178;" horiz-adv-x="1138" 
d="M326 1479l247 -596l240 596h301l-403 -881v-598h-283v598l-403 881h301zM252 1812h246v-233h-246v233zM641 1812h246v-233h-246v233z" />
    <glyph glyph-name="Zcaron" unicode="&#x17d;" 
d="M125 1229v250h819v-238l-559 -991h571v-250h-888v240l559 989h-502zM641 1563h-258l-233 299h231l131 -168l131 168h231z" />
    <glyph glyph-name="zcaron" unicode="&#x17e;" horiz-adv-x="909" 
d="M104 889v225h742v-221l-473 -668h473v-225h-783v221l465 668h-424zM584 1249h-258l-234 299h232l131 -168l131 168h231z" />
    <glyph glyph-name="florin" unicode="&#x192;" horiz-adv-x="1138" 
d="M53 -371l33 211q50 -24 107 -24q100 0 133 174l145 760h-201v180h244q55 318 141 443.5t258 125.5q71 0 152 -24l-37 -205q-46 20 -90 20q-68 -3 -106.5 -81t-67.5 -279h203v-180h-238l-131 -674q-13 -66 -26 -115t-34 -107.5t-50 -99t-68 -76t-94 -53.5t-123 -18
q-93 0 -150 22z" />
    <glyph glyph-name="circumflex" unicode="&#x2c6;" horiz-adv-x="569" 
d="M156 1548h258l233 -299h-231l-131 168l-131 -168h-232z" />
    <glyph glyph-name="caron" unicode="&#x2c7;" horiz-adv-x="569" 
d="M414 1249h-258l-234 299h232l131 -168l131 168h231z" />
    <glyph glyph-name="uni02C9" unicode="&#x2c9;" horiz-adv-x="569" 
d="M641 1311h-713v151h713v-151z" />
    <glyph glyph-name="breve" unicode="&#x2d8;" horiz-adv-x="569" 
d="M494 1544h135q-20 -151 -112 -225t-247 -74q-148 0 -233.5 76t-95.5 223h131q15 -143 213 -143q89 0 142 31.5t67 111.5z" />
    <glyph glyph-name="dotaccent" unicode="&#x2d9;" horiz-adv-x="569" 
d="M162 1499h246v-233h-246v233z" />
    <glyph glyph-name="ring" unicode="&#x2da;" horiz-adv-x="569" 
d="M283 1237q-91 0 -154 64t-63 155q0 90 63.5 154.5t153.5 64.5q89 0 155 -65t66 -154q0 -90 -65.5 -154.5t-155.5 -64.5zM283 1565q-45 0 -76 -32t-31 -77q0 -46 30.5 -77t76.5 -31q45 0 77.5 31.5t32.5 76.5q0 44 -33 76.5t-77 32.5z" />
    <glyph glyph-name="ogonek" unicode="&#x2db;" horiz-adv-x="569" 
d="M528 43v-25q-41 -15 -73 -29t-75 -39t-72 -50.5t-49.5 -62t-20.5 -75.5q0 -49 31 -77.5t77 -28.5q30 0 71 17t63 30.5t63 40.5l41 -70q-85 -56 -158.5 -88t-151.5 -32q-92 0 -152.5 48.5t-60.5 137.5q0 44 18 83t45.5 66.5t70 51.5t81 39t89.5 28.5t85.5 20.5t77.5 14z
" />
    <glyph glyph-name="tilde" unicode="&#x2dc;" horiz-adv-x="569" 
d="M526 1524h133q-11 -53 -26.5 -94t-41.5 -77.5t-66 -56.5t-93 -20q-58 0 -157.5 36t-143.5 36q-36 0 -60 -24t-32 -62h-129q17 108 75.5 178.5t159.5 70.5q60 0 158.5 -37.5t126.5 -37.5q36 0 62 25t34 63z" />
    <glyph glyph-name="hungarumlaut" unicode="&#x2dd;" horiz-adv-x="569" 
d="M121 1548h309l-289 -299h-198zM489 1548h318l-301 -299h-207z" />
    <glyph glyph-name="uni03A9" unicode="&#x3a9;" horiz-adv-x="1445" 
d="M362 199v6q-109 104 -181 259t-72 343q0 140 45.5 265t126 216.5t196.5 145t250 53.5q114 0 212.5 -38.5t169.5 -104t121.5 -151t75.5 -180.5t25 -192q0 -193 -74 -354.5t-182 -261.5v-6h285v-199h-529v145q110 74 183 232t73 391q-1 135 -40.5 249.5t-123.5 189.5
t-198 75q-110 0 -195 -68t-130.5 -186.5t-45.5 -267.5q0 -218 74 -382.5t180 -232.5v-145h-528v199h282z" />
    <glyph glyph-name="uni03BC" unicode="&#x3bc;" 
d="M643 1114h258v-1114h-250v127q-79 -68 -140.5 -105t-129.5 -42v-373h-258v1507h258v-819q0 -123 94 -123q25 0 56.5 16.5t54 34.5t57.5 49v842z" />
    <glyph glyph-name="pi" unicode="&#x3c0;" horiz-adv-x="1218" 
d="M1169 891h-147v-584q0 -185 27 -307h-234q-35 65 -35 297v594h-297q-9 -202 -46.5 -471t-88.5 -420h-235q52 178 90 441t41 450q-132 0 -203 -23l-29 164q86 66 328 66h848z" />
    <glyph glyph-name="uni2010" unicode="&#x2010;" horiz-adv-x="681" 
d="M592 444h-504v226h504v-226z" />
    <glyph glyph-name="endash" unicode="&#x2013;" 
d="M1024 471h-1024v172h1024v-172z" />
    <glyph glyph-name="emdash" unicode="&#x2014;" horiz-adv-x="2048" 
d="M2048 471h-2048v172h2048v-172z" />
    <glyph glyph-name="quoteleft" unicode="&#x2018;" horiz-adv-x="454" 
d="M354 1499l-104 -303h123v-291h-291v291l129 303h143z" />
    <glyph glyph-name="quoteright" unicode="&#x2019;" horiz-adv-x="454" 
d="M100 885l105 303h-123v291h291v-291l-129 -303h-144z" />
    <glyph glyph-name="quotesinglbase" unicode="&#x201a;" horiz-adv-x="454" 
d="M100 -303l105 303h-123v291h291v-291l-129 -303h-144z" />
    <glyph glyph-name="quotedblleft" unicode="&#x201c;" horiz-adv-x="909" 
d="M354 1499l-104 -303h123v-291h-291v291l129 303h143zM809 1499l-104 -303h122v-291h-290v291l129 303h143z" />
    <glyph glyph-name="quotedblright" unicode="&#x201d;" horiz-adv-x="909" 
d="M100 885l105 303h-123v291h291v-291l-129 -303h-144zM555 885l104 303h-122v291h290v-291l-129 -303h-143z" />
    <glyph glyph-name="quotedblbase" unicode="&#x201e;" horiz-adv-x="909" 
d="M100 -303l105 303h-123v291h291v-291l-129 -303h-144zM555 -303l104 303h-122v291h290v-291l-129 -303h-143z" />
    <glyph glyph-name="dagger" unicode="&#x2020;" 
d="M135 956v197l332 -55l-53 401h196l-53 -401l332 55v-197l-326 56l51 -348q-10 -82 -20 -195t-15.5 -194.5t-14.5 -225.5t-13 -201h-78q-4 57 -13 201t-14.5 225.5t-15.5 194.5t-20 195l51 348z" />
    <glyph glyph-name="daggerdbl" unicode="&#x2021;" 
d="M410 674l51 362l-326 -55v197l332 -56l-53 377h196l-53 -377l332 56v-197l-326 55l51 -362l-51 -363l326 56v-197l-332 55l53 -377h-196l53 377l-332 -55v197l326 -56z" />
    <glyph glyph-name="bullet" unicode="&#x2022;" 
d="M141 739q0 154 107.5 261.5t261.5 107.5t262.5 -107.5t108.5 -261.5t-108.5 -262t-262.5 -108t-261.5 108t-107.5 262z" />
    <glyph glyph-name="ellipsis" unicode="&#x2026;" horiz-adv-x="2048" 
d="M487 0h-290v291h290v-291zM1851 0h-290v291h290v-291zM1169 0h-290v291h290v-291z" />
    <glyph glyph-name="perthousand" unicode="&#x2030;" horiz-adv-x="2048" 
d="M332 1479q126 0 214.5 -89t88.5 -214t-88.5 -214.5t-214.5 -89.5t-214.5 89.5t-88.5 214.5t88.5 214t214.5 89zM332 1311q-58 0 -96.5 -39t-38.5 -96t38.5 -96.5t96.5 -39.5t96.5 39.5t38.5 96.5t-38.5 96t-96.5 39zM977 438q-58 0 -96.5 -39t-38.5 -96t38.5 -96
t96.5 -39t96.5 39t38.5 96t-38.5 96t-96.5 39zM977 606q126 0 214.5 -89t88.5 -214t-88.5 -214t-214.5 -89t-214.5 89t-88.5 214t88.5 214t214.5 89zM1716 438q-58 0 -96.5 -39t-38.5 -96t38.5 -96t96.5 -39t96.5 39t38.5 96t-38.5 96t-96.5 39zM1716 606q126 0 214.5 -89
t88.5 -214t-88.5 -214t-214.5 -89t-214.5 89t-88.5 214t88.5 214t214.5 89zM156 -20l835 1519h158l-836 -1519h-157z" />
    <glyph glyph-name="guilsinglleft" unicode="&#x2039;" horiz-adv-x="681" 
d="M78 557l250 328h225l-250 -328l250 -328h-225z" />
    <glyph glyph-name="guilsinglright" unicode="&#x203a;" horiz-adv-x="681" 
d="M604 557l-250 -328h-225l250 328l-250 328h225z" />
    <glyph glyph-name="fraction" unicode="&#x2044;" horiz-adv-x="342" 
d="M-342 -20l829 1519h197l-829 -1519h-197z" />
    <glyph glyph-name="Euro" unicode="&#x20ac;" horiz-adv-x="1138" 
d="M913 801h-438v-148h389l-57 -180h-332v-10q0 -118 61.5 -184t176.5 -66q100 0 174 17.5t147 66.5v-242q-137 -71 -342 -71q-213 0 -341 119t-128 311v59h-162l58 180h104v148h-162l58 180h104v98q0 124 67 220.5t179.5 148t249.5 51.5q104 0 203 -31t176 -92l-74 -231
q-65 59 -148.5 90t-168.5 31q-107 0 -169.5 -67.5t-62.5 -162.5v-55h496z" />
    <glyph glyph-name="afii61289" unicode="&#x2113;" horiz-adv-x="1038" 
d="M901 373l100 -103q-143 -282 -415 -282q-90 0 -159 28t-111.5 78t-66 112t-30.5 136v25q-97 -80 -108 -88l-62 131q15 12 44 36t45 37.5t38.5 33.5t40.5 38v539q0 263 101 393.5t257 130.5q138 0 208.5 -102t70.5 -265q0 -178 -103.5 -357.5t-299.5 -373.5v-90
q1 -121 54 -185.5t134 -64.5q79 0 146.5 55.5t115.5 137.5zM451 1094v-349q251 294 251 515q0 89 -27 135.5t-89 46.5q-36 0 -64.5 -29t-49.5 -110.5t-21 -208.5z" />
    <glyph glyph-name="trademark" unicode="&#x2122;" horiz-adv-x="2048" 
d="M1212 1479l193 -512l190 512h314v-844h-217v573h-4l-201 -573h-166l-201 573h-4v-573h-217v844h313zM764 1479v-172h-236v-672h-229v672h-233v172h698z" />
    <glyph glyph-name="Omega" unicode="&#x2126;" horiz-adv-x="1445" 
d="M362 199v6q-109 104 -181 259t-72 343q0 140 45.5 265t126 216.5t196.5 145t250 53.5q114 0 212.5 -38.5t169.5 -104t121.5 -151t75.5 -180.5t25 -192q0 -193 -74 -354.5t-182 -261.5v-6h285v-199h-529v145q110 74 183 232t73 391q-1 135 -40.5 249.5t-123.5 189.5
t-198 75q-110 0 -195 -68t-130.5 -186.5t-45.5 -267.5q0 -218 74 -382.5t180 -232.5v-145h-528v199h282z" />
    <glyph glyph-name="estimated" unicode="&#x212e;" horiz-adv-x="1832" 
d="M1759 719h-1366q-12 0 -12 -10v-414q0 -26 18 -47q102 -106 235.5 -165.5t280.5 -59.5q160 0 301 67t244 184h121q-115 -134 -291 -213t-377 -79q-229 0 -422.5 101t-306 274.5t-112.5 379.5q0 155 66.5 296.5t179 243.5t268.5 162t327 60q173 0 329.5 -60t270 -162
t180 -243t66.5 -297v-18zM1448 772v416q0 31 -18 49q-103 101 -235.5 159t-279.5 58q-146 0 -278.5 -59.5t-235.5 -163.5q-20 -20 -20 -51v-408q0 -4 3.5 -9t8.5 -5h1047q8 0 8 14z" />
    <glyph glyph-name="partialdiff" unicode="&#x2202;" horiz-adv-x="1167" 
d="M213 1356l-70 182q147 119 367 119q112 0 210.5 -50t176.5 -146t123 -250.5t45 -348.5q0 -262 -65.5 -457.5t-194.5 -305t-307 -109.5q-82 0 -152 29t-118 78t-82 113t-50 133t-16 140q0 123 35 226.5t95 173.5t140.5 108.5t171.5 38.5q59 0 113 -18.5t91 -46.5t61 -54.5
t38 -50.5h4v74q0 141 -43.5 260t-124 190.5t-182.5 71.5q-148 0 -266 -100zM522 193h2q76 0 138.5 70.5t97.5 171.5t47 216q-9 28 -29 58.5t-50 59t-72.5 47t-88.5 18.5q-105 0 -176.5 -107.5t-71.5 -251.5q0 -122 55.5 -202t147.5 -80z" />
    <glyph glyph-name="uni2206" unicode="&#x2206;" horiz-adv-x="1337" 
d="M57 0v145l475 1352h285l463 -1347v-150h-1223zM303 197h719l-234 647q-14 49 -59.5 190t-58.5 191h-8q-9 -41 -52 -171t-57 -180z" />
    <glyph glyph-name="product" unicode="&#x220f;" horiz-adv-x="1470" 
d="M1415 1243h-209v-1446h-239v1446h-467v-1446h-238v1446h-211v221h1364v-221z" />
    <glyph glyph-name="summation" unicode="&#x2211;" horiz-adv-x="1140" 
d="M1100 -203h-1053v158l506 678l-485 661v170h997v-207h-674v-6l432 -579l-479 -641v-6h756v-228z" />
    <glyph glyph-name="minus" unicode="&#x2212;" horiz-adv-x="1228" 
d="M1171 432h-1114v250h1114v-250z" />
    <glyph glyph-name="uni2215" unicode="&#x2215;" horiz-adv-x="342" 
d="M-342 -20l829 1519h197l-829 -1519h-197z" />
    <glyph glyph-name="uni2219" unicode="&#x2219;" horiz-adv-x="569" 
d="M285 713q67 0 111 -47t44 -109t-44 -109t-111 -47t-111.5 47t-44.5 109t44.5 109t111.5 47z" />
    <glyph glyph-name="radical" unicode="&#x221a;" horiz-adv-x="1210" 
d="M1221 1755l-459 -2050h-195l-307 928l-154 -60l-38 138l335 135l222 -682q20 -94 39 -176l2 -2q3 15 13.5 81t18.5 107l355 1581h168z" />
    <glyph glyph-name="infinity" unicode="&#x221e;" horiz-adv-x="1607" 
d="M1507 606v-2q0 -159 -98 -255.5t-231 -96.5q-95 0 -183 53t-188 182q-96 -116 -183 -175.5t-202 -59.5q-131 0 -226.5 97.5t-95.5 244.5q0 154 96.5 252t243.5 98q108 0 196.5 -59.5t176.5 -171.5q84 94 116 122q122 111 261 109q137 0 227 -94t90 -244zM440 387h2
q29 0 56 7.5t55 25.5t47 32t48 44.5t41.5 44.5t41.5 49q-81 106 -116 140q-86 83 -183 83q-89 0 -140.5 -62.5t-51.5 -158.5q0 -86 56.5 -145.5t143.5 -59.5zM1176 813h-2q-36 0 -70.5 -13t-69 -42t-54.5 -48t-55 -59.5t-42 -48.5q100 -122 162 -168.5t139 -46.5
q84 0 134 64.5t50 142.5q0 97 -53 158t-139 61z" />
    <glyph glyph-name="integral" unicode="&#x222b;" horiz-adv-x="804" 
d="M758 1782l-27 -168q-32 18 -74 18q-65 0 -102 -53q-32 -41 -44.5 -126.5t-12.5 -229.5q0 -165 14 -496.5t14 -519.5q0 -288 -77 -422q-37 -72 -105.5 -106.5t-148.5 -34.5q-96 0 -154 32l33 174q50 -22 88 -22q62 0 90 43q59 81 59 334q0 190 -15 528.5t-15 511.5
q0 182 28 290.5t92 178.5q41 45 103.5 68.5t130.5 23.5q73 0 123 -24z" />
    <glyph glyph-name="approxequal" unicode="&#x2248;" horiz-adv-x="1132" 
d="M961 934l88 -78q-48 -97 -118.5 -154t-156.5 -57q-59 0 -107 18t-126 64q-56 36 -95 53t-84 17q-33 0 -61 -11.5t-52.5 -36t-40 -45.5t-38.5 -57l-90 78q47 95 125.5 153t169.5 58q21 0 40 -2t39 -8.5t32.5 -10t33 -14.5t26 -13.5t27.5 -16t23 -13.5q6 -4 22.5 -14
t22 -13t19.5 -11t20 -11t18 -8.5t19.5 -7.5t18 -4.5t20.5 -3.5t20 -1q56 0 97.5 37t87.5 113zM961 555l88 -80q-49 -96 -120 -153.5t-157 -57.5q-57 0 -105.5 19t-125.5 65q-39 25 -60.5 37t-54.5 23.5t-64 11.5q-33 0 -61 -11.5t-52.5 -37t-39.5 -46t-39 -57.5l-90 78
q47 95 125.5 153t169.5 58q21 0 40.5 -2.5t38.5 -8t32.5 -10t32 -14t26.5 -13.5t26.5 -15t22.5 -13q9 -5 31 -18.5t31 -18.5t27.5 -14.5t30.5 -13t29 -7t33 -3.5q56 0 98 36.5t87 112.5z" />
    <glyph glyph-name="notequal" unicode="&#x2260;" horiz-adv-x="1132" 
d="M827 1065l-82 -186h287v-142h-340l-125 -284h465v-144h-518l-104 -235l-111 47l84 188h-283v144h336l125 284h-461v142h514l101 231z" />
    <glyph glyph-name="lessequal" unicode="&#x2264;" horiz-adv-x="1132" 
d="M1026 207l-915 465v153l915 463v-168l-774 -368v-4l774 -373v-168zM1034 -16h-932v143h932v-143z" />
    <glyph glyph-name="greaterequal" unicode="&#x2265;" horiz-adv-x="1132" 
d="M115 1288l915 -465v-151l-915 -465v168l772 370v5l-772 370v168zM1032 -16h-928v143h928v-143z" />
    <glyph glyph-name="lozenge" unicode="&#x25ca;" horiz-adv-x="1206" 
d="M1104 731l-408 -831h-194l-398 831l408 832h195zM889 725l-242 514q-30 84 -39 125h-6q-19 -76 -41 -125l-242 -502l244 -522q26 -77 35 -119h8q18 69 37 117z" />
    <glyph glyph-name="fi" unicode="&#xfb01;" 
d="M659 1065h259v-1065h-259v1065zM918 1257h-259v234h259v-234zM553 1487v-213h-74q-44 0 -66 -25.5t-22 -68.5v-115h154v-209h-154v-856h-258v856h-117v209h117v106q0 95 19.5 160t59 101.5t92 51.5t126.5 15q37 0 123 -12z" />
    <glyph glyph-name="fl" unicode="&#xfb02;" 
d="M659 0v1479h259v-1479h-259zM553 1487v-213h-74q-44 0 -66 -25.5t-22 -68.5v-115h154v-209h-154v-856h-258v856h-117v209h117v106q0 95 19.5 160t59 101.5t92 51.5t126.5 15q37 0 123 -12z" />
    <glyph glyph-name="a.superior" horiz-adv-x="614" 
d="M217 1284h-184q8 113 90 168q70 47 186 47q248 0 248 -203v-424q0 -21 8 -53h-176q-1 2 -10 66q-71 -78 -193 -78q-77 0 -121.5 40.5t-44.5 119.5q0 45 19 83.5t49 66.5t78 53t95.5 42.5t111.5 36.5v45q0 62 -70 62q-37 0 -61.5 -21t-24.5 -51zM373 1004v118
q-40 -16 -63 -26.5t-51 -27t-41 -35t-13 -40.5q0 -26 16.5 -38.5t40.5 -12.5q69 0 111 62z" />
    <glyph glyph-name="o.superior" horiz-adv-x="614" 
d="M41 1061v186q0 252 266 252t266 -252v-186q0 -254 -266 -254t-266 254zM225 1270v-234q0 -78 82 -78t82 78v234q0 78 -82 78q-44 0 -64 -19.5t-18 -58.5z" />
    <glyph glyph-name="one.superior" horiz-adv-x="681" 
d="M293 598v676h-137v110q87 17 124 42t70 73h127v-901h-184z" />
    <glyph glyph-name="two.superior" horiz-adv-x="681" 
d="M637 598h-606v154q153 135 228.5 203.5t128 126.5t66 88.5t13.5 66.5q0 48 -30 79.5t-89 31.5q-63 0 -96 -30.5t-33 -74.5v-33h-184v43q0 101 82 173.5t217 72.5q145 0 231 -67t86 -191q0 -58 -24.5 -115t-72 -111t-89 -93.5t-105 -92.5t-90.5 -79h367v-152z" />
    <glyph glyph-name="three.superior" horiz-adv-x="681" 
d="M20 860h185q0 -65 31.5 -94t101.5 -29q62 0 97.5 33.5t35.5 89.5q0 72 -44.5 101.5t-141.5 29.5v152q87 0 124 24t37 86q0 39 -31 67t-83 28q-45 0 -75 -29t-32 -72h-184q3 124 86 191q79 61 207 61q133 0 215 -62.5t82 -176.5q0 -61 -30 -114.5t-85 -80.5
q139 -50 139 -213q0 -127 -88.5 -196.5t-224.5 -69.5q-159 0 -240.5 73t-81.5 201z" />
    </font>
</defs>
</svg>
