<?xml version="1.0" standalone="no"?>
<!DOCTYPE svg PUBLIC "-//W3C//DTD SVG 1.1//EN" "http://www.w3.org/Graphics/SVG/1.1/DTD/svg11.dtd" >
<svg xmlns="http://www.w3.org/2000/svg" xmlns:xlink="http://www.w3.org/1999/xlink" version="1.1">
<metadata>
Created by FontForge 20170731 at Fri Jan 21 06:48:16 2022
 By Aleksey,,,
(c) 1989, 1990, 2002 Adobe Systems Incorporated. All rights reserved. (c) 1981, 2002 Heidelberger Druckmaschinen AG. All rights reserved.
</metadata>
<defs>
<font id="TradeGothicLTStd-Obl" horiz-adv-x="1024" >
  <font-face 
    font-family="Trade Gothic LT Std"
    font-weight="400"
    font-style="italic"
    font-stretch="normal"
    units-per-em="2048"
    panose-1="2 11 5 3 2 5 2 9 2 4"
    ascent="1479"
    descent="-569"
    x-height="1065"
    cap-height="1479"
    bbox="-346 -578 2259 1966"
    underline-thickness="102"
    underline-position="-307"
    slope="-12.5"
    unicode-range="U+0020-FB02"
  />
<missing-glyph horiz-adv-x="1339" 
d="M315 0v1434h1024v-1434h-1024zM827 809l349 522h-697zM889 717l348 -522v1044zM479 102h697l-349 523zM418 1239v-1044l348 522z" />
    <glyph glyph-name="f_i" unicode="fi" horiz-adv-x="1138" 
d="M356 0h-147l209 938h-180l26 127h180l27 121q21 94 50.5 155.5t71.5 96t90.5 48t117.5 13.5q27 0 129 -10l-29 -131q-10 1 -46.5 7.5t-55.5 6.5q-77 0 -114.5 -32t-57.5 -119l-35 -156h231l-26 -127h-232zM813 0l236 1065h147l-235 -1065h-148zM1145 1499h147l-39 -176
h-147z" />
    <glyph glyph-name="f_l" unicode="fl" horiz-adv-x="1138" 
d="M356 0h-147l209 938h-180l26 127h180l27 121q21 94 50.5 155.5t71.5 96t90.5 48t117.5 13.5q27 0 129 -10l-29 -131q-10 1 -46.5 7.5t-55.5 6.5q-77 0 -114.5 -32t-57.5 -119l-35 -156h231l-26 -127h-232zM1141 1479h147l-327 -1479h-148z" />
    <glyph glyph-name=".notdef" horiz-adv-x="1339" 
d="M315 0v1434h1024v-1434h-1024zM827 809l349 522h-697zM889 717l348 -522v1044zM479 102h697l-349 523zM418 1239v-1044l348 522z" />
    <glyph glyph-name=".null" horiz-adv-x="0" 
 />
    <glyph glyph-name="nonmarkingreturn" horiz-adv-x="682" 
 />
    <glyph glyph-name="space" unicode=" " horiz-adv-x="624" 
 />
    <glyph glyph-name="exclam" unicode="!" horiz-adv-x="681" 
d="M559 1479h217l-266 -1012h-131zM289 225h200l-49 -225h-200z" />
    <glyph glyph-name="quotedbl" unicode="&#x22;" horiz-adv-x="681" 
d="M360 926l123 553h127l-123 -553h-127zM604 926l123 553h127l-123 -553h-127z" />
    <glyph glyph-name="numbersign" unicode="#" horiz-adv-x="1251" 
d="M711 897l-111 -311h277l112 311h-278zM559 471l-168 -471h-127l168 471h-203l25 115h219l111 311h-203l27 115h219l166 467h127l-166 -467h278l164 467h127l-164 -467h193l-27 -115h-209l-112 -311h194l-24 -115h-211l-168 -471h-127l168 471h-277z" />
    <glyph glyph-name="dollar" unicode="$" horiz-adv-x="1251" 
d="M752 854l110 498q-120 3 -207.5 -60.5t-107.5 -165.5q-49 -217 205 -272zM848 659l-117 -532q118 6 218 75t124 175q6 29 6.5 55.5t-4 47.5t-15 40t-22 33.5t-30 28.5t-35 24t-40 20t-42 17t-43.5 16zM891 1479l35 157h139l-35 -157q116 -8 201.5 -78.5t124.5 -163.5
l-125 -86q-30 76 -91.5 131t-138.5 70l-118 -535q69 -24 121 -47.5t97 -52.5t71 -61t44.5 -73t17.5 -88t-11 -106q-25 -111 -105 -201t-190 -139t-226 -49l-55 -254h-139l55 254q-70 1 -132 25t-110 66t-82 83.5t-67 93.5l139 90q24 -53 61 -101t96.5 -87t123.5 -43l127 571
q-26 6 -50.5 14t-54.5 20t-55.5 26.5t-53 33.5t-47 41.5t-38.5 51.5t-26 61.5t-10 72t9 83.5q21 92 72 165.5t120 119t147.5 69t158.5 23.5z" />
    <glyph glyph-name="percent" unicode="%" horiz-adv-x="1820" 
d="M1384 127q92 0 167 59.5t96 153.5t-27.5 153.5t-140.5 59.5t-166 -59.5t-96 -153.5q-21 -94 27 -153.5t140 -59.5zM1356 0q-143 0 -220.5 98t-45.5 242t153 242t264 98t221 -98t46 -242t-153.5 -242t-264.5 -98zM641 799q-143 0 -220.5 98t-45.5 242t153.5 242t264.5 98
t220.5 -98t45.5 -242t-153.5 -242t-264.5 -98zM670 926q92 0 167 59.5t95 153.5q21 94 -27.5 153.5t-140.5 59.5t-166 -59.5t-96 -153.5q-20 -94 28 -153.5t140 -59.5zM420 -20l1186 1519h120l-1185 -1519h-121z" />
    <glyph glyph-name="ampersand" unicode="&#x26;" horiz-adv-x="1366" 
d="M725 1198q-23 -95 27 -264q103 58 185 135t99 154q14 66 -20 107.5t-92 41.5q-77 0 -130.5 -52.5t-68.5 -121.5zM1251 745l127 -32q-47 -117 -120.5 -241t-143.5 -200q35 -49 104.5 -87t112.5 -38l-33 -147h-53q-56 0 -131.5 43t-126.5 104q-194 -167 -459 -167
q-86 0 -159 30t-122 85t-68.5 133t1.5 175q52 245 420 447q-32 72 -44.5 165.5t5.5 188.5q30 129 138 212t259 83q131 0 201.5 -73t42.5 -201q-14 -61 -54.5 -120t-105 -113t-115.5 -90t-126 -83q68 -203 233 -446q48 48 110.5 153t106.5 219zM342 393q-15 -70 -1.5 -121.5
t50.5 -85.5t85.5 -50.5t103.5 -16.5q174 0 325 123q-173 270 -262 495q-60 -34 -101 -62.5t-85 -70t-72.5 -94t-42.5 -117.5z" />
    <glyph glyph-name="quotesingle" unicode="'" horiz-adv-x="454" 
d="M369 926l123 553h126l-122 -553h-127z" />
    <glyph glyph-name="parenleft" unicode="(" horiz-adv-x="681" 
d="M748 1499h159q-194 -202 -309.5 -401t-169.5 -441q-26 -114 -30 -224t12 -213.5t47 -198.5t78 -193h-152q-202 379 -100 840q51 226 169.5 438t295.5 393z" />
    <glyph glyph-name="parenright" unicode=")" horiz-adv-x="681" 
d="M227 -172h-159q196 202 311 401t168 441q26 114 30.5 224t-11.5 213.5t-47 198.5t-79 193h152q205 -378 100 -840q-50 -226 -168.5 -438t-296.5 -393z" />
    <glyph glyph-name="asterisk" unicode="*" 
d="M702 1114l-292 47l65 133l252 -133l14 8l23 310h137l-104 -305l12 -13l301 142l20 -138l-319 -63l-10 -17l170 -217l-129 -86l-90 275h-17l-209 -271l-88 80l264 234v14z" />
    <glyph glyph-name="plus" unicode="+" horiz-adv-x="1228" 
d="M684 596l102 469h127l-102 -469h469l-29 -127h-469l-104 -469h-127l104 469h-469l29 127h469z" />
    <glyph glyph-name="comma" unicode="," horiz-adv-x="624" 
d="M461 225l-49 -225l-197 -303h-86l164 303h-82l49 225h201z" />
    <glyph glyph-name="hyphen" unicode="-" horiz-adv-x="681" 
d="M702 469h-516l29 127h516z" />
    <glyph glyph-name="period" unicode="." horiz-adv-x="624" 
d="M260 225h201l-49 -225h-201z" />
    <glyph glyph-name="slash" unicode="/" horiz-adv-x="569" 
d="M793 1499h125l-816 -1519h-122z" />
    <glyph glyph-name="zero" unicode="0" horiz-adv-x="1251" 
d="M266 739q87 389 263.5 574.5t426.5 185.5q123 0 208 -43.5t134.5 -136t52.5 -236t-40 -344.5q-87 -389 -263.5 -574t-426.5 -185q-123 0 -208 43.5t-135 135.5t-52.5 235.5t40.5 344.5zM422 739q-52 -223 -39 -363.5t78.5 -205t187.5 -64.5q184 0 308 151t198 482
q52 223 39.5 363.5t-77.5 205t-187 64.5q-184 0 -309 -151.5t-199 -481.5z" />
    <glyph glyph-name="one" unicode="1" horiz-adv-x="1251" 
d="M973 0h-656l29 127h256l266 1202l-290 -29l20 97q15 4 55 15t58.5 16.5t52.5 15.5t54.5 17.5t44.5 17.5t42 20h148l-303 -1372h251z" />
    <glyph glyph-name="two" unicode="2" horiz-adv-x="1251" 
d="M1124 127l-28 -127h-961l35 156q74 104 167.5 194t181 151.5t178.5 118.5t169.5 107t144 103.5t111.5 122t64 149.5q29 129 -34 199.5t-204 70.5q-101 0 -190 -50.5t-144 -120.5t-86 -150l-139 32q187 416 590 416q123 0 214 -44.5t134 -135t16 -213.5
q-20 -92 -74.5 -174t-129 -147t-162 -125t-182.5 -120t-181 -119.5t-165.5 -136t-129.5 -157.5h805z" />
    <glyph glyph-name="three" unicode="3" horiz-adv-x="1251" 
d="M129 270l137 82q62 -117 150.5 -181.5t201.5 -64.5q162 0 271.5 77t140.5 210q35 161 -48 246.5t-298 85.5h-145l28 127h88q218 0 335.5 68.5t148.5 207.5q24 109 -40.5 176.5t-174.5 67.5q-66 0 -120 -13t-103 -43t-88 -62.5t-93 -86.5l-102 82q110 117 238 183.5
t294 66.5q198 0 290.5 -98t53.5 -271q-27 -124 -111 -206.5t-190 -120.5q260 -110 195 -393q-42 -191 -205.5 -310.5t-392.5 -119.5q-81 0 -152 19.5t-120 49t-88.5 70t-62.5 77t-38 74.5z" />
    <glyph glyph-name="four" unicode="4" horiz-adv-x="1251" 
d="M1237 348h-254l-78 -348h-147l78 348h-680l26 127l834 1004h217l-223 -1004h254zM1044 1323l-706 -848h524l189 848h-7z" />
    <glyph glyph-name="five" unicode="5" horiz-adv-x="1251" 
d="M1354 1479l-29 -127h-635l-141 -473q160 120 330 120q94 0 171 -31.5t130 -93.5t70 -156t-9 -218q-15 -71 -47 -141t-86.5 -139t-123.5 -122t-165 -85.5t-205 -32.5q-73 0 -133.5 16t-102 41.5t-76 64t-56 75.5t-41.5 85l149 70q34 -105 107.5 -165.5t185.5 -60.5
q101 0 186.5 39t154 130t97.5 225q37 165 -30 268.5t-219 103.5q-105 0 -198.5 -59t-162.5 -164l-123 29l244 801h758z" />
    <glyph glyph-name="six" unicode="6" horiz-adv-x="1251" 
d="M1362 1413l-92 -125q-44 43 -97 63.5t-135 20.5q-90 0 -178 -37.5t-168.5 -111t-145 -194.5t-100.5 -275q98 83 201.5 129.5t243.5 46.5q85 0 156.5 -29.5t122.5 -88.5t67.5 -148t-8.5 -209q-25 -114 -85.5 -206.5t-140 -150t-171 -88t-185.5 -30.5q-95 0 -168.5 22.5
t-129 73.5t-84 129t-28.5 194.5t33 264.5q39 176 111.5 327.5t172.5 265t231 178t276 64.5q112 0 192 -25.5t109 -60.5zM1073 451q36 163 -35 257.5t-196 94.5q-137 0 -276 -96t-175 -220q-20 -105 5 -191t94.5 -138t173.5 -52q154 0 264.5 95.5t144.5 249.5z" />
    <glyph glyph-name="seven" unicode="7" horiz-adv-x="1251" 
d="M1200 1352h-749l28 127h938l-20 -90l-932 -1389h-172z" />
    <glyph glyph-name="eight" unicode="8" horiz-adv-x="1251" 
d="M1249 385q-40 -178 -204 -291.5t-424 -113.5q-106 0 -190.5 20.5t-138.5 57t-88 87.5t-39.5 111.5t7.5 128.5q29 132 140 232.5t272 168.5l2 5q-114 46 -164 135t-25 204q40 176 194 272.5t365 96.5q138 0 236 -41t142.5 -125.5t17.5 -202.5q-25 -115 -114 -204
t-222 -135l-2 -5q130 -51 198 -154.5t37 -246.5zM328 385q-10 -33 -6 -66.5t15.5 -64.5t38.5 -58t63.5 -47t90.5 -31.5t119 -11.5q96 0 177.5 25t135 66t87 89t45.5 99q4 33 5 60.5t-11.5 53.5t-26.5 47t-40 42t-52 38t-62 34t-71 31t-78 30q-72 -28 -118.5 -48.5
t-106 -53.5t-96.5 -64.5t-67.5 -75.5t-41.5 -94zM1198 1139q13 59 -3.5 105t-56 73.5t-92.5 41t-116 13.5q-85 0 -161 -23t-136 -77.5t-78 -132.5q-12 -57 9 -106.5t65.5 -84t89.5 -57t94 -37.5q143 34 253 109t132 176z" />
    <glyph glyph-name="nine" unicode="9" horiz-adv-x="1251" 
d="M217 66l92 124q44 -42 98 -63t136 -21q184 0 347.5 162t242.5 457q-98 -83 -201.5 -129.5t-243.5 -46.5q-85 0 -156.5 29.5t-122.5 88.5t-67.5 148t8.5 209q25 114 85.5 206.5t140 150t171 88t185.5 30.5q95 0 168.5 -22.5t129 -73.5t84 -129t28.5 -194.5t-33 -264.5
q-39 -176 -111.5 -327.5t-172.5 -265t-231 -178t-276 -64.5q-112 0 -192 25.5t-109 60.5zM506 1028q-36 -163 35 -257.5t196 -94.5q131 0 249.5 76.5t189.5 197.5q40 194 -29.5 308t-228.5 114q-154 0 -266 -95.5t-146 -248.5z" />
    <glyph glyph-name="colon" unicode=":" horiz-adv-x="624" 
d="M412 0h-201l49 225h201zM543 594h-201l51 225h201z" />
    <glyph glyph-name="semicolon" unicode=";" horiz-adv-x="624" 
d="M461 225l-49 -225l-197 -303h-86l164 303h-82l49 225h201zM543 594h-201l51 225h201z" />
    <glyph glyph-name="less" unicode="&#x3c;" horiz-adv-x="1228" 
d="M1163 127l-28 -127l-936 475l26 115l1145 475l-27 -127l-983 -406z" />
    <glyph glyph-name="equal" unicode="=" horiz-adv-x="1228" 
d="M1325 805l-29 -127h-1065l29 127h1065zM1233 387l-29 -127h-1065l29 127h1065z" />
    <glyph glyph-name="greater" unicode="&#x3e;" horiz-adv-x="1228" 
d="M123 127l983 405l-803 406l27 127l936 -473l-27 -119l-1145 -473z" />
    <glyph glyph-name="question" unicode="?" horiz-adv-x="909" 
d="M555 467h-139l24 113q16 72 53 136t80.5 107.5t93.5 89.5t92.5 84.5t77 90.5t46.5 108q15 70 -15.5 123t-115.5 53q-71 0 -129.5 -36.5t-122.5 -121.5l-109 60q75 110 173.5 167.5t209.5 57.5q65 0 120 -20.5t93 -60t52 -97.5t-1 -133q-16 -73 -65 -142t-108.5 -123
t-118.5 -106t-106 -112.5t-60 -122.5zM326 225h200l-49 -225h-201z" />
    <glyph glyph-name="at" unicode="@" horiz-adv-x="1638" 
d="M692 631q-21 -92 3 -146.5t93 -54.5q67 0 139.5 40.5t129 101.5t98 132t55.5 134q20 93 -13 140.5t-93 47.5q-71 0 -142 -38.5t-124.5 -97.5t-92.5 -127.5t-53 -131.5zM1315 1012l67 123h138l-289 -564q-40 -87 -43 -100q-10 -51 33 -51q74 0 156.5 65t144.5 164t84 199
q27 124 3.5 221t-87 163.5t-158.5 101t-211 34.5q-132 0 -257.5 -49.5t-224 -135t-170.5 -202.5t-102 -248q-32 -135 -7.5 -249t87.5 -197t166 -129.5t229 -46.5q155 0 301 57.5t255 163.5h155q-133 -170 -331.5 -261t-407.5 -91q-125 0 -233 38t-185 106t-128 162.5
t-62 207t14 239.5q47 212 189 388.5t338.5 277t402.5 100.5q141 0 259 -46t193.5 -129.5t107 -199t-0.5 -254.5q-25 -115 -78.5 -213.5t-118 -165t-138 -114t-141 -69t-124.5 -21.5q-60 0 -92 36.5t-23 90.5l-4 -2q-60 -53 -133 -89t-139 -36q-128 0 -192 94.5t-34 228.5
q31 137 116 264.5t210 211t254 83.5q86 0 138.5 -37.5t72.5 -119.5z" />
    <glyph glyph-name="A" unicode="A" horiz-adv-x="1251" 
d="M918 1364l-383 -762h448l-43 762h-22zM221 0h-172l782 1479h244l127 -1479h-172l-37 463h-530z" />
    <glyph glyph-name="B" unicode="B" horiz-adv-x="1366" 
d="M221 0l328 1479h545q188 0 277 -104.5t56 -260.5q-58 -254 -325 -340v-4q120 -31 176.5 -133.5t26.5 -239.5q-19 -86 -62.5 -155.5t-117 -125t-186.5 -86t-259 -30.5h-459zM541 705l-125 -566h307q183 0 286 65t134 202q30 140 -57 219.5t-263 79.5h-282zM682 1339
l-111 -495h287q173 0 275.5 73.5t126.5 178.5q28 124 -28 183.5t-198 59.5h-352z" />
    <glyph glyph-name="C" unicode="C" horiz-adv-x="1251" 
d="M1128 471l142 -29q-214 -462 -623 -462q-259 0 -369.5 191.5t-27.5 567.5q79 360 272.5 560t460.5 200q201 0 301 -111t105 -319l-162 -45q-6 168 -72 252t-223 84q-169 0 -309.5 -158t-208.5 -463q-68 -311 8 -465.5t268 -154.5q82 0 151 28.5t122 81.5t91 110t74 132z
" />
    <glyph glyph-name="D" unicode="D" horiz-adv-x="1366" 
d="M666 1339l-267 -1200h222q255 0 419 151.5t230 448.5q33 162 24.5 276t-62.5 186t-137 105t-200 33h-229zM205 0l327 1479h398q308 0 446 -192t58 -548q-36 -163 -110 -298.5t-179.5 -233.5t-246.5 -152.5t-304 -54.5h-389z" />
    <glyph glyph-name="E" unicode="E" horiz-adv-x="1251" 
d="M549 1479h887l-31 -140h-723l-111 -495h514l-30 -139h-514l-125 -566h764l-31 -139h-928z" />
    <glyph glyph-name="F" unicode="F" horiz-adv-x="1138" 
d="M532 1479h877l-31 -140h-712l-111 -495h528l-30 -139h-529l-155 -705h-164z" />
    <glyph glyph-name="G" unicode="G" horiz-adv-x="1366" 
d="M862 711h498l-158 -711h-135l31 135h-4q-73 -76 -184 -115.5t-238 -39.5q-172 0 -281.5 81.5t-148 250.5t19.5 427q42 190 117.5 336.5t173.5 238.5t212.5 138.5t242.5 46.5q197 0 309.5 -103.5t126.5 -330.5l-162 -31q-17 172 -90.5 249t-206.5 77q-68 0 -131.5 -18.5
t-129 -64t-119.5 -115t-101.5 -177.5t-77.5 -246t-30.5 -246t23 -177t68.5 -114.5t100.5 -64t123.5 -18.5q173 0 284 92t142 235l28 125h-334z" />
    <glyph glyph-name="H" unicode="H" horiz-adv-x="1478" 
d="M1421 1479h164l-328 -1479h-163l155 705h-708l-156 -705h-164l328 1479h164l-142 -635h709z" />
    <glyph glyph-name="I" unicode="I" horiz-adv-x="681" 
d="M586 1479h164l-328 -1479h-164z" />
    <glyph glyph-name="J" unicode="J" horiz-adv-x="909" 
d="M868 1479h164l-244 -1098q-45 -206 -152 -303.5t-276 -97.5q-62 0 -111.5 15t-86 43.5t-61 59t-48.5 72.5l142 80q24 -59 74.5 -95t117.5 -36q179 0 229 219z" />
    <glyph glyph-name="K" unicode="K" horiz-adv-x="1366" 
d="M512 496l-111 -496h-163l327 1479h164l-170 -768h4l783 768h194l-582 -557l310 -922h-187l-266 786z" />
    <glyph glyph-name="L" unicode="L" horiz-adv-x="1138" 
d="M1085 0h-864l328 1479h164l-297 -1340h700z" />
    <glyph glyph-name="M" unicode="M" horiz-adv-x="1705" 
d="M1485 0h-148l299 1352h-6l-712 -1352h-127l-117 1352h-6l-299 -1352h-148l328 1479h254l112 -1196h5l634 1196h258z" />
    <glyph glyph-name="N" unicode="N" horiz-adv-x="1478" 
d="M369 0h-148l328 1479h235l394 -1139h8l252 1139h147l-328 -1479h-135l-456 1319h-4z" />
    <glyph glyph-name="O" unicode="O" horiz-adv-x="1366" 
d="M432 739q-68 -310 5 -465t272 -155t341 155.5t210 464.5q68 310 -5 465.5t-272 155.5t-341 -156t-210 -465zM268 739q81 367 276.5 563.5t469.5 196.5t382 -196.5t27 -563.5t-276 -563t-469 -196t-382.5 196t-27.5 563z" />
    <glyph glyph-name="P" unicode="P" horiz-adv-x="1251" 
d="M666 1339l-121 -540h278q198 0 296 66.5t128 203.5q60 270 -266 270h-315zM369 0h-164l327 1479h517q115 0 196.5 -32t121.5 -87.5t52.5 -131.5t-10.5 -163q-41 -191 -201 -298.5t-432 -107.5h-262z" />
    <glyph glyph-name="Q" unicode="Q" horiz-adv-x="1366" 
d="M1339 41l-34 -160q-68 0 -114.5 11.5t-78.5 38.5t-51.5 59.5t-40.5 85.5q-152 -96 -342 -96q-274 0 -382.5 196t-27.5 563t276.5 563.5t469.5 196.5t382 -196.5t27 -563.5q-83 -370 -276 -563q23 -71 69 -103t123 -32zM813 322l35 157q99 -14 154.5 -48t87.5 -103
q112 148 170 411q68 310 -5 465.5t-272 155.5t-341 -156t-210 -465q-68 -310 5 -465t272 -155q142 0 258 82q-25 57 -59.5 84.5t-94.5 36.5z" />
    <glyph glyph-name="R" unicode="R" horiz-adv-x="1366" 
d="M666 1339l-117 -528h297q343 0 403 270q32 142 -43 200t-245 58h-295zM369 0h-164l327 1479h476q238 0 343 -102t64 -287q-65 -288 -381 -385l158 -705h-178l-150 672h-346z" />
    <glyph glyph-name="S" unicode="S" horiz-adv-x="1251" 
d="M1317 1135l-156 -33q-3 113 -77 185.5t-210 72.5q-129 0 -215 -60t-112 -170q-12 -52 6.5 -94.5t60 -72t98 -57.5t120 -51.5t126.5 -53.5t117.5 -62.5t93.5 -80t54 -105.5t-2 -139q-15 -67 -43.5 -127.5t-77.5 -117.5t-114 -98t-157.5 -66t-201.5 -25q-93 0 -166.5 24
t-119 60t-79.5 90.5t-50 102t-30 108.5l162 53q48 -299 322 -299q157 0 257.5 73.5t127.5 192.5q13 60 -5 109t-58.5 82t-96.5 63t-119.5 53t-127 52.5t-118 60t-93.5 76t-54 101.5t2 136q36 162 184 271.5t344 109.5q175 0 282.5 -92t125.5 -272z" />
    <glyph glyph-name="T" unicode="T" horiz-adv-x="1138" 
d="M1391 1339h-443l-297 -1339h-164l297 1339h-442l31 140h1048z" />
    <glyph glyph-name="U" unicode="U" horiz-adv-x="1478" 
d="M549 1479h164l-232 -1045q-31 -135 43.5 -225t241.5 -90t280 90t144 225l231 1045h164l-229 -1033q-49 -218 -218.5 -342t-402.5 -124t-349 124.5t-67 341.5z" />
    <glyph glyph-name="V" unicode="V" horiz-adv-x="1138" 
d="M494 0l-129 1479h163l97 -1213h4l635 1213h166l-787 -1479h-149z" />
    <glyph glyph-name="W" unicode="W" horiz-adv-x="1705" 
d="M414 0l-29 1479h156l12 -1180h4l549 1180h145l33 -1180h4l533 1180h155l-678 -1479h-145l-39 1196h-4l-551 -1196h-145z" />
    <glyph glyph-name="X" unicode="X" horiz-adv-x="1138" 
d="M700 610l-483 -610h-188l614 772l-258 707h188l197 -543l432 543h189l-560 -707l279 -772h-188z" />
    <glyph glyph-name="Y" unicode="Y" horiz-adv-x="1138" 
d="M487 0l138 623l-265 856h181l207 -678l505 678h181l-646 -856l-137 -623h-164z" />
    <glyph glyph-name="Z" unicode="Z" horiz-adv-x="1138" 
d="M1077 139l-30 -139h-955l27 119l1011 1220h-673l30 140h879l-23 -107l-1028 -1233h762z" />
    <glyph glyph-name="bracketleft" unicode="[" horiz-adv-x="681" 
d="M123 -152l360 1631h418l-18 -86h-271l-323 -1459h270l-18 -86h-418z" />
    <glyph glyph-name="backslash" unicode="\" horiz-adv-x="569" 
d="M315 1499h125l142 -1519h-123z" />
    <glyph glyph-name="bracketright" unicode="]" horiz-adv-x="681" 
d="M854 1479l-360 -1631h-418l18 86h271l323 1459h-270l18 86h418z" />
    <glyph glyph-name="asciicircum" unicode="^" horiz-adv-x="1228" 
d="M354 571h-131l660 908h118l259 -908h-130l-221 768z" />
    <glyph glyph-name="underscore" unicode="_" 
d="M967 -256h-1024l22 102h1024z" />
    <glyph glyph-name="grave" unicode="`" horiz-adv-x="569" 
d="M340 1479h223l119 -291h-137z" />
    <glyph glyph-name="a" unicode="a" 
d="M422 793l-115 67q77 100 192 162.5t257 62.5q71 0 130 -17t106 -55t63 -99t0 -148l-119 -537q-31 -132 -27 -229h-151l16 147q-187 -167 -389 -167q-130 0 -200.5 76t-39.5 216q40 175 209.5 273.5t538.5 161.5l14 57q22 101 -26 147.5t-150 46.5q-111 0 -189.5 -49.5
t-119.5 -115.5zM801 283l63 292q-522 -88 -571 -305q-14 -70 31 -117t110 -47q77 0 180 50.5t187 126.5z" />
    <glyph glyph-name="b" unicode="b" horiz-adv-x="1138" 
d="M508 1479h147l-114 -516l10 4q167 118 305 118q57 0 109.5 -18t102 -57.5t78 -104t37.5 -157t-20 -216.5q-27 -123 -76.5 -220.5t-106.5 -158.5t-125 -101t-129.5 -56t-121.5 -16q-90 0 -155.5 34t-122.5 99l-52 -113h-102q25 67 59 233zM508 811l-125 -561
q63 -78 116 -111t122 -33q140 0 244 109t149 309q25 121 23 204t-34 134t-79.5 73.5t-114.5 22.5q-65 0 -145.5 -40t-155.5 -107z" />
    <glyph glyph-name="c" unicode="c" 
d="M1083 797l-147 -49q-9 100 -60.5 155t-144.5 55q-137 0 -238 -112t-145 -314q-46 -202 6 -314t189 -112q103 0 176 42.5t160 154.5l106 -53q-116 -145 -218.5 -207.5t-252.5 -62.5q-201 0 -286 148t-27 404q57 257 207 405t350 148q80 0 138.5 -21t95 -61.5t58 -89.5
t33.5 -116z" />
    <glyph glyph-name="d" unicode="d" horiz-adv-x="1138" 
d="M1139 1479h147l-276 -1246q-4 -19 -16 -72t-18.5 -89.5t-8.5 -71.5h-136l3 104q-50 -54 -133 -89t-175 -35q-60 0 -113.5 16.5t-104.5 55t-79.5 102t-37 157.5t21.5 221q26 119 74.5 216t105.5 158t124 103t127.5 59t117.5 17q138 0 256 -118l6 -4zM866 250l125 561
q-47 68 -108.5 107.5t-126.5 39.5q-139 0 -243 -102.5t-155 -331.5q-45 -200 12 -309t197 -109q69 0 135 32.5t164 111.5z" />
    <glyph glyph-name="e" unicode="e" 
d="M903 287l103 -60q-42 -53 -81 -91t-95 -76.5t-129 -59t-160 -20.5q-92 0 -165.5 31.5t-126 98.5t-65 171.5t16.5 250.5q57 256 207 404.5t348 148.5q85 0 150.5 -27.5t110.5 -86.5t54.5 -150t-16.5 -219l-21 -98h-692q-39 -173 27 -285.5t200 -112.5q96 0 182 48t152 133
zM373 631h540q34 149 -13.5 238t-166.5 89q-130 0 -223 -87.5t-137 -239.5z" />
    <glyph glyph-name="f" unicode="f" horiz-adv-x="681" 
d="M383 0h-147l208 938h-180l27 127h180l27 121q28 124 73 193.5t104.5 94.5t151.5 25q27 0 129 -10l-28 -131q-10 1 -47 7.5t-56 6.5q-77 0 -114.5 -32t-57.5 -119l-35 -156h232l-27 -127h-231z" />
    <glyph glyph-name="g" unicode="g" 
d="M1229 1106l-33 -148q-106 0 -170 -28q13 -21 22 -51t12 -74.5t-9 -91.5q-35 -158 -172 -265.5t-299 -107.5q-87 0 -183 29q-90 -24 -106 -99q-7 -36 12 -56.5t59 -20.5q251 0 390 -32t186 -96t23 -171q-26 -124 -168.5 -205.5t-380.5 -81.5q-227 0 -329 63.5t-73 194.5
q18 75 71 122t159 95q-56 19 -84 61t-17 90q7 33 22.5 59t44 49t51.5 37t67 38q-120 109 -80 297q38 166 175 269t310 103q162 0 250 -73q132 82 250 94zM821 -113q15 80 -64 119t-270 39q-82 0 -146.5 -16.5t-102.5 -44t-58.5 -57t-27.5 -60.5q-10 -30 -0.5 -54.5t39.5 -42
t98 -27t176 -9.5q140 0 239 39t117 114zM909 705q27 119 -26.5 186t-186.5 67q-122 0 -205.5 -68.5t-107.5 -176.5q-23 -107 38 -176.5t183 -69.5q121 0 202.5 68.5t102.5 169.5z" />
    <glyph glyph-name="h" unicode="h" horiz-adv-x="1138" 
d="M510 1479h147l-122 -557h4q180 163 350 163q62 0 111 -16.5t86.5 -53t47.5 -96t-6 -145.5l-172 -774h-147l170 770q24 101 -11 144.5t-120 43.5q-76 0 -172.5 -49t-169.5 -112l-176 -797h-148z" />
    <glyph glyph-name="i" unicode="i" horiz-adv-x="569" 
d="M211 0l235 1065h148l-236 -1065h-147zM543 1499h147l-39 -176h-147z" />
    <glyph glyph-name="j" unicode="j" horiz-adv-x="569" 
d="M475 1065h148l-273 -1235q-22 -98 -96 -160.5t-174 -62.5q-79 0 -117 24l27 121q36 -18 73 -18q64 0 96.5 23.5t45.5 82.5zM719 1499l-39 -176h-148l39 176h148z" />
    <glyph glyph-name="k" unicode="k" 
d="M172 0l328 1479h147l-211 -953h4l549 539h178l-399 -393l205 -672h-174l-162 545l-246 -226l-72 -319h-147z" />
    <glyph glyph-name="l" unicode="l" horiz-adv-x="569" 
d="M539 1479h147l-328 -1479h-147z" />
    <glyph glyph-name="m" unicode="m" horiz-adv-x="1705" 
d="M315 0h-147l235 1065h148l-31 -141l10 8q83 74 173.5 113.5t168.5 39.5q100 0 162 -45.5t74 -121.5q195 167 375 167q38 0 69.5 -5.5t63.5 -19.5t52.5 -37.5t35.5 -59.5t13.5 -85.5t-13.5 -115.5l-168 -762h-147l167 762q23 102 -10.5 149t-109.5 47q-47 0 -92 -13
t-90.5 -40.5t-75 -49.5t-76.5 -60l-176 -795h-148l168 762q23 102 -11 149t-110 47q-47 0 -91.5 -13t-90.5 -41t-74.5 -49t-76.5 -60z" />
    <glyph glyph-name="n" unicode="n" horiz-adv-x="1138" 
d="M418 1065h147l-30 -143h4q180 163 350 163q62 0 111 -16.5t86.5 -53t47.5 -96t-6 -145.5l-172 -774h-147l170 770q24 101 -11 144.5t-120 43.5q-76 0 -172.5 -49t-169.5 -112l-176 -797h-148z" />
    <glyph glyph-name="o" unicode="o" 
d="M920 532q44 203 -8.5 314.5t-186.5 111.5t-236.5 -111.5t-146.5 -314.5q-45 -203 8 -314.5t187 -111.5t236 111.5t147 314.5zM1067 532q-36 -157 -110.5 -279.5t-191 -197.5t-257.5 -75q-106 0 -181.5 43t-110.5 118t-42.5 175.5t21.5 215.5q35 157 109 280t190.5 198
t257.5 75q85 0 150.5 -28t106 -78t60.5 -119.5t19.5 -152t-21.5 -175.5z" />
    <glyph glyph-name="p" unicode="p" horiz-adv-x="1138" 
d="M240 -393h-148l324 1458h147l-26 -125h4q55 61 143 103t164 42q49 0 95 -11.5t91 -37.5t77 -68t54 -103.5t20.5 -144t-22.5 -188.5q-26 -119 -75 -216t-106.5 -158t-124.5 -102.5t-127.5 -58.5t-117.5 -17q-139 0 -254 118l-8 4zM508 815l-125 -561q47 -68 110 -108
t128 -40q139 0 242.5 103t154.5 332q44 200 -12.5 308.5t-196.5 108.5q-69 0 -136.5 -32.5t-164.5 -110.5z" />
    <glyph glyph-name="q" unicode="q" horiz-adv-x="1138" 
d="M870 -393h-147l111 495l-9 -4q-170 -118 -307 -118q-57 0 -109.5 17.5t-102 57.5t-78 104t-36.5 156.5t21 216.5q27 123 76 220.5t106 158.5t124.5 101.5t129 56.5t121.5 16q183 0 254 -133l51 113h119zM866 254l125 561q-63 79 -114.5 111t-120.5 32q-140 0 -245 -108.5
t-149 -308.5q-25 -121 -23 -204t34 -134.5t79.5 -74t114.5 -22.5q65 0 144.5 40t154.5 108z" />
    <glyph glyph-name="r" unicode="r" horiz-adv-x="681" 
d="M143 0l236 1065h147l-47 -211h4q93 117 183 172t215 55l-33 -147q-133 -3 -233 -87.5t-193 -256.5l-131 -590h-148z" />
    <glyph glyph-name="s" unicode="s" horiz-adv-x="909" 
d="M90 182l135 88q36 -77 105 -120.5t166 -43.5q113 0 182.5 51.5t85.5 125.5q11 48 -8.5 83.5t-59.5 56t-92 39.5t-107.5 34t-106 40t-86.5 56.5t-50 84t4 122.5q35 136 148 212t268 74q105 -2 196.5 -53.5t126.5 -132.5l-120 -90q-47 78 -102.5 113.5t-139.5 35.5
q-92 0 -152 -42.5t-75 -114.5q-9 -41 10.5 -72t59 -49.5t90.5 -37t105.5 -34.5t104 -42t85 -60t50 -88.5t-1.5 -126.5q-22 -99 -91 -171.5t-159 -106t-190 -33.5q-127 0 -228 52.5t-153 149.5z" />
    <glyph glyph-name="t" unicode="t" horiz-adv-x="681" 
d="M272 1065h174l78 350h148l-78 -350h246l-27 -127h-246l-168 -758q-9 -37 16 -55.5t89 -18.5q58 0 133 11l-27 -121q-58 -16 -176 -16q-123 0 -167 38.5t-21 137.5l174 782h-174z" />
    <glyph glyph-name="u" unicode="u" horiz-adv-x="1138" 
d="M956 0h-147l33 143h-4q-184 -163 -353 -163q-62 0 -111 16.5t-86 53t-47.5 96t5.5 145.5l172 774h147l-170 -770q-22 -101 13.5 -145t119.5 -44q76 0 171 49.5t169 112.5l176 797h148z" />
    <glyph glyph-name="v" unicode="v" horiz-adv-x="909" 
d="M1112 1065l-555 -1065h-197l-92 1065h150l76 -881h4l465 881h149z" />
    <glyph glyph-name="w" unicode="w" horiz-adv-x="1366" 
d="M322 0l-54 1065h150l35 -819h4l389 819h149l31 -823h4l389 823h150l-520 -1065h-150l-31 823h-4l-393 -823h-149z" />
    <glyph glyph-name="x" unicode="x" horiz-adv-x="909" 
d="M451 1065l149 -379l307 379h166l-409 -506l221 -559h-170l-170 436l-355 -436h-165l460 559l-200 506h166z" />
    <glyph glyph-name="y" unicode="y" horiz-adv-x="909" 
d="M956 1065h156l-631 -1159q-165 -299 -426 -299q-22 0 -39.5 2t-37.5 5.5t-25 4.5l27 121q60 -6 77 -6q32 0 60 4t67 19t72 41t70 74.5t67 115.5l-133 1077h156l106 -813h4z" />
    <glyph glyph-name="z" unicode="z" horiz-adv-x="909" 
d="M877 127l-29 -127h-787l25 106l766 832h-524l26 127h725l-22 -107l-766 -831h586z" />
    <glyph glyph-name="braceleft" unicode="{" horiz-adv-x="681" 
d="M236 621l18 86q63 0 105 41t59 118l90 408q24 107 84.5 166t155.5 59h126l-18 -86h-78q-94 0 -116 -115l-105 -471q-34 -139 -188 -161v-4q145 -23 114 -162l-104 -471q-25 -115 67 -115h78l-20 -86h-127q-95 0 -129 59t-10 166l90 408q17 77 -6 118.5t-86 41.5z" />
    <glyph glyph-name="bar" unicode="|" horiz-adv-x="899" 
d="M555 1735h119v-2313h-119v2313z" />
    <glyph glyph-name="braceright" unicode="}" horiz-adv-x="681" 
d="M739 707l-18 -86q-126 0 -162 -160l-90 -408q-24 -107 -85.5 -166t-156.5 -59h-127l21 86h78q91 0 116 115l105 471q31 139 188 162v4q-148 23 -114 161l104 471q22 115 -68 115h-77l18 86h127q95 0 130 -59t11 -166l-90 -408q-36 -159 90 -159z" />
    <glyph glyph-name="asciitilde" unicode="~" horiz-adv-x="1228" 
d="M1163 674l60 -90q-43 -45 -68.5 -69t-66 -55t-82 -45t-86.5 -14q-38 0 -77 12t-58.5 22.5t-61.5 35.5q-38 22 -62.5 34.5t-66.5 24t-86 11.5q-106 0 -207 -150l-59 92q67 85 138.5 135t164.5 50q85 0 221 -70q5 -3 28.5 -14.5t30.5 -15t26 -12.5t28 -12t23.5 -8
t25.5 -6.5t22 -1.5q38 0 80 25t66 49t67 72z" />
    <glyph glyph-name="uni00A0" unicode="&#xa0;" horiz-adv-x="624" 
 />
    <glyph glyph-name="exclamdown" unicode="&#xa1;" horiz-adv-x="681" 
d="M358 -414h-217l269 1012h131zM629 840h-201l49 225h201z" />
    <glyph glyph-name="cent" unicode="&#xa2;" horiz-adv-x="1251" 
d="M475 188l443 754q-37 16 -84 16q-137 0 -238 -112t-145 -314q-53 -238 24 -344zM995 879l-440 -756q38 -17 90 -17q103 0 176 42.5t160 154.5l106 -53q-116 -145 -218.5 -207.5t-252.5 -62.5q-82 0 -133 22l-135 -229h-117l164 278q-169 140 -92 481q57 257 207 405
t350 148q79 0 131 -18l105 182h116l-135 -231q83 -69 109 -221l-148 -49q-6 82 -43 131z" />
    <glyph glyph-name="sterling" unicode="&#xa3;" horiz-adv-x="1251" 
d="M893 799l-27 -127h-295q0 -58 -18 -140q-35 -160 -119 -276q32 -18 85.5 -51t84.5 -51t74 -33t80 -15q139 0 227 66t145 197l125 -25q-139 -364 -489 -364q-43 0 -81 4t-74.5 15t-62 19.5t-60.5 27.5t-51.5 28.5t-54.5 33.5t-50 31q-128 -139 -281 -159l35 159
q95 16 186.5 112t122.5 234q25 128 27 187h-219l26 127h201q12 155 31 241q47 211 192.5 335t358.5 124q187 0 281.5 -98t97.5 -283l-146 -24q-4 41 -10 74t-23.5 73t-43 67t-71 45.5t-104.5 18.5q-69 0 -126.5 -17.5t-97 -46t-70 -68.5t-48 -80.5t-28.5 -86.5
q-21 -96 -41 -274h311z" />
    <glyph glyph-name="currency" unicode="&#xa4;" horiz-adv-x="1251" 
d="M702 350q164 0 296 106t171 283q39 175 -46.5 282t-248.5 107t-295 -107t-171 -282q-39 -177 45.5 -283t248.5 -106zM1327 1253l66 -86l-138 -112q82 -137 41 -316t-180 -315l88 -113l-106 -86l-88 115q-157 -109 -334 -109q-179 0 -285 109l-141 -115l-66 86l138 113
q-81 137 -41 315q41 180 180 316l-88 112l106 86l88 -114q156 108 334 108q180 0 285 -108z" />
    <glyph glyph-name="yen" unicode="&#xa5;" horiz-adv-x="1251" 
d="M801 479l-107 -479h-139l107 479h-363l29 127h362l2 17l-49 163h-276l28 127h209l-176 566h147l220 -711l534 711h148l-426 -566h209l-29 -127h-275l-125 -163l-2 -17h363l-29 -127h-362z" />
    <glyph glyph-name="brokenbar" unicode="&#xa6;" horiz-adv-x="897" 
d="M555 1561h117v-809h-117v809zM555 403h117v-804h-117v804z" />
    <glyph glyph-name="section" unicode="&#xa7;" 
d="M201 8l118 66q58 -135 179 -135q62 0 110.5 36.5t61.5 94.5q9 42 -17 104t-71 124.5t-98 135.5t-98.5 137t-71 130t-15.5 114q22 97 97.5 154t197.5 63q-8 15 -28 47.5t-26 45t-14.5 38t-7.5 50.5t8 57q22 94 111 161.5t203 67.5q91 0 149 -38.5t113 -131.5l-111 -55
q-1 1 -12.5 19t-18 26t-22 24t-30 24t-37.5 15t-48 7q-59 0 -102.5 -35.5t-54.5 -83.5q-6 -33 3.5 -61.5t45.5 -80t129 -170.5q133 -171 167.5 -246t14.5 -163q-21 -97 -95.5 -152.5t-176.5 -68.5q21 -32 34 -58t22 -57t8.5 -65t-9.5 -74q-22 -99 -112.5 -172.5
t-223.5 -73.5q-102 0 -173.5 49t-98.5 131zM588 934q-51 0 -94 -33.5t-54 -79.5q-2 -10 -2.5 -20.5t0 -19.5t4.5 -21l6.5 -19.5t11 -22t13 -22t17 -25.5t19 -27t22.5 -31l24 -33q67 -92 104 -123t82 -31q49 0 91.5 32t54.5 83q9 43 -16 100t-101 154q-70 90 -104 114.5
t-78 24.5z" />
    <glyph glyph-name="dieresis" unicode="&#xa8;" horiz-adv-x="569" 
d="M805 1208h-180l43 193h180zM481 1208h-180l43 193h180z" />
    <glyph glyph-name="copyright" unicode="&#xa9;" horiz-adv-x="1638" 
d="M1217 598h139q-64 -149 -186.5 -236.5t-262.5 -87.5q-200 0 -294 133.5t-50 335.5q45 203 194 333t351 130q149 0 235 -82.5t76 -230.5h-137q2 88 -52 139t-149 51q-141 0 -238 -93.5t-130 -244.5q-33 -146 26.5 -247t194.5 -101q96 0 173.5 55t109.5 146zM213 741
q47 213 191.5 388t342.5 272.5t406 97.5q123 0 230.5 -37t187 -104.5t132 -161.5t64.5 -208.5t-14 -246.5q-28 -129 -94 -247.5t-158 -211t-202.5 -161t-234.5 -105t-247 -36.5q-124 0 -232.5 37t-188.5 104t-132.5 162t-64.5 210t14 248zM1606 741q32 136 7.5 252t-87 201
t-167 133.5t-233.5 48.5q-174 0 -335.5 -82.5t-276.5 -228.5t-154 -324q-32 -139 -8.5 -256.5t87.5 -202.5t169.5 -132.5t235.5 -47.5q172 0 332 81.5t275 228.5t155 329z" />
    <glyph glyph-name="ordfeminine" unicode="&#xaa;" horiz-adv-x="614" 
d="M426 1315l-72 49q111 135 289 135q63 0 111.5 -17.5t76 -62.5t11.5 -112l-70 -322q-20 -88 -14 -137h-109l4 72q-42 -25 -66.5 -38t-75 -29.5t-97.5 -16.5q-86 0 -132.5 46t-27.5 130q23 105 133 167.5t340 100.5l4 27q12 48 -17 73t-91 25q-136 0 -197 -90zM668 1018
l37 168q-159 -29 -244 -70.5t-99 -105.5q-6 -34 16 -57t66 -23q52 0 115.5 26.5t108.5 61.5z" />
    <glyph glyph-name="guillemotleft" unicode="&#xab;" 
d="M621 856h143l-336 -324l193 -323h-140l-198 323zM907 856h144l-336 -324l192 -323h-139l-199 323z" />
    <glyph glyph-name="logicalnot" unicode="&#xac;" horiz-adv-x="1228" 
d="M1077 260l92 418h-938l29 127h1065l-121 -545h-127z" />
    <glyph glyph-name="uni00AD" unicode="&#xad;" horiz-adv-x="681" 
d="M702 469h-516l29 127h516z" />
    <glyph glyph-name="registered" unicode="&#xae;" horiz-adv-x="1638" 
d="M811 682l-84 -381h-135l192 877h336q158 0 221.5 -61t34.5 -189q-47 -214 -282 -242l166 -385h-148l-149 381h-152zM897 1067l-61 -274h159q120 0 176.5 34.5t71.5 108.5q14 67 -20 99t-144 32h-182zM213 741q47 213 191.5 388t342.5 272.5t406 97.5q123 0 230.5 -37
t187 -104.5t132 -161.5t64.5 -208.5t-14 -246.5q-28 -129 -94 -247.5t-158 -211t-202.5 -161t-234.5 -105t-247 -36.5q-124 0 -232.5 37t-188.5 104t-132.5 162t-64.5 210t14 248zM1606 741q32 136 7.5 252t-87 201t-167 133.5t-233.5 48.5q-174 0 -335.5 -82.5
t-276.5 -228.5t-154 -324q-32 -139 -8.5 -256.5t87.5 -202.5t169.5 -132.5t235.5 -47.5q172 0 332 81.5t275 228.5t155 329z" />
    <glyph glyph-name="macron" unicode="&#xaf;" horiz-adv-x="569" 
d="M883 1253h-639l26 123h639z" />
    <glyph glyph-name="degree" unicode="&#xb0;" horiz-adv-x="819" 
d="M381 1204q28 123 132.5 209t227.5 86t190.5 -86t39.5 -209q-26 -123 -132 -209t-229 -86t-189 86t-40 209zM479 1204q-19 -87 25.5 -146t126.5 -59t152 59t89 146q20 87 -23.5 146t-125.5 59t-153 -59t-91 -146z" />
    <glyph glyph-name="plusminus" unicode="&#xb1;" horiz-adv-x="1228" 
d="M707 698l79 367h127l-79 -367h469l-29 -127h-469l-82 -366h-127l82 366h-469l29 127h469zM82 0l29 127h1065l-29 -127h-1065z" />
    <glyph glyph-name="twosuperior" unicode="&#xb2;" horiz-adv-x="749" 
d="M825 598h-635l25 111q53 70 123.5 130t134.5 97.5t130 76t116 69.5t87 74t48 93q15 66 -23.5 107t-125.5 41q-99 0 -170.5 -52t-110.5 -128l-88 32q56 109 157.5 179.5t239.5 70.5q130 0 195.5 -64t40.5 -173q-18 -80 -74 -145.5t-132 -113.5t-154.5 -90.5t-158.5 -97.5
t-126 -115h524z" />
    <glyph glyph-name="threesuperior" unicode="&#xb3;" horiz-adv-x="749" 
d="M455 1022l22 102h84q120 0 186 36t84 118q11 47 -28.5 83t-112.5 36q-83 0 -134 -23.5t-112 -81.5l-73 58q149 149 342 149q130 0 192 -58t37 -163q-16 -76 -64 -125.5t-112 -69.5v-4q53 -18 83.5 -59.5t33.5 -86.5t-4 -91q-25 -115 -129 -185.5t-254 -70.5
q-123 0 -198 53t-105 119l96 65q70 -135 229 -135q102 0 168.5 41t81.5 111q21 93 -29.5 137.5t-191.5 44.5h-92z" />
    <glyph glyph-name="acute" unicode="&#xb4;" horiz-adv-x="569" 
d="M662 1479h223l-332 -291h-137z" />
    <glyph glyph-name="mu" unicode="&#xb5;" horiz-adv-x="1138" 
d="M956 0h-147l33 143h-4q-184 -163 -353 -163q-90 0 -153 32l-90 -405h-148l324 1458h147l-170 -770q-22 -101 13.5 -145t119.5 -44q76 0 171 49.5t169 112.5l176 797h148z" />
    <glyph glyph-name="paragraph" unicode="&#xb6;" 
d="M410 -172l188 850q-183 0 -279.5 114.5t-60.5 278.5q44 198 188.5 303t362.5 105h567l-22 -103h-146l-344 -1548h-123l344 1548h-208l-345 -1548h-122z" />
    <glyph glyph-name="periodcentered" unicode="&#xb7;" horiz-adv-x="624" 
d="M301 530q12 55 56.5 92t99.5 37q53 0 81.5 -37.5t16.5 -91.5q-10 -52 -55.5 -88t-98.5 -36q-55 0 -83 35.5t-17 88.5z" />
    <glyph glyph-name="cedilla" unicode="&#xb8;" horiz-adv-x="569" 
d="M260 0h98l-122 -119l4 -4q30 10 63 10q85 0 118.5 -50.5t14.5 -121.5q-20 -84 -95 -129t-191 -45q-99 0 -183 43l56 90q51 -39 127 -39q55 0 89.5 23.5t43.5 65.5q8 33 -11 55t-57 22q-52 0 -96 -16l-27 39z" />
    <glyph glyph-name="onesuperior" unicode="&#xb9;" horiz-adv-x="749" 
d="M670 1499h110l-176 -799h162l-23 -102h-436l23 102h155l154 697l-180 -27l16 68q159 41 195 61z" />
    <glyph glyph-name="ordmasculine" unicode="&#xba;" horiz-adv-x="614" 
d="M403 1171q-26 -116 2 -176.5t109 -60.5t136 61.5t79 171.5q25 111 -3 172.5t-108 61.5q-76 0 -134 -62t-81 -168zM283 1167q35 155 130.5 243.5t225.5 88.5q131 0 187.5 -88.5t21.5 -243.5q-34 -154 -129.5 -242.5t-226.5 -88.5q-130 0 -186.5 88.5t-22.5 242.5z" />
    <glyph glyph-name="guillemotright" unicode="&#xbb;" 
d="M641 856h143l195 -324l-342 -323h-139l336 323zM354 856h144l194 -324l-342 -323h-139l336 323z" />
    <glyph glyph-name="onequarter" unicode="&#xbc;" horiz-adv-x="1875" 
d="M1825 209h-166l-47 -209h-111l47 209h-426l21 92l508 588h157l-127 -578h166zM1667 770l-397 -459h301l100 459h-4zM694 1499h111l-176 -799h162l-23 -102h-436l22 102h156l154 697l-181 -27l17 68q157 40 194 61zM565 -20h-121l1235 1519h127z" />
    <glyph glyph-name="onehalf" unicode="&#xbd;" horiz-adv-x="1875" 
d="M694 1499h111l-176 -799h162l-23 -102h-436l22 102h156l154 697l-181 -27l17 68q157 40 194 61zM1761 0h-635l25 111q53 70 123.5 130t134.5 97.5t130 76t116 69.5t87 74t48 93q15 66 -24 107t-126 41q-99 0 -170 -52.5t-110 -128.5l-88 33q58 109 159.5 179.5
t239.5 70.5q130 0 194.5 -64t39.5 -173q-18 -80 -74 -145.5t-132 -113.5t-154.5 -90.5t-158.5 -97.5t-126 -115h524zM524 -20h-121l1235 1519h127z" />
    <glyph glyph-name="threequarters" unicode="&#xbe;" horiz-adv-x="1875" 
d="M1825 209h-166l-47 -209h-111l47 209h-426l21 92l508 588h157l-127 -578h166zM1667 770l-397 -459h301l100 459h-4zM528 1022l23 102h84q120 0 186 36t84 118q11 47 -28.5 83t-112.5 36q-83 0 -134 -23.5t-112 -81.5l-74 58q149 149 342 149q130 0 192 -58t38 -163
q-16 -76 -64 -125.5t-112 -69.5v-4q53 -18 83 -59.5t33 -86.5t-4 -91q-25 -115 -129 -185.5t-254 -70.5q-123 0 -198 53t-105 119l96 65q70 -135 230 -135q102 0 168.5 41t81.5 111q21 93 -29.5 137.5t-191.5 44.5h-93zM598 -20h-121l1235 1519h127z" />
    <glyph glyph-name="questiondown" unicode="&#xbf;" horiz-adv-x="909" 
d="M592 598h139l-24 -113q-16 -72 -53.5 -136t-81.5 -107.5t-94 -89.5t-92.5 -84.5t-77 -90.5t-46.5 -108q-15 -70 16.5 -123t116.5 -53q71 0 129 36.5t121 120.5l109 -59q-75 -110 -173.5 -167.5t-209.5 -57.5q-137 0 -215.5 83.5t-46.5 227.5q14 62 51 121.5t82.5 104
t98 93t97.5 89.5t80.5 93.5t46.5 104.5zM819 840h-201l50 225h200z" />
    <glyph glyph-name="Agrave" unicode="&#xc0;" horiz-adv-x="1251" 
d="M918 1364l-383 -762h448l-43 762h-22zM221 0h-172l782 1479h244l127 -1479h-172l-37 463h-530zM764 1847h223l117 -291h-137z" />
    <glyph glyph-name="Aacute" unicode="&#xc1;" horiz-adv-x="1251" 
d="M918 1364l-383 -762h448l-43 762h-22zM221 0h-172l782 1479h244l127 -1479h-172l-37 463h-530zM1085 1847h224l-334 -291h-137z" />
    <glyph glyph-name="Acircumflex" unicode="&#xc2;" horiz-adv-x="1251" 
d="M918 1364l-383 -762h448l-43 762h-22zM221 0h-172l782 1479h244l127 -1479h-172l-37 463h-530zM672 1556l266 291h192l140 -291h-164l-94 193l-176 -193h-164z" />
    <glyph glyph-name="Atilde" unicode="&#xc3;" horiz-adv-x="1251" 
d="M918 1364l-383 -762h448l-43 762h-22zM221 0h-172l782 1479h244l127 -1479h-172l-37 463h-530zM1276 1812h102q-27 -82 -98.5 -150.5t-149.5 -68.5q-47 0 -149 39q-96 39 -145 39q-32 0 -66 -30.5t-43 -65.5h-102q33 98 103 160.5t167 62.5q57 0 141 -37q80 -39 123 -39
q38 0 70 25t47 65z" />
    <glyph glyph-name="Adieresis" unicode="&#xc4;" horiz-adv-x="1251" 
d="M918 1364l-383 -762h448l-43 762h-22zM221 0h-172l782 1479h244l127 -1479h-172l-37 463h-530zM1229 1577h-180l43 192h180zM905 1577h-180l43 192h180z" />
    <glyph glyph-name="Aring" unicode="&#xc5;" horiz-adv-x="1251" 
d="M918 1364l-383 -762h448l-43 762h-22zM221 0h-172l782 1479h244l127 -1479h-172l-37 463h-530zM813 1761q19 85 92 145t158 60t132 -60t28 -145q-20 -85 -93.5 -145t-158.5 -60t-131.5 60t-26.5 145zM903 1761q-11 -47 15 -80.5t73 -33.5q48 0 90 33.5t52 80.5t-17 81
t-74 34t-87.5 -34t-51.5 -81z" />
    <glyph glyph-name="AE" unicode="&#xc6;" horiz-adv-x="2048" 
d="M33 0l1161 1479h1038l-30 -140h-723l-111 -495h514l-31 -139h-514l-125 -566h764l-30 -139h-928l102 463h-545l-356 -463h-186zM686 602h465l170 762h-45z" />
    <glyph glyph-name="Ccedilla" unicode="&#xc7;" horiz-adv-x="1251" 
d="M1128 471l142 -29q-200 -433 -570 -460l-104 -101l4 -4q30 10 64 10q85 0 118.5 -50.5t14.5 -121.5q-20 -84 -95.5 -129t-191.5 -45q-98 0 -182 43l55 90q51 -39 127 -39q55 0 89.5 23.5t43.5 65.5q8 33 -11 55t-57 22q-52 0 -96 -16l-26 39l149 158q-236 16 -333.5 207
t-18.5 550q79 360 272.5 560t460.5 200q201 0 301 -111t105 -319l-162 -45q-6 168 -72 252t-223 84q-169 0 -309.5 -158t-208.5 -463q-68 -311 8 -465.5t268 -154.5q82 0 151 28.5t122 81.5t91 110t74 132z" />
    <glyph glyph-name="Egrave" unicode="&#xc8;" horiz-adv-x="1251" 
d="M549 1479h887l-31 -140h-723l-111 -495h514l-30 -139h-514l-125 -566h764l-31 -139h-928zM821 1847h223l117 -291h-137z" />
    <glyph glyph-name="Eacute" unicode="&#xc9;" horiz-adv-x="1251" 
d="M549 1479h887l-31 -140h-723l-111 -495h514l-30 -139h-514l-125 -566h764l-31 -139h-928zM1143 1847h223l-334 -291h-137z" />
    <glyph glyph-name="Ecircumflex" unicode="&#xca;" horiz-adv-x="1251" 
d="M549 1479h887l-31 -140h-723l-111 -495h514l-30 -139h-514l-125 -566h764l-31 -139h-928zM729 1556l266 291h193l139 -291h-164l-94 193l-176 -193h-164z" />
    <glyph glyph-name="Edieresis" unicode="&#xcb;" horiz-adv-x="1251" 
d="M549 1479h887l-31 -140h-723l-111 -495h514l-30 -139h-514l-125 -566h764l-31 -139h-928zM1286 1577h-180l43 192h180zM963 1577h-181l43 192h181z" />
    <glyph glyph-name="Igrave" unicode="&#xcc;" horiz-adv-x="681" 
d="M586 1479h164l-328 -1479h-164zM479 1847h223l117 -291h-137z" />
    <glyph glyph-name="Iacute" unicode="&#xcd;" horiz-adv-x="681" 
d="M586 1479h164l-328 -1479h-164zM801 1847h223l-334 -291h-137z" />
    <glyph glyph-name="Icircumflex" unicode="&#xce;" horiz-adv-x="681" 
d="M586 1479h164l-328 -1479h-164zM387 1556l266 291h193l139 -291h-164l-94 193l-176 -193h-164z" />
    <glyph glyph-name="Idieresis" unicode="&#xcf;" horiz-adv-x="681" 
d="M586 1479h164l-328 -1479h-164zM944 1577h-180l43 192h180zM621 1577h-181l43 192h181z" />
    <glyph glyph-name="Eth" unicode="&#xd0;" horiz-adv-x="1366" 
d="M555 844h385l-31 -139h-385l-125 -566h222q255 0 419 151.5t230 448.5q33 162 24.5 276t-62.5 186t-137 105t-200 33h-229zM252 844h139l141 635h398q308 0 446 -192t58 -548q-36 -163 -110 -298.5t-179.5 -233.5t-246.5 -152.5t-304 -54.5h-389l155 705h-139z" />
    <glyph glyph-name="Ntilde" unicode="&#xd1;" horiz-adv-x="1478" 
d="M369 0h-148l328 1479h235l394 -1139h8l252 1139h147l-328 -1479h-135l-456 1319h-4zM1389 1812h102q-27 -82 -98.5 -150.5t-149.5 -68.5q-47 0 -149 39q-96 39 -146 39q-32 0 -65.5 -30.5t-42.5 -65.5h-103q33 98 103.5 160.5t167.5 62.5q57 0 141 -37q80 -39 123 -39
q38 0 70 25t47 65z" />
    <glyph glyph-name="Ograve" unicode="&#xd2;" horiz-adv-x="1366" 
d="M432 739q-68 -310 5 -465t272 -155t341 155.5t210 464.5q68 310 -5 465.5t-272 155.5t-341 -156t-210 -465zM268 739q81 367 276.5 563.5t469.5 196.5t382 -196.5t27 -563.5t-276 -563t-469 -196t-382.5 196t-27.5 563zM821 1847h223l117 -291h-137z" />
    <glyph glyph-name="Oacute" unicode="&#xd3;" horiz-adv-x="1366" 
d="M432 739q-68 -310 5 -465t272 -155t341 155.5t210 464.5q68 310 -5 465.5t-272 155.5t-341 -156t-210 -465zM268 739q81 367 276.5 563.5t469.5 196.5t382 -196.5t27 -563.5t-276 -563t-469 -196t-382.5 196t-27.5 563zM1143 1847h223l-334 -291h-137z" />
    <glyph glyph-name="Ocircumflex" unicode="&#xd4;" horiz-adv-x="1366" 
d="M432 739q-68 -310 5 -465t272 -155t341 155.5t210 464.5q68 310 -5 465.5t-272 155.5t-341 -156t-210 -465zM268 739q81 367 276.5 563.5t469.5 196.5t382 -196.5t27 -563.5t-276 -563t-469 -196t-382.5 196t-27.5 563zM729 1556l266 291h193l139 -291h-164l-94 193
l-176 -193h-164z" />
    <glyph glyph-name="Otilde" unicode="&#xd5;" horiz-adv-x="1366" 
d="M432 739q-68 -310 5 -465t272 -155t341 155.5t210 464.5q68 310 -5 465.5t-272 155.5t-341 -156t-210 -465zM268 739q81 367 276.5 563.5t469.5 196.5t382 -196.5t27 -563.5t-276 -563t-469 -196t-382.5 196t-27.5 563zM1333 1812h103q-27 -82 -98.5 -150.5t-149.5 -68.5
q-48 0 -150 39q-96 39 -145 39q-32 0 -66 -30.5t-43 -65.5h-102q33 98 103 160.5t167 62.5q58 0 142 -37q80 -39 123 -39q38 0 69.5 25t46.5 65z" />
    <glyph glyph-name="Odieresis" unicode="&#xd6;" horiz-adv-x="1366" 
d="M432 739q-68 -310 5 -465t272 -155t341 155.5t210 464.5q68 310 -5 465.5t-272 155.5t-341 -156t-210 -465zM268 739q81 367 276.5 563.5t469.5 196.5t382 -196.5t27 -563.5t-276 -563t-469 -196t-382.5 196t-27.5 563zM1286 1577h-180l43 192h180zM963 1577h-181l43 192
h181z" />
    <glyph glyph-name="multiply" unicode="&#xd7;" horiz-adv-x="1228" 
d="M752 618l540 447l72 -90l-541 -443l344 -442l-110 -90l-344 442l-541 -442l-70 90l541 442l-344 443l109 90z" />
    <glyph glyph-name="Oslash" unicode="&#xd8;" horiz-adv-x="1366" 
d="M422 324l797 940q-78 96 -236 96q-199 0 -341 -156t-210 -465q-58 -264 -10 -415zM1270 1159l-797 -940q69 -100 236 -100q199 0 341 155.5t210 464.5q61 266 10 420zM1626 1577l-231 -270q110 -194 28 -568q-81 -367 -276 -563t-469 -196q-203 0 -316 110l-188 -221
h-137l260 305q-111 199 -29 565q81 367 276.5 563.5t469.5 196.5q204 0 313 -106l156 184h143z" />
    <glyph glyph-name="Ugrave" unicode="&#xd9;" horiz-adv-x="1478" 
d="M549 1479h164l-232 -1045q-31 -135 43.5 -225t241.5 -90t280 90t144 225l231 1045h164l-229 -1033q-49 -218 -218.5 -342t-402.5 -124t-349 124.5t-67 341.5zM877 1847h223l117 -291h-138z" />
    <glyph glyph-name="Uacute" unicode="&#xda;" horiz-adv-x="1478" 
d="M549 1479h164l-232 -1045q-31 -135 43.5 -225t241.5 -90t280 90t144 225l231 1045h164l-229 -1033q-49 -218 -218.5 -342t-402.5 -124t-349 124.5t-67 341.5zM1198 1847h223l-334 -291h-137z" />
    <glyph glyph-name="Ucircumflex" unicode="&#xdb;" horiz-adv-x="1478" 
d="M549 1479h164l-232 -1045q-31 -135 43.5 -225t241.5 -90t280 90t144 225l231 1045h164l-229 -1033q-49 -218 -218.5 -342t-402.5 -124t-349 124.5t-67 341.5zM784 1556l267 291h192l139 -291h-163l-95 193l-176 -193h-164z" />
    <glyph glyph-name="Udieresis" unicode="&#xdc;" horiz-adv-x="1478" 
d="M549 1479h164l-232 -1045q-31 -135 43.5 -225t241.5 -90t280 90t144 225l231 1045h164l-229 -1033q-49 -218 -218.5 -342t-402.5 -124t-349 124.5t-67 341.5zM1341 1577h-180l43 192h180zM1018 1577h-180l43 192h180z" />
    <glyph glyph-name="Yacute" unicode="&#xdd;" horiz-adv-x="1138" 
d="M487 0l138 623l-265 856h181l207 -678l505 678h181l-646 -856l-137 -623h-164zM1028 1847h223l-333 -291h-138z" />
    <glyph glyph-name="Thorn" unicode="&#xde;" horiz-adv-x="1251" 
d="M602 1053l-121 -541h279q198 0 296 66.5t128 203.5q60 271 -266 271h-316zM369 0h-164l327 1479h164l-63 -287h352q92 0 163.5 -20.5t115 -58t69 -89t26.5 -114t-13 -132.5q-41 -190 -201 -297.5t-432 -107.5h-262z" />
    <glyph glyph-name="germandbls" unicode="&#xdf;" horiz-adv-x="1138" 
d="M481 35l82 121q18 -20 53.5 -35t83.5 -15q105 0 176 79.5t99 205.5q42 193 -34 278t-255 85l27 127h59q91 0 172.5 71t104.5 178q27 116 -16.5 179t-158.5 63q-117 0 -185.5 -67.5t-104.5 -206.5l-244 -1098h-147l251 1135q27 125 102 209.5t166 119.5t193 35
q179 0 254.5 -98.5t40.5 -257.5q-24 -106 -88 -185.5t-164 -123.5v-5q130 -40 172 -151.5t4 -276.5q-21 -98 -68 -179t-107 -133t-128.5 -80.5t-136.5 -28.5q-126 0 -203 55z" />
    <glyph glyph-name="agrave" unicode="&#xe0;" 
d="M422 793l-115 67q77 100 192 162.5t257 62.5q71 0 130 -17t106 -55t63 -99t0 -148l-119 -537q-31 -132 -27 -229h-151l16 147q-187 -167 -389 -167q-130 0 -200.5 76t-39.5 216q40 175 209.5 273.5t538.5 161.5l14 57q22 101 -26 147.5t-150 46.5q-111 0 -189.5 -49.5
t-119.5 -115.5zM801 283l63 292q-522 -88 -571 -305q-14 -70 31 -117t110 -47q77 0 180 50.5t187 126.5zM557 1479h223l119 -291h-137z" />
    <glyph glyph-name="aacute" unicode="&#xe1;" 
d="M422 793l-115 67q77 100 192 162.5t257 62.5q71 0 130 -17t106 -55t63 -99t0 -148l-119 -537q-31 -132 -27 -229h-151l16 147q-187 -167 -389 -167q-130 0 -200.5 76t-39.5 216q40 175 209.5 273.5t538.5 161.5l14 57q22 101 -26 147.5t-150 46.5q-111 0 -189.5 -49.5
t-119.5 -115.5zM801 283l63 292q-522 -88 -571 -305q-14 -70 31 -117t110 -47q77 0 180 50.5t187 126.5zM879 1479h223l-332 -291h-137z" />
    <glyph glyph-name="acircumflex" unicode="&#xe2;" 
d="M422 793l-115 67q77 100 192 162.5t257 62.5q71 0 130 -17t106 -55t63 -99t0 -148l-119 -537q-31 -132 -27 -229h-151l16 147q-187 -167 -389 -167q-130 0 -200.5 76t-39.5 216q40 175 209.5 273.5t538.5 161.5l14 57q22 101 -26 147.5t-150 46.5q-111 0 -189.5 -49.5
t-119.5 -115.5zM801 283l63 292q-522 -88 -571 -305q-14 -70 31 -117t110 -47q77 0 180 50.5t187 126.5zM467 1188l264 291h193l141 -291h-164l-96 192l-174 -192h-164z" />
    <glyph glyph-name="atilde" unicode="&#xe3;" 
d="M422 793l-115 67q77 100 192 162.5t257 62.5q71 0 130 -17t106 -55t63 -99t0 -148l-119 -537q-31 -132 -27 -229h-151l16 147q-187 -167 -389 -167q-130 0 -200.5 76t-39.5 216q40 175 209.5 273.5t538.5 161.5l14 57q22 101 -26 147.5t-150 46.5q-111 0 -189.5 -49.5
t-119.5 -115.5zM801 283l63 292q-522 -88 -571 -305q-14 -70 31 -117t110 -47q77 0 180 50.5t187 126.5zM1069 1444h102q-27 -83 -97 -151t-148 -68q-50 0 -152 39q-96 39 -145 39q-32 0 -65.5 -31.5t-41.5 -65.5h-102q31 98 101 161t167 63q57 0 141 -37q84 -39 125 -39
q38 0 69.5 25t45.5 65z" />
    <glyph glyph-name="adieresis" unicode="&#xe4;" 
d="M422 793l-115 67q77 100 192 162.5t257 62.5q71 0 130 -17t106 -55t63 -99t0 -148l-119 -537q-31 -132 -27 -229h-151l16 147q-187 -167 -389 -167q-130 0 -200.5 76t-39.5 216q40 175 209.5 273.5t538.5 161.5l14 57q22 101 -26 147.5t-150 46.5q-111 0 -189.5 -49.5
t-119.5 -115.5zM801 283l63 292q-522 -88 -571 -305q-14 -70 31 -117t110 -47q77 0 180 50.5t187 126.5zM1022 1208h-180l43 193h180zM698 1208h-180l43 193h180z" />
    <glyph glyph-name="aring" unicode="&#xe5;" 
d="M422 793l-115 67q77 100 192 162.5t257 62.5q71 0 130 -17t106 -55t63 -99t0 -148l-119 -537q-31 -132 -27 -229h-151l16 147q-187 -167 -389 -167q-130 0 -200.5 76t-39.5 216q40 175 209.5 273.5t538.5 161.5l14 57q22 101 -26 147.5t-150 46.5q-111 0 -189.5 -49.5
t-119.5 -115.5zM801 283l63 292q-522 -88 -571 -305q-14 -70 31 -117t110 -47q77 0 180 50.5t187 126.5zM606 1393q19 85 92 144.5t158 59.5t132 -59.5t28 -144.5t-92 -145t-158 -60t-132 60t-28 145zM696 1393q-11 -47 15 -81t73 -34t89.5 34t52.5 81t-16.5 80.5
t-73.5 33.5t-88.5 -33.5t-51.5 -80.5z" />
    <glyph glyph-name="ae" unicode="&#xe6;" horiz-adv-x="1593" 
d="M750 274l65 301q-63 -12 -114.5 -24.5t-113 -31.5t-109.5 -42.5t-91.5 -53t-72 -69t-38.5 -84.5q-15 -71 26.5 -117.5t111.5 -46.5q95 0 191.5 53.5t144.5 114.5zM1604 504h-656q-42 -189 11 -293.5t204 -104.5q79 0 162 48.5t148 132.5l102 -60q-42 -53 -81 -91
t-94 -76.5t-125.5 -59t-152.5 -20.5q-54 0 -96.5 7t-85.5 25.5t-77 55.5t-58 92q-132 -107 -232.5 -143.5t-216.5 -36.5q-53 0 -100.5 18.5t-82 51.5t-48.5 85.5t0 114.5q15 67 46 123t70 97.5t94.5 76t109.5 58t126 43.5t133 33t140 26l14 57q22 96 -18.5 145t-139.5 49
q-106 0 -183 -49.5t-118 -115.5l-110 67q72 99 185 162t245 63q216 0 276 -143q147 143 338 143q82 0 146 -27.5t108 -86.5t53.5 -150t-16.5 -219zM975 631h508q34 149 -16 238t-169 89q-124 0 -204.5 -86t-118.5 -241z" />
    <glyph glyph-name="ccedilla" unicode="&#xe7;" 
d="M1083 797l-147 -49q-9 100 -60.5 155t-144.5 55q-137 0 -238 -112t-145 -314q-46 -202 6 -314t189 -112q103 0 176 42.5t160 154.5l106 -53q-107 -133 -199.5 -195.5t-218.5 -72.5l-104 -101l4 -4q30 10 63 10q85 0 119 -50.5t15 -121.5q-20 -84 -95.5 -129t-191.5 -45
q-98 0 -182 43l55 90q51 -39 127 -39q55 0 89.5 23.5t43.5 65.5q8 33 -11 55t-57 22q-52 0 -96 -16l-27 39l150 158q-179 17 -250.5 162.5t-17.5 387.5q57 257 207 405t350 148q80 0 138.5 -21t95 -61.5t58 -89.5t33.5 -116z" />
    <glyph glyph-name="egrave" unicode="&#xe8;" 
d="M903 287l103 -60q-42 -53 -81 -91t-95 -76.5t-129 -59t-160 -20.5q-92 0 -165.5 31.5t-126 98.5t-65 171.5t16.5 250.5q57 256 207 404.5t348 148.5q85 0 150.5 -27.5t110.5 -86.5t54.5 -150t-16.5 -219l-21 -98h-692q-39 -173 27 -285.5t200 -112.5q96 0 182 48t152 133
zM373 631h540q34 149 -13.5 238t-166.5 89q-130 0 -223 -87.5t-137 -239.5zM567 1479h224l118 -291h-137z" />
    <glyph glyph-name="eacute" unicode="&#xe9;" 
d="M903 287l103 -60q-42 -53 -81 -91t-95 -76.5t-129 -59t-160 -20.5q-92 0 -165.5 31.5t-126 98.5t-65 171.5t16.5 250.5q57 256 207 404.5t348 148.5q85 0 150.5 -27.5t110.5 -86.5t54.5 -150t-16.5 -219l-21 -98h-692q-39 -173 27 -285.5t200 -112.5q96 0 182 48t152 133
zM373 631h540q34 149 -13.5 238t-166.5 89q-130 0 -223 -87.5t-137 -239.5zM889 1479h223l-332 -291h-137z" />
    <glyph glyph-name="ecircumflex" unicode="&#xea;" 
d="M903 287l103 -60q-42 -53 -81 -91t-95 -76.5t-129 -59t-160 -20.5q-92 0 -165.5 31.5t-126 98.5t-65 171.5t16.5 250.5q57 256 207 404.5t348 148.5q85 0 150.5 -27.5t110.5 -86.5t54.5 -150t-16.5 -219l-21 -98h-692q-39 -173 27 -285.5t200 -112.5q96 0 182 48t152 133
zM373 631h540q34 149 -13.5 238t-166.5 89q-130 0 -223 -87.5t-137 -239.5zM477 1188l264 291h193l141 -291h-164l-96 192l-174 -192h-164z" />
    <glyph glyph-name="edieresis" unicode="&#xeb;" 
d="M373 631h540q34 149 -13.5 238t-166.5 89q-130 0 -223 -87.5t-137 -239.5zM903 287l103 -60q-42 -53 -81 -91t-95 -76.5t-129 -59t-160 -20.5q-92 0 -165.5 31.5t-126 98.5t-65 171.5t16.5 250.5q57 256 207 404.5t348 148.5q85 0 150.5 -27.5t110.5 -86.5t54.5 -150
t-16.5 -219l-21 -98h-692q-39 -173 27 -285.5t200 -112.5q96 0 182 48t152 133zM1032 1208h-180l43 193h180zM709 1208h-181l43 193h181z" />
    <glyph glyph-name="igrave" unicode="&#xec;" horiz-adv-x="569" 
d="M211 0l235 1065h148l-236 -1065h-147zM340 1479h223l119 -291h-137z" />
    <glyph glyph-name="iacute" unicode="&#xed;" horiz-adv-x="569" 
d="M211 0l235 1065h148l-236 -1065h-147zM662 1479h223l-332 -291h-137z" />
    <glyph glyph-name="icircumflex" unicode="&#xee;" horiz-adv-x="569" 
d="M211 0l235 1065h148l-236 -1065h-147zM250 1188l264 291h193l141 -291h-164l-96 192l-174 -192h-164z" />
    <glyph glyph-name="idieresis" unicode="&#xef;" horiz-adv-x="569" 
d="M211 0l235 1065h148l-236 -1065h-147zM805 1208h-180l43 193h180zM481 1208h-180l43 193h180z" />
    <glyph glyph-name="eth" unicode="&#xf0;" 
d="M537 106q142 0 237.5 105.5t138.5 292.5q40 181 -10 285t-192 104t-239 -104.5t-136 -284.5q-42 -186 8 -292t193 -106zM580 1430l139 49q78 -56 143 -140l252 123l39 -102l-223 -113q64 -99 103.5 -213.5t50.5 -245t-19 -260.5q-54 -248 -199.5 -398t-357.5 -150
q-213 0 -294 141t-26 383q53 237 195 376.5t354 139.5q56 0 146 -29q-20 88 -88 189l-244 -119l-49 98l233 113q-80 100 -155 158z" />
    <glyph glyph-name="ntilde" unicode="&#xf1;" horiz-adv-x="1138" 
d="M418 1065h147l-30 -143h4q180 163 350 163q62 0 111 -16.5t86.5 -53t47.5 -96t-6 -145.5l-172 -774h-147l170 770q24 101 -11 144.5t-120 43.5q-76 0 -172.5 -49t-169.5 -112l-176 -797h-148zM1137 1444h102q-27 -82 -97.5 -150.5t-148.5 -68.5q-49 0 -151 39
q-96 39 -146 39q-32 0 -65 -31.5t-41 -65.5h-103q31 98 101.5 161t167.5 63q57 0 141 -37q84 -39 125 -39q38 0 69.5 25t45.5 65z" />
    <glyph glyph-name="ograve" unicode="&#xf2;" 
d="M920 532q44 203 -8.5 314.5t-186.5 111.5t-236.5 -111.5t-146.5 -314.5q-45 -203 8 -314.5t187 -111.5t236 111.5t147 314.5zM1067 532q-36 -157 -110.5 -279.5t-191 -197.5t-257.5 -75q-106 0 -181.5 43t-110.5 118t-42.5 175.5t21.5 215.5q35 157 109 280t190.5 198
t257.5 75q85 0 150.5 -28t106 -78t60.5 -119.5t19.5 -152t-21.5 -175.5zM567 1479h224l118 -291h-137z" />
    <glyph glyph-name="oacute" unicode="&#xf3;" 
d="M920 532q44 203 -8.5 314.5t-186.5 111.5t-236.5 -111.5t-146.5 -314.5q-45 -203 8 -314.5t187 -111.5t236 111.5t147 314.5zM1067 532q-36 -157 -110.5 -279.5t-191 -197.5t-257.5 -75q-106 0 -181.5 43t-110.5 118t-42.5 175.5t21.5 215.5q35 157 109 280t190.5 198
t257.5 75q85 0 150.5 -28t106 -78t60.5 -119.5t19.5 -152t-21.5 -175.5zM889 1479h223l-332 -291h-137z" />
    <glyph glyph-name="ocircumflex" unicode="&#xf4;" 
d="M920 532q44 203 -8.5 314.5t-186.5 111.5t-236.5 -111.5t-146.5 -314.5q-45 -203 8 -314.5t187 -111.5t236 111.5t147 314.5zM1067 532q-36 -157 -110.5 -279.5t-191 -197.5t-257.5 -75q-106 0 -181.5 43t-110.5 118t-42.5 175.5t21.5 215.5q35 157 109 280t190.5 198
t257.5 75q85 0 150.5 -28t106 -78t60.5 -119.5t19.5 -152t-21.5 -175.5zM477 1188l264 291h193l141 -291h-164l-96 192l-174 -192h-164z" />
    <glyph glyph-name="otilde" unicode="&#xf5;" 
d="M920 532q44 203 -8.5 314.5t-186.5 111.5t-236.5 -111.5t-146.5 -314.5q-45 -203 8 -314.5t187 -111.5t236 111.5t147 314.5zM1067 532q-36 -157 -110.5 -279.5t-191 -197.5t-257.5 -75q-106 0 -181.5 43t-110.5 118t-42.5 175.5t21.5 215.5q35 157 109 280t190.5 198
t257.5 75q85 0 150.5 -28t106 -78t60.5 -119.5t19.5 -152t-21.5 -175.5zM1079 1444h103q-27 -82 -97.5 -150.5t-148.5 -68.5q-50 0 -152 39q-96 39 -145 39q-32 0 -65.5 -31.5t-41.5 -65.5h-102q31 98 101 161t167 63q58 0 142 -37q84 -39 125 -39q38 0 69 25t45 65z" />
    <glyph glyph-name="odieresis" unicode="&#xf6;" 
d="M920 532q44 203 -8.5 314.5t-186.5 111.5t-236.5 -111.5t-146.5 -314.5q-45 -203 8 -314.5t187 -111.5t236 111.5t147 314.5zM1067 532q-36 -157 -110.5 -279.5t-191 -197.5t-257.5 -75q-106 0 -181.5 43t-110.5 118t-42.5 175.5t21.5 215.5q35 157 109 280t190.5 198
t257.5 75q85 0 150.5 -28t106 -78t60.5 -119.5t19.5 -152t-21.5 -175.5zM1032 1208h-180l43 193h180zM709 1208h-181l43 193h181z" />
    <glyph glyph-name="divide" unicode="&#xf7;" horiz-adv-x="1228" 
d="M1251 469h-1065l29 127h1065zM700 958q10 52 55.5 89.5t98.5 37.5q52 0 81.5 -37t18.5 -90q-12 -53 -57.5 -90t-97.5 -37q-53 0 -82 37.5t-17 89.5zM512 106q10 52 55.5 89.5t98.5 37.5q52 0 81.5 -37t18.5 -90q-12 -52 -57.5 -89t-98.5 -37t-81.5 37t-16.5 89z" />
    <glyph glyph-name="oslash" unicode="&#xf8;" 
d="M924 811l-533 -653q52 -52 146 -52q134 0 236 111.5t147 314.5q36 169 4 279zM1130 1233h134l-232 -287q93 -153 35 -414q-36 -157 -110.5 -279.5t-191 -197.5t-257.5 -75q-137 0 -209 63l-172 -211h-131l233 289q-93 150 -34 411q35 157 109 280t190.5 198t257.5 75
q131 0 209 -63zM336 254l530 653q-51 51 -141 51q-134 0 -236.5 -111.5t-146.5 -314.5q-39 -167 -6 -278z" />
    <glyph glyph-name="ugrave" unicode="&#xf9;" horiz-adv-x="1138" 
d="M956 0h-147l33 143h-4q-184 -163 -353 -163q-62 0 -111 16.5t-86 53t-47.5 96t5.5 145.5l172 774h147l-170 -770q-22 -101 13.5 -145t119.5 -44q76 0 171 49.5t169 112.5l176 797h148zM625 1479h223l119 -291h-138z" />
    <glyph glyph-name="uacute" unicode="&#xfa;" horiz-adv-x="1138" 
d="M956 0h-147l33 143h-4q-184 -163 -353 -163q-62 0 -111 16.5t-86 53t-47.5 96t5.5 145.5l172 774h147l-170 -770q-22 -101 13.5 -145t119.5 -44q76 0 171 49.5t169 112.5l176 797h148zM946 1479h223l-331 -291h-138z" />
    <glyph glyph-name="ucircumflex" unicode="&#xfb;" horiz-adv-x="1138" 
d="M956 0h-147l33 143h-4q-184 -163 -353 -163q-62 0 -111 16.5t-86 53t-47.5 96t5.5 145.5l172 774h147l-170 -770q-22 -101 13.5 -145t119.5 -44q76 0 171 49.5t169 112.5l176 797h148zM535 1188l264 291h192l142 -291h-164l-97 192l-174 -192h-163z" />
    <glyph glyph-name="udieresis" unicode="&#xfc;" horiz-adv-x="1138" 
d="M956 0h-147l33 143h-4q-184 -163 -353 -163q-62 0 -111 16.5t-86 53t-47.5 96t5.5 145.5l172 774h147l-170 -770q-22 -101 13.5 -145t119.5 -44q76 0 171 49.5t169 112.5l176 797h148zM1090 1208h-181l43 193h181zM766 1208h-180l43 193h180z" />
    <glyph glyph-name="yacute" unicode="&#xfd;" horiz-adv-x="909" 
d="M956 1065h156l-631 -1159q-165 -299 -426 -299q-22 0 -39.5 2t-37.5 5.5t-25 4.5l27 121q60 -6 77 -6q32 0 60 4t67 19t72 41t70 74.5t67 115.5l-133 1077h156l106 -813h4zM831 1479h224l-332 -291h-137z" />
    <glyph glyph-name="thorn" unicode="&#xfe;" horiz-adv-x="1138" 
d="M240 -393h-148l416 1872h147l-118 -539h4q55 61 143 103t164 42q49 0 95 -11.5t91 -37.5t77 -68t54 -103.5t20.5 -144t-22.5 -188.5q-26 -119 -75 -216t-106.5 -158t-124.5 -102.5t-127.5 -58.5t-117.5 -17q-139 0 -254 118l-8 4zM508 815l-125 -561q47 -68 110 -108
t128 -40q139 0 242.5 103t154.5 332q44 200 -12.5 308.5t-196.5 108.5q-69 0 -136.5 -32.5t-164.5 -110.5z" />
    <glyph glyph-name="ydieresis" unicode="&#xff;" horiz-adv-x="909" 
d="M956 1065h156l-631 -1159q-165 -299 -426 -299q-22 0 -39.5 2t-37.5 5.5t-25 4.5l27 121q60 -6 77 -6q32 0 60 4t67 19t72 41t70 74.5t67 115.5l-133 1077h156l106 -813h4zM975 1208h-180l43 193h180zM651 1208h-180l43 193h180z" />
    <glyph glyph-name="dotlessi" unicode="&#x131;" horiz-adv-x="569" 
d="M211 0l235 1065h148l-236 -1065h-147z" />
    <glyph glyph-name="Lslash" unicode="&#x141;" horiz-adv-x="1138" 
d="M539 690l-123 -551h700l-31 -139h-864l139 625l-206 -76l30 139l207 76l158 715h164l-144 -650l428 160l-30 -139z" />
    <glyph glyph-name="lslash" unicode="&#x142;" horiz-adv-x="569" 
d="M537 803l-179 -803h-147l162 727l-203 -94l31 139l202 94l136 613h147l-119 -537l203 92l-31 -139z" />
    <glyph glyph-name="OE" unicode="&#x152;" horiz-adv-x="2048" 
d="M2003 139l-31 -139h-923q-64 0 -162 -10q-142 -10 -182 -10q-133 0 -231 38t-156.5 105.5t-86 163.5t-25 208.5t31.5 243.5q36 165 102 300t163.5 239.5t234.5 162.5t302 58q91 0 179 -10q143 -10 157 -10h883l-31 -140h-723l-110 -495h514l-31 -139h-514l-125 -566h764z
M1130 385l156 709q33 146 -37 206t-243 60q-234 0 -385.5 -158t-219.5 -463t14 -462.5t316 -157.5q173 0 269.5 60t129.5 206z" />
    <glyph glyph-name="oe" unicode="&#x153;" horiz-adv-x="1593" 
d="M313 532q-46 -202 -1.5 -314t171.5 -112q133 0 226 110.5t139 315.5q93 426 -176 426q-127 0 -221 -111.5t-138 -314.5zM1645 504h-656q-20 -90 -21 -161t19.5 -125t69 -83t123.5 -29q94 0 177 48.5t136 132.5l102 -60q-33 -49 -72.5 -90t-94 -78t-125.5 -58t-152 -21
q-129 0 -205.5 46t-103.5 148q-158 -194 -387 -194q-184 0 -265.5 149t-23.5 403q56 255 202 404t330 149q228 0 303 -190q132 190 381 190q79 0 141.5 -27.5t105.5 -86.5t52.5 -150t-16.5 -219zM1020 631h504q34 149 -14 238t-167 89q-242 0 -323 -327z" />
    <glyph glyph-name="Scaron" unicode="&#x160;" horiz-adv-x="1251" 
d="M1317 1135l-156 -33q-3 113 -77 185.5t-210 72.5q-129 0 -215 -60t-112 -170q-12 -52 6.5 -94.5t60 -72t98 -57.5t120 -51.5t126.5 -53.5t117.5 -62.5t93.5 -80t54 -105.5t-2 -139q-15 -67 -43.5 -127.5t-77.5 -117.5t-114 -98t-157.5 -66t-201.5 -25q-93 0 -166.5 24
t-119 60t-79.5 90.5t-50 102t-30 108.5l162 53q48 -299 322 -299q157 0 257.5 73.5t127.5 192.5q13 60 -5 109t-58.5 82t-96.5 63t-119.5 53t-127 52.5t-118 60t-93.5 76t-54 101.5t2 136q36 162 184 271.5t344 109.5q175 0 282.5 -92t125.5 -272zM737 1847h164l90 -192
l180 192h164l-270 -291h-193z" />
    <glyph glyph-name="scaron" unicode="&#x161;" horiz-adv-x="909" 
d="M90 182l135 88q36 -77 105 -120.5t166 -43.5q113 0 182.5 51.5t85.5 125.5q11 48 -8.5 83.5t-59.5 56t-92 39.5t-107.5 34t-106 40t-86.5 56.5t-50 84t4 122.5q35 136 148 212t268 74q105 -2 196.5 -53.5t126.5 -132.5l-120 -90q-47 78 -102.5 113.5t-139.5 35.5
q-92 0 -152 -42.5t-75 -114.5q-9 -41 10.5 -72t59 -49.5t90.5 -37t105.5 -34.5t104 -42t85 -60t50 -88.5t-1.5 -126.5q-22 -99 -91 -171.5t-159 -106t-190 -33.5q-127 0 -228 52.5t-153 149.5zM483 1479h164l90 -193l181 193h163l-268 -291h-192z" />
    <glyph glyph-name="Ydieresis" unicode="&#x178;" horiz-adv-x="1138" 
d="M487 0l138 623l-265 856h181l207 -678l505 678h181l-646 -856l-137 -623h-164zM1171 1577h-180l43 192h180zM848 1577h-180l43 192h180z" />
    <glyph glyph-name="Zcaron" unicode="&#x17d;" horiz-adv-x="1138" 
d="M1077 139l-30 -139h-955l27 119l1011 1220h-673l30 140h879l-23 -107l-1028 -1233h762zM680 1847h164l90 -192l180 192h164l-270 -291h-193z" />
    <glyph glyph-name="zcaron" unicode="&#x17e;" horiz-adv-x="909" 
d="M877 127l-29 -127h-787l25 106l766 832h-524l26 127h725l-22 -107l-766 -831h586zM483 1479h164l90 -193l181 193h163l-268 -291h-192z" />
    <glyph glyph-name="florin" unicode="&#x192;" horiz-adv-x="1251" 
d="M25 -381l51 135q40 -20 94 -20q94 0 144 45t96 160l356 880h-234l27 123h258l49 119q101 241 207 339.5t270 98.5q74 0 111 -16l-65 -133q-37 22 -86 22q-81 0 -142 -67t-139 -248l-47 -111h237l-26 -127h-260l-361 -862q-49 -117 -104 -190.5t-140 -116.5t-200 -43
q-34 0 -96 12z" />
    <glyph glyph-name="circumflex" unicode="&#x2c6;" horiz-adv-x="569" 
d="M250 1188l264 291h193l141 -291h-164l-96 192l-174 -192h-164z" />
    <glyph glyph-name="caron" unicode="&#x2c7;" horiz-adv-x="569" 
d="M313 1479h164l90 -193l181 193h163l-268 -291h-192z" />
    <glyph glyph-name="uni02C9" unicode="&#x2c9;" horiz-adv-x="569" 
d="M883 1253h-639l26 123h639z" />
    <glyph glyph-name="breve" unicode="&#x2d8;" horiz-adv-x="569" 
d="M827 1475h101q-50 -138 -147.5 -208.5t-231.5 -70.5t-199.5 70.5t-52.5 208.5h100q-3 -160 178 -160t252 160z" />
    <glyph glyph-name="dotaccent" unicode="&#x2d9;" horiz-adv-x="569" 
d="M643 1208h-180l43 193h180z" />
    <glyph glyph-name="ring" unicode="&#x2da;" horiz-adv-x="569" 
d="M389 1393q19 85 92 144.5t158 59.5t132 -59.5t28 -144.5t-92 -145t-158 -60t-132 60t-28 145zM479 1393q-11 -47 15 -81t73 -34t89.5 34t52.5 81t-17 80.5t-74 33.5t-87.5 -33.5t-51.5 -80.5z" />
    <glyph glyph-name="ogonek" unicode="&#x2db;" horiz-adv-x="569" 
d="M483 -252l19 -61q-59 -41 -150.5 -79t-185.5 -38q-97 0 -137 47.5t-21 132.5q24 103 155 177t367 112l-4 -21q-58 -19 -103 -37t-105 -49t-99.5 -73t-50.5 -90q-11 -49 13.5 -77t82.5 -28q69 0 219 84z" />
    <glyph glyph-name="tilde" unicode="&#x2dc;" horiz-adv-x="569" 
d="M852 1444h102q-27 -83 -97 -151t-148 -68q-50 0 -152 39q-96 39 -145 39q-32 0 -65.5 -31.5t-41.5 -65.5h-102q31 98 101 161t167 63q57 0 141 -37q84 -39 125 -39q38 0 69.5 25t45.5 65z" />
    <glyph glyph-name="hungarumlaut" unicode="&#x2dd;" horiz-adv-x="569" 
d="M510 1479h219l-315 -291h-129zM817 1479h223l-331 -291h-138z" />
    <glyph glyph-name="uni03A9" unicode="&#x3a9;" horiz-adv-x="1634" 
d="M485 111l2 6q-54 51 -94 116t-67 150t-28.5 182t21.5 213q45 205 171 368t300.5 252t362.5 89q116 0 213 -37.5t160.5 -103t104 -154.5t45.5 -191.5t-17 -214.5q-49 -219 -180 -394.5t-285 -274.5l-2 -6h348l-24 -111h-531l19 82q80 41 156.5 104t147 147.5t126 196
t82.5 234.5q15 71 15.5 143t-13.5 140t-46 127.5t-78.5 104t-115.5 70t-152 25.5q-119 0 -231 -48.5t-198.5 -132t-150 -195.5t-91.5 -238q-37 -160 -12.5 -296t82 -232t139.5 -150l-19 -82h-528l24 111h344z" />
    <glyph glyph-name="uni03BC" unicode="&#x3bc;" horiz-adv-x="1138" 
d="M956 0h-147l33 143h-4q-184 -163 -353 -163q-90 0 -153 32l-90 -405h-148l324 1458h147l-170 -770q-22 -101 13.5 -145t119.5 -44q76 0 171 49.5t169 112.5l176 797h148z" />
    <glyph glyph-name="pi" unicode="&#x3c0;" horiz-adv-x="1261" 
d="M1417 971h-188l-146 -656q-46 -206 -34 -315h-136q-22 61 29 299l150 672h-435q-60 -229 -177.5 -533t-205.5 -438h-137q96 156 208 446t175 525q-174 0 -266 -29l-4 90q108 53 321 53h885z" />
    <glyph glyph-name="uni2010" unicode="&#x2010;" horiz-adv-x="681" 
d="M702 469h-516l29 127h516z" />
    <glyph glyph-name="endash" unicode="&#x2013;" 
d="M106 481l23 103h1024l-23 -103h-1024z" />
    <glyph glyph-name="emdash" unicode="&#x2014;" horiz-adv-x="2048" 
d="M106 481l23 103h2048l-23 -103h-2048z" />
    <glyph glyph-name="quoteleft" unicode="&#x2018;" horiz-adv-x="569" 
d="M395 983l51 225l193 291h86l-160 -291h82l-51 -225h-201z" />
    <glyph glyph-name="quoteright" unicode="&#x2019;" horiz-adv-x="569" 
d="M719 1479l-49 -226l-195 -290h-86l162 290h-82l49 226h201z" />
    <glyph glyph-name="quotesinglbase" unicode="&#x201a;" horiz-adv-x="569" 
d="M440 225l-49 -225l-192 -291h-86l159 291h-82l50 225h200z" />
    <glyph glyph-name="quotedblleft" unicode="&#x201c;" 
d="M428 983l51 225l193 291h86l-160 -291h82l-51 -225h-201zM846 983l51 225l193 291h86l-160 -291h82l-51 -225h-201z" />
    <glyph glyph-name="quotedblright" unicode="&#x201d;" 
d="M1141 1479l-49 -226l-195 -290h-86l162 290h-82l49 226h201zM723 1479l-49 -226l-195 -290h-86l162 290h-82l49 226h201z" />
    <glyph glyph-name="quotedblbase" unicode="&#x201e;" 
d="M862 225l-49 -225l-192 -291h-86l159 291h-82l50 225h200zM444 225l-49 -225l-192 -291h-86l159 291h-81l49 225h200z" />
    <glyph glyph-name="dagger" unicode="&#x2020;" 
d="M762 1499h164l-144 -426l338 45l-35 -160l-315 54l-31 -357l-233 -827h-66l135 827l130 357l-340 -54l34 160l318 -45z" />
    <glyph glyph-name="daggerdbl" unicode="&#x2021;" 
d="M770 1012l-29 -348l-127 -349l340 54l-34 -160l-320 45l-45 -426h-164l144 426l-336 -45l34 160l316 -54l29 349l127 348l-340 -54l34 160l318 -45l45 426h164l-144 -426l338 45l-35 -160z" />
    <glyph glyph-name="bullet" unicode="&#x2022;" 
d="M305 739q34 154 165.5 261.5t285.5 107.5t238 -107.5t50 -261.5t-166 -262t-286 -108t-237.5 108t-49.5 262z" />
    <glyph glyph-name="ellipsis" unicode="&#x2026;" horiz-adv-x="2048" 
d="M291 225h201l-50 -225h-200zM973 225h201l-50 -225h-200zM1655 225h200l-49 -225h-200z" />
    <glyph glyph-name="perthousand" unicode="&#x2030;" horiz-adv-x="2048" 
d="M1479 303q28 125 137.5 214t232.5 89t193.5 -89t42.5 -214q-18 -82 -75.5 -152t-136.5 -110.5t-159 -40.5q-122 0 -192.5 89t-42.5 214zM1597 303q-17 -74 25.5 -129t118.5 -55q68 0 137.5 52.5t87.5 131.5t-28.5 131.5t-114.5 52.5t-138 -52.5t-88 -131.5zM737 303
q18 82 75.5 152t136.5 110.5t159 40.5q122 0 192.5 -89t42.5 -214t-137.5 -214t-232.5 -89t-193.5 89t-42.5 214zM856 303q-17 -74 25 -129t118 -55q68 0 138 52.5t88 131.5t-29 131.5t-115 52.5t-137.5 -52.5t-87.5 -131.5zM291 1176q18 82 75.5 152t136.5 110.5t159 40.5
q122 0 192.5 -89t42.5 -214t-138 -214.5t-233 -89.5q-122 0 -192.5 89.5t-42.5 214.5zM410 1176q-15 -75 26.5 -130t116.5 -55q68 0 137.5 53t87.5 132t-28.5 131.5t-114.5 52.5t-137.5 -52.5t-87.5 -131.5zM1454 1499l-1157 -1519h-121l1153 1519h125z" />
    <glyph glyph-name="guilsinglleft" unicode="&#x2039;" horiz-adv-x="681" 
d="M567 856h144l-336 -324l192 -323h-139l-199 323z" />
    <glyph glyph-name="guilsinglright" unicode="&#x203a;" horiz-adv-x="681" 
d="M352 856h144l194 -324l-342 -323h-139l336 323z" />
    <glyph glyph-name="fraction" unicode="&#x2044;" horiz-adv-x="342" 
d="M-225 -20h-121l1235 1519h127z" />
    <glyph glyph-name="Euro" unicode="&#x20ac;" horiz-adv-x="1251" 
d="M1444 1286l-94 -168q-9 29 -20.5 55.5t-37.5 65t-58 66t-84 47.5t-114 20q-76 0 -144 -27.5t-118 -72.5t-90.5 -104.5t-65.5 -119.5t-40 -122h663l-72 -127h-616l-39 -181h555l-72 -126h-512q-32 -164 47 -275t230 -111q72 0 135 17t115 51t83.5 60.5t73.5 68.5l-39 -170
q-169 -153 -395 -153q-112 0 -197 40t-134.5 109.5t-68 162.5t-3.5 200h-170l71 126h127l39 181h-170l72 127h127q26 115 84 219t139 182.5t188.5 125t223.5 46.5q40 0 74 -3t80.5 -16t84.5 -34.5t76.5 -62.5t65.5 -97z" />
    <glyph glyph-name="afii61289" unicode="&#x2113;" horiz-adv-x="1067" 
d="M1012 315l59 -57q-203 -268 -469 -268q-72 0 -127 21t-86.5 58t-50.5 87t-19 107.5t9 119.5l6 27q-23 -15 -75 -51t-79 -54l-26 82q13 9 91 62.5t115 82.5l129 586q31 139 82.5 241t113 156.5t122 79.5t123.5 25q67 0 114 -27t68.5 -73.5t26 -108t-12.5 -129.5
q-42 -191 -205.5 -382t-437.5 -402l-14 -60q-36 -170 20 -255t164 -85q100 0 196.5 65t162.5 152zM625 1137l-111 -504q215 181 344.5 335.5t163.5 307.5q25 112 -1.5 177t-115.5 65q-35 0 -72 -20t-76 -62t-74.5 -119.5t-57.5 -179.5z" />
    <glyph glyph-name="trademark" unicode="&#x2122;" horiz-adv-x="2027" 
d="M1098 1479l-25 -111h-262l-162 -733h-139l162 733h-258l24 111h660zM1329 1339l-155 -704h-140l187 844h215l112 -639l387 639h215l-186 -844h-139l155 704h-4l-432 -704h-90l-121 704h-4z" />
    <glyph glyph-name="Omega" unicode="&#x2126;" horiz-adv-x="1634" 
d="M485 111l2 6q-54 51 -94 116t-67 150t-28.5 182t21.5 213q45 205 171 368t300.5 252t362.5 89q116 0 213 -37.5t160.5 -103t104 -154.5t45.5 -191.5t-17 -214.5q-49 -219 -180 -394.5t-285 -274.5l-2 -6h348l-24 -111h-531l19 82q80 41 156.5 104t147 147.5t126 196
t82.5 234.5q15 71 15.5 143t-13.5 140t-46 127.5t-78.5 104t-115.5 70t-152 25.5q-119 0 -231 -48.5t-198.5 -132t-150 -195.5t-91.5 -238q-37 -160 -12.5 -296t82 -232t139.5 -150l-19 -82h-528l24 111h344z" />
    <glyph glyph-name="estimated" unicode="&#x212e;" horiz-adv-x="2162" 
d="M2091 719h-1368q-10 0 -10 -10v-414q0 -26 18 -47q101 -106 234 -165.5t282 -59.5q160 0 301 67t244 184h121q-116 -135 -292 -213.5t-376 -78.5q-171 0 -327.5 59.5t-269.5 160.5t-180 241t-67 294q0 155 67 296.5t180 243.5t269.5 162t327.5 60q172 0 328.5 -60
t270 -162t180.5 -243.5t67 -296.5v-18zM1780 772v416q0 31 -21 49q-101 101 -233 159t-279 58t-280 -59.5t-234 -163.5q-20 -20 -20 -51v-408q0 -4 3 -9t7 -5h1049q8 0 8 14z" />
    <glyph glyph-name="partialdiff" unicode="&#x2202;" horiz-adv-x="1204" 
d="M543 1430l-31 96q177 116 391 116q108 0 194.5 -49t144 -148t69 -247.5t-30.5 -347.5q-39 -176 -109.5 -330.5t-166.5 -274t-222.5 -188.5t-265.5 -69q-70 0 -127 20t-94.5 54.5t-63 81t-36 101t-9 112t14.5 116.5q26 118 86.5 218t140 167t172.5 105t186 38
q62 0 116.5 -17.5t91 -43t65 -57t43.5 -57.5t22 -48h2q14 46 25 101q65 291 -21.5 472t-263.5 181q-167 0 -323 -102zM551 98h4q107 0 211.5 77t182.5 198t126 266q-5 39 -25.5 81t-55 81.5t-90.5 64.5t-122 25q-143 0 -274.5 -122t-169.5 -294q-36 -162 22.5 -269.5
t190.5 -107.5z" />
    <glyph glyph-name="uni2206" unicode="&#x2206;" horiz-adv-x="1449" 
d="M70 0l22 100l889 1405h160l260 -1405l-23 -100h-1308zM236 111h1017l-157 847q-5 38 -35 190.5t-33 207.5h-10q-21 -43 -111 -187t-108 -174z" />
    <glyph glyph-name="product" unicode="&#x220f;" horiz-adv-x="1873" 
d="M1819 1339h-252v-1542h-137v1542h-662v-1542h-135v1542h-254v123h1440v-123z" />
    <glyph glyph-name="summation" unicode="&#x2211;" horiz-adv-x="1558" 
d="M1507 -203h-1134v92l614 738l-588 741v94h1076v-119h-875v-8l549 -690l-590 -711v-6h948v-131z" />
    <glyph glyph-name="minus" unicode="&#x2212;" horiz-adv-x="1228" 
d="M1251 469h-1065l29 127h1065z" />
    <glyph glyph-name="uni2215" unicode="&#x2215;" horiz-adv-x="342" 
d="M-225 -20h-121l1235 1519h127z" />
    <glyph glyph-name="uni2219" unicode="&#x2219;" horiz-adv-x="624" 
d="M301 530q12 55 56.5 92t99.5 37q53 0 81.5 -37.5t16.5 -91.5q-10 -52 -55.5 -88t-98.5 -36q-55 0 -83 35.5t-17 88.5z" />
    <glyph glyph-name="radical" unicode="&#x221a;" horiz-adv-x="1585" 
d="M1589 1735l-495 -2052h-127l-363 983l-166 -64l-30 86l284 111l299 -817q5 -18 18 -68.5t19 -73.5h2q2 13 29 140l424 1755h106z" />
    <glyph glyph-name="infinity" unicode="&#x221e;" horiz-adv-x="1908" 
d="M1796 608v-2q0 -150 -99 -245t-233 -95q-67 0 -133 32.5t-125 85t-145 146.5q-46 -51 -72.5 -79t-72.5 -69t-83 -62t-87.5 -37.5t-102.5 -16.5q-131 0 -226 97.5t-95 236.5q0 146 95.5 242t241.5 96q59 0 115.5 -21t110 -63t92.5 -81t92 -99q39 44 51.5 57.5t49 51.5
t55 52t54.5 40t63.5 36t64 18.5t74.5 8.5q142 0 228.5 -91.5t86.5 -238.5zM657 358h2q34 0 70.5 12.5t62.5 26.5t63 46t53.5 48t55 56.5t46.5 48.5q-94 112 -134 150q-114 106 -233 106q-102 0 -162.5 -75t-60.5 -181q0 -101 66 -169.5t171 -68.5zM1470 852h-2
q-43 0 -86 -17t-82 -48.5t-67.5 -59t-65 -67.5t-51.5 -54q130 -139 203 -193.5t156 -54.5q101 0 162 73.5t61 168.5q0 117 -64 184.5t-164 67.5z" />
    <glyph glyph-name="integral" unicode="&#x222b;" horiz-adv-x="1093" 
d="M1065 1753l-27 -96q-36 24 -82 24q-74 0 -112 -49q-43 -46 -61.5 -135.5t-18.5 -243.5q0 -162 15.5 -528.5t15.5 -534.5q0 -285 -99 -421q-33 -50 -86.5 -75.5t-115.5 -25.5q-38 0 -78.5 11.5t-63.5 25.5l29 98q50 -28 102 -28q62 0 105 49q80 98 80 369
q0 170 -15.5 540.5t-15.5 532.5q0 173 26.5 275.5t90.5 164.5q75 78 192 78q68 0 119 -31z" />
    <glyph glyph-name="approxequal" unicode="&#x2248;" horiz-adv-x="1460" 
d="M1292 905l60 -53q-107 -201 -281 -201q-45 0 -90.5 13.5t-73.5 27.5t-102 53q-46 25 -70.5 37t-65 24.5t-75.5 12.5q-71 0 -122 -43t-103 -121l-62 52q51 96 129.5 149t171.5 53q38 0 79 -11.5t61.5 -20.5t63.5 -33t48 -27q12 -6 37 -19.5t36 -19t32 -14.5t35.5 -13
t34.5 -7t40 -3q67 0 117.5 39.5t99.5 124.5zM1292 539l60 -54q-107 -198 -281 -198q-42 0 -85 12t-68 23.5t-91 45.5l-22 11q-43 25 -69.5 38.5t-66 25.5t-75.5 12q-72 0 -122 -43t-103 -123l-62 53q51 96 129.5 149.5t171.5 53.5q39 0 79 -10.5t63.5 -21.5t61 -32t48.5 -26
q5 -3 29.5 -17t31.5 -17t27 -13.5t31 -13.5t29 -8.5t34.5 -7t34.5 -1.5q66 0 114.5 38t100.5 124z" />
    <glyph glyph-name="notequal" unicode="&#x2260;" horiz-adv-x="1505" 
d="M1133 1075l-105 -223h363v-92h-402l-155 -328h557v-92h-596l-123 -266l-76 37l106 229h-344v92h385l154 328h-539v92h578l121 258z" />
    <glyph glyph-name="lessequal" unicode="&#x2264;" horiz-adv-x="1540" 
d="M1419 188l-1011 492v96l1011 492v-113l-907 -424v-4l907 -426v-113zM1425 4h-1032v94h1032v-94z" />
    <glyph glyph-name="greaterequal" unicode="&#x2265;" horiz-adv-x="1538" 
d="M410 1268l1011 -492v-96l-1011 -492v113l905 424v4l-905 426v113zM1423 4h-1028v94h1028v-94z" />
    <glyph glyph-name="lozenge" unicode="&#x25ca;" horiz-adv-x="1587" 
d="M1466 731l-452 -831h-113l-446 831l450 832h113zM1337 727l-333 616q-31 63 -43 105h-5q-17 -54 -45 -105l-329 -610l336 -620q31 -64 40 -101h7q16 52 39 101z" />
    <glyph glyph-name="fi" unicode="&#xfb01;" horiz-adv-x="1138" 
d="M356 0h-147l209 938h-180l26 127h180l27 121q21 94 50.5 155.5t71.5 96t90.5 48t117.5 13.5q27 0 129 -10l-29 -131q-10 1 -46.5 7.5t-55.5 6.5q-77 0 -114.5 -32t-57.5 -119l-35 -156h231l-26 -127h-232zM813 0l236 1065h147l-235 -1065h-148zM1145 1499h147l-39 -176
h-147z" />
    <glyph glyph-name="fl" unicode="&#xfb02;" horiz-adv-x="1138" 
d="M356 0h-147l209 938h-180l26 127h180l27 121q21 94 50.5 155.5t71.5 96t90.5 48t117.5 13.5q27 0 129 -10l-29 -131q-10 1 -46.5 7.5t-55.5 6.5q-77 0 -114.5 -32t-57.5 -119l-35 -156h231l-26 -127h-232zM1141 1479h147l-327 -1479h-148z" />
    <glyph glyph-name="a.superior" horiz-adv-x="614" 
d="M426 1315l-72 49q111 135 289 135q63 0 111.5 -17.5t76 -62.5t11.5 -112l-70 -322q-20 -88 -14 -137h-109l4 72q-42 -25 -66.5 -38t-75 -29.5t-97.5 -16.5q-86 0 -132.5 46t-27.5 130q23 105 133 167.5t340 100.5l4 27q12 48 -17 73t-91 25q-136 0 -197 -90zM668 1018
l37 168q-159 -29 -244 -70.5t-99 -105.5q-6 -34 16 -57t66 -23q52 0 115.5 26.5t108.5 61.5z" />
    <glyph glyph-name="o.superior" horiz-adv-x="614" 
d="M403 1171q-26 -116 2 -176.5t109 -60.5t136 61.5t79 171.5q25 111 -3 172.5t-108 61.5q-76 0 -134 -62t-81 -168zM283 1167q35 155 130.5 243.5t225.5 88.5q131 0 187.5 -88.5t21.5 -243.5q-34 -154 -129.5 -242.5t-226.5 -88.5q-130 0 -186.5 88.5t-22.5 242.5z" />
    <glyph glyph-name="one.superior" horiz-adv-x="749" 
d="M670 1499h110l-176 -799h162l-23 -102h-436l23 102h155l154 697l-180 -27l16 68q159 41 195 61z" />
    <glyph glyph-name="two.superior" horiz-adv-x="749" 
d="M825 598h-635l25 111q53 70 123.5 130t134.5 97.5t130 76t116 69.5t87 74t48 93q15 66 -23.5 107t-125.5 41q-99 0 -170.5 -52t-110.5 -128l-88 32q56 109 157.5 179.5t239.5 70.5q130 0 195.5 -64t40.5 -173q-18 -80 -74 -145.5t-132 -113.5t-154.5 -90.5t-158.5 -97.5
t-126 -115h524z" />
    <glyph glyph-name="three.superior" horiz-adv-x="749" 
d="M455 1022l22 102h84q120 0 186 36t84 118q11 47 -28.5 83t-112.5 36q-83 0 -134 -23.5t-112 -81.5l-73 58q149 149 342 149q130 0 192 -58t37 -163q-16 -76 -64 -125.5t-112 -69.5v-4q53 -18 83.5 -59.5t33.5 -86.5t-4 -91q-25 -115 -129 -185.5t-254 -70.5
q-123 0 -198 53t-105 119l96 65q70 -135 229 -135q102 0 168.5 41t81.5 111q21 93 -29.5 137.5t-191.5 44.5h-92z" />
    </font>
</defs>
</svg>
